<svg style="position:relative" version="1.1" width="210" height="135" xmlns="http://www.w3.org/2000/svg" xmlns:xlink="http://www.w3.org/1999/xlink" xmlns:a="http://ns.adobe.com/AdobeSVGViewerExtensions/3.0/" ng-if="$root.removeAll != true" class="ng-scope">
                            <g ng-preview="" ng-model="config" ng-shapes="indexedShapes" ng-etape="etape" class="ng-presentation ng-pristine ng-untouched ng-valid ng-isolate-scope ng-not-empty" transform="translate(0 25.79815673828125)">
                                <g class="logo-preview ng-scope" transform="scale(0.39622641509433965)">
                                    <g class="logo-ctn"><g class="logo" id="item-dgcb2fvp6sq65rit56xc4ppfwm8t2n61" transform="translate(140 0) scale(1.2641265212880017)"><path d="m55.043 9.214-32.33 45.425h-6.035L51.379 6.628z" fill="#b4b4b4"></path><path d="m53.427.144 44.616 54.495h24.247l35.285-44.132-12.169 2.101v7.114l-5.173 3.717V6.789l-5.536 1.314v2.001h1.354v4.405l-29.684 6.452z" fill="#16427e"></path><path d="m157.207 17.728 24.356 36.911h6.035l-28.02-39.929z" fill="#b4b4b4"></path><path d="M53.427 31.179v8.162h5.9v-1.576a6.628 6.628 0 0 0-5.9-6.586zm-7.355 6.586v1.576h5.657v-8.125c-3.199.471-5.657 3.219-5.657 6.549zm0 12.124h5.657v-8.851h-5.657v8.851zm7.355 0h5.9v-8.851h-5.9v8.851zM158.989 32.639v5.298h3.829v-1.023a4.3 4.3 0 0 0-3.829-4.275zm-4.773 4.274v1.023h3.672v-5.273a4.299 4.299 0 0 0-3.672 4.25zm0 7.868h3.672v-5.743h-3.672v5.743zm4.773 0h3.829v-5.743h-3.829v5.743z" fill="#343434"></path><path d="M52.134 0 16.408 50.92 0 54.639h18.833L52.295 7.921l37.171 46.718h6.79zM197.765 54.733l-9.628-3.381-28.991-40.845-34.808 44.132h5.28l29.528-37.989 26.404 37.989 12.215.094z" fill="#16427e"></path></g></g><g class="main" transform="translate(0 89.189453125)"><g class="formes"></g><g class="inline-shape"><g class="contents"><g id="texts"><g class="firstLine" transform="translate(152.9765625 0) scale(1)"><text id="item-j8pnsd97nieaco2pqhil85vf98lg9979" key="0" dominant-baseline="auto" alignment-baseline="auto" font-family="Cornerstone" font-size="62px" fill="#16427e" letter-spacing="0" xml:space="preserve" class="" transform="translate(0 49)">Av.</text><text id="item-b833ljgaj0md0zoa1ruj9c5h9adm022h" key="1" dominant-baseline="auto" alignment-baseline="auto" font-family="Cornerstone" font-size="62px" fill="#343434" letter-spacing="0" xml:space="preserve" class="" transform="translate(114.484375 49)">Kal</text><g class="ligne" id="item-vvfy6fpqcap9hcbyg1c50425e8o7s3uy" transform="scale(0.5962288294549916 0.5962288294549916) translate(-77.3153761989965 117)"><rect width="530.404" height="3" fill="#16427e"></rect></g></g><g class="sndLine" transform="translate(54.171875 89.25806451612902)  scale(1)"><text id="item-uog67sjrbmrc4uiop2k0d499rm5ufkh2" key="2" dominant-baseline="auto" alignment-baseline="auto" font-family="Cornerstone" font-size="34px" fill="#343434" letter-spacing="0" xml:space="preserve" class="" transform="translate(0 27)">Roofing, Siding, Gutters</text></g><g class="thirdLine" transform="translate(265 124.03225806451613)  scale(1)"></g><g class="initial"></g></g></g></g></g>
                                </g>
                            </g>
                        </svg>