<svg style="position:relative" version="1.1" width="210" height="135" xmlns="http://www.w3.org/2000/svg" xmlns:xlink="http://www.w3.org/1999/xlink" xmlns:a="http://ns.adobe.com/AdobeSVGViewerExtensions/3.0/" ng-if="$root.removeAll != true" class="ng-scope">
                            <g ng-preview="" ng-model="config" ng-shapes="indexedShapes" ng-etape="etape" class="ng-presentation ng-pristine ng-untouched ng-valid ng-isolate-scope ng-not-empty" transform="translate(0 9.1414794921875)">
                                <g class="logo-preview ng-scope" transform="scale(0.39622641509433965)">
                                    <g class="logo-ctn"><g class="logo" id="item-n0609clkkvkczdu9iyvhynfzhhcvcvka" transform="translate(156.34402465820312 0) scale(1.532407549120641)"><path d="M137.619 17.96c-5.794-4.303-13.468-4.354-20.374-4.057 4.512.977 9.554 2.006 12.544 5.884 3.103 3.9 2.468 9.359.806 13.729-3.252 8.427-9.419 15.272-15.623 21.663.028-5.972.028-11.945.014-17.919.074-1.917-.656-3.848-2.163-5.078a769.072 769.072 0 0 0-9.553-8.315c-.425-.544-1.454-.865-1.275-1.678 5.287-.708 10.955-1.052 15.989 1.059 3.042 1.224 5.496 4.027 5.802 7.368.574 5.422-2.215 10.373-4.803 14.915 4.02-5.228 7.92-11.201 8.181-17.995.246-4.37-3.028-8.226-7.106-9.403-7.256-2.245-15.042-.947-22.246.843-6.749-5.684-13.29-11.604-19.979-17.354C75.67-.481 71.942-.571 69.75 1.54c-6.063 5.183-11.961 10.567-18.084 15.683-.012-.929-.02-1.854-.021-2.778a2.317 2.317 0 0 0-2.297-2.319c-1.901-.015-3.802-.053-5.698.027-1.439-.067-2.812 1.192-2.789 2.647-.134 3.997.008 8.001-.052 12.006-2.147 1.901-4.362 3.729-6.466 5.667-1.357 1.187-1.916 3.014-1.85 4.773-.007 8.501 0 36.056 0 44.557 4.02-1.983 7.973-4.108 11.895-6.271.067-5.683.022-30.41.03-36.086 9.731-8.561 19.567-17.01 29.247-25.623 9.852 8.42 19.494 17.077 29.338 25.504.163 8.718-.045 17.442.104 26.168a189.465 189.465 0 0 1-4.336 3.348l2.004 2.768c1.763 2.436 1.298 5.79-1.036 7.479l-8.328 6.03a5.054 5.054 0 0 1-2.982.96c-1.735 0-3.397-.863-4.444-2.308l-2.414-3.333c-10.488 6.327-21.525 11.758-32.894 16.287-14.229 5.533-29.27 9.813-44.669 9.418 11.126 3.028 22.834 1.082 33.804-1.692 3.564-1.261 7.383-.769 11.089-.851 19.889 0 39.777.008 59.666 0 3.304.284 6.488-2.527 6.398-5.884.074-11.118-.016-22.245.045-33.371 5.638-4.653 11.007-9.68 15.757-15.25 4.721-5.66 9.239-11.947 10.739-19.308.938-4.258-.271-9.158-3.887-11.828z" fill="#f69322"></path><path d="m98.359 73.359-3.178-4.388c-.334-.462-.959-.582-1.392-.269a2.423 2.423 0 0 1-2.152.385c-.697-.199-1.369-.689-1.843-1.343-.778-1.076-1.121-2.743.478-3.9.433-.313.514-.944.179-1.406l-2.81-3.881c-1.188-1.64-4.523-5.735-9.85-8.354-3.162-1.556-6.532-2.204-10.007-2.35-8.161-.344-15.746 4.782-15.746 4.782s5.145-1.066 9.981-.729c3.452.242 8.061 1.239 10.426 4.506a8.087 8.087 0 0 1 1.155 2.304c.735 2.934-.838 4.265-2.504 5.674-.124.104-.246.208-.367.312l-.008.007a1.025 1.025 0 0 0-.353.658c-5.645 4.661-11.588 8.955-17.867 12.722-9.76 5.709-20.285 10.714-31.629 12.075-5.465.581-11.854.165-15.821-4.126-3.795-4.196-3.405-10.288-2.508-15.476-2.295 6.667-4.146 14.531-.414 21.045 3.242 5.488 10.015 7.385 16.021 7.448 10.617.001 20.853-3.648 30.319-8.188C58.276 86.05 67.417 80 75.897 73.125c.348.113.74.077 1.068-.14.461-.304.936-.609 1.413-.904 2.484-1.535 4.602-1.576 5.663-.109.852 1.176.797 3.212-.643 4.253-.433.314-.513.945-.178 1.407l3.177 4.388c.798 1.102 2.261 1.407 3.263.683l8.328-6.03c1.002-.726 1.168-2.213.371-3.314z" fill="#424243"></path></g></g><g class="main" transform="translate(0 190.0001220703125)"><g class="formes"></g><g class="inline-shape"><g class="contents"><g id="texts"><g class="firstLine" transform="translate(166.9140625 0) scale(1)"><text id="item-6a3dvt60bokt3ygmwcgssu8jnvcyqaoi" key="0" dominant-baseline="auto" alignment-baseline="auto" font-family="Myndraine" font-size="62px" fill="#424243" letter-spacing="0" xml:space="preserve" class="" transform="translate(0 48)">Av.</text><text id="item-wcxwzjys3lidopll5bkz5ys3xgyqb6c9" key="1" dominant-baseline="auto" alignment-baseline="auto" font-family="Myndraine" font-size="62px" fill="#f69322" letter-spacing="0" xml:space="preserve" class="" transform="translate(105.46875 48)">Kal</text></g><g class="sndLine" transform="translate(70.3359375 71)  scale(1)"><text id="item-04e2g97ffl9f2cod7h5h5g4ua6j2248a" key="2" dominant-baseline="auto" alignment-baseline="auto" font-family="Myndraine" font-size="34px" fill="#f69322" letter-spacing="0" xml:space="preserve" class="" transform="translate(0 26)">Roofing, Siding, Gutters</text></g><g class="thirdLine" transform="translate(265 106.7741935483871)  scale(1)"></g><g class="initial"></g></g></g></g></g>
                                </g>
                            </g>
                        </svg>