<svg style="position:relative" version="1.1" width="210" height="135" xmlns="http://www.w3.org/2000/svg" xmlns:xlink="http://www.w3.org/1999/xlink" xmlns:a="http://ns.adobe.com/AdobeSVGViewerExtensions/3.0/" ng-if="$root.removeAll != true" class="ng-scope">
                            <g ng-preview="" ng-model="config" ng-shapes="indexedShapes" ng-etape="etape" class="ng-presentation ng-pristine ng-valid ng-isolate-scope ng-not-empty ng-touched" transform="translate(0 6.8169097900390625)">
                                <g class="logo-preview ng-scope" transform="scale(0.39622641509433965)">
                                    <g class="logo-ctn"><g class="logo" id="item-3k1s9h0pgft23lfc8giyliaun24ichvy" transform="translate(182.49862670898438 0) scale(2.1454829431820346)"><path d="M39.824.023C18.452-.725 0 17.068 0 38.453a38.256 38.256 0 0 0 5.762 20.234c.19.305.619.35.873.097l2.978-2.979-.018-.033 28.469-28.376a.556.556 0 0 1 .782.001l21.432 21.434a.552.552 0 0 0 .391.162h5.029c.492 0 .74-.596.391-.943l-8.5-8.5v-9.874h-4.83v5.042L38.845 20.803a.553.553 0 0 0-.782 0L7.386 51.398A33.293 33.293 0 0 1 4.914 35.26C6.49 18.657 20.416 5.45 37.081 4.787c19.232-.765 35.066 14.602 35.066 33.666 0 6.234-1.725 12.053-4.679 17.062a.54.54 0 0 0 .082.66l2.681 2.681a.561.561 0 0 0 .869-.095 38.25 38.25 0 0 0 5.807-20.308C76.906 17.674 60.428.745 39.824.023z" fill="#ed1c24"></path><path d="M61.256 63.202 38.845 40.628a.553.553 0 0 0-.784-.001L27.815 50.872a.552.552 0 0 1-.943-.391v-3.374a.553.553 0 0 0-.552-.553h-3.727a.552.552 0 0 0-.554.553v9.312a.55.55 0 0 1-.162.391l-3.106 3.105a.553.553 0 0 0 .391.943h5.029a.552.552 0 0 0 .391-.161l13.479-13.479a.553.553 0 0 1 .784.002L57.09 65.642a.562.562 0 0 1-.082.859c-5.322 3.543-11.682 5.644-18.554 5.644-8.665 0-16.54-3.296-22.51-8.67a.54.54 0 0 0-.749.017l-2.605 2.605a.565.565 0 0 0 .014.813c6.829 6.207 15.894 9.996 25.85 9.996 9.923 0 18.966-3.767 25.787-9.94a.565.565 0 0 0 .017-.812l-2.973-2.975-.029.023z" fill="#1a1a1a"></path><path d="M37.442 58.569h-2.753c-.247 0-.447.2-.447.447v2.753c0 .247.201.447.447.447h2.753c.246 0 .445-.2.445-.447v-2.753a.446.446 0 0 0-.445-.447zm4.775 0h-2.75c-.249 0-.448.2-.448.447v2.753c0 .247.199.447.448.447h2.75c.249 0 .45-.2.45-.447v-2.753a.449.449 0 0 0-.45-.447zm-4.775 4.778h-2.753a.447.447 0 0 0-.447.447v2.752c0 .248.201.448.447.448h2.753c.246 0 .445-.2.445-.448v-2.752a.446.446 0 0 0-.445-.447zm4.775 0h-2.75a.447.447 0 0 0-.448.447v2.752c0 .248.199.448.448.448h2.75c.249 0 .45-.2.45-.448v-2.752a.449.449 0 0 0-.45-.447z" fill="#1a1a1a"></path></g></g><g class="main" transform="translate(0 185.00003051757812)"><g class="formes"></g><g class="inline-shape"><g class="contents"><g id="texts"><g class="firstLine" transform="translate(145.609375 0) scale(1)"><text id="item-mg3f6aapita0akaj8prz9zqxzgbjyo8u" key="0" dominant-baseline="auto" alignment-baseline="auto" font-family="Cornerstone" font-size="62px" fill="#1a1a1a" letter-spacing="0" xml:space="preserve" class="" transform="translate(0 49)">Av. Kal</text><g class="ligne" id="item-ky6uj4xiaz1gdw05ps43ihy4tqpicxjl" transform="scale(0.7955778301886792 0.7955778301886792) translate(-114.93218705995702 85)"><path d="M0,6.69h530C530,6.69,263.079-8.363,0,6.69z" fill="#1a1a1a"></path></g></g><g class="sndLine" transform="translate(54.171875 89.2580339985509)  scale(1)"><text id="item-ybljtacdohpd9j6e8gldqxcj10b6s5f5" key="1" dominant-baseline="auto" alignment-baseline="auto" font-family="Cornerstone" font-size="34px" fill="#1a1a1a" letter-spacing="0" xml:space="preserve" class="" transform="translate(0 27)">Roofing, Siding, Gutters</text></g><g class="thirdLine" transform="translate(265 124.032227546938)  scale(1)"></g><g class="initial"></g></g></g></g></g>
                                </g>
                            </g>
                        </svg>