<svg class="injected-svg" id="svg-e4354969-e4f6-4f88-b79e-db9512a4d69b" height="100%" width="100%" viewBox="0 0 540 508" xmlns="http://www.w3.org/2000/svg"><g xmlns="http://www.w3.org/2000/svg" fill="#ffad01" id="shape-svg"><title>Form</title><g id="Слой_2" data-name="Слой 2"><g id="Слой_1-2" data-name="Слой 1"><path transform="translate(40.125, 199.125) scale(1.45,1.45)" d="M75.73,0H0V75.73H315.53V0ZM310.48,70.68H75.73V5.05H310.48Z"></path></g></g></g><g xmlns="http://www.w3.org/2000/svg" fill="#ffffff" id="icon-svg">
	<path transform="translate(55, 209) scale(0.4,0.4)" d="M 49.623 72.049 L 0 113.098 0 141.171 C -0 168.791, 0.031 169.222, 1.947 167.872 C 3.017 167.117, 25.516 148.587, 51.944 126.694 L 99.994 86.888 149.612 127.932 C 176.902 150.506, 199.628 168.730, 200.115 168.429 C 201.243 167.732, 201.288 111.914, 200.160 112.250 C 199.698 112.388, 193.398 107.601, 186.160 101.614 L 173 90.728 173 62.364 L 173 34 149.500 34 L 126 34 126 42.500 C 126 47.175, 125.729 51, 125.398 51 C 125.067 51, 119.400 46.500, 112.805 41 C 106.209 35.500, 100.460 31, 100.029 31 C 99.598 31, 76.915 49.472, 49.623 72.049 M 137.667 45.667 C 137.300 46.033, 137 53.008, 137 61.167 L 137 76 118.844 60.953 C 108.859 52.677, 100.117 46.125, 99.420 46.392 C 97.423 47.159, 11.885 118.136, 11.384 119.442 C 11.137 120.085, 11.062 126.122, 11.218 132.858 L 11.500 145.104 55.740 108.514 L 99.980 71.924 142.968 107.485 C 166.611 127.043, 186.640 143.308, 187.478 143.630 C 188.791 144.134, 189 142.486, 189 131.611 L 189 119.008 175 107.394 L 161 95.781 161 70.391 L 161 45 149.667 45 C 143.433 45, 138.033 45.300, 137.667 45.667 M 0.441 141 C 0.441 156.675, 0.579 163.087, 0.748 155.250 C 0.917 147.412, 0.917 134.587, 0.748 126.750 C 0.579 118.912, 0.441 125.325, 0.441 141 M 70 143.500 L 70 168 100 168 L 130 168 130 143.500 L 130 119 100 119 L 70 119 70 143.500 M 81 134.500 L 81 139 88.500 139 L 96 139 96 134.500 L 96 130 88.500 130 L 81 130 81 134.500 M 104 134.500 L 104 139 111.500 139 L 119 139 119 134.500 L 119 130 111.500 130 L 104 130 104 134.500 M 81 152.500 L 81 157 88.500 157 L 96 157 96 152.500 L 96 148 88.500 148 L 81 148 81 152.500 M 104 152.500 L 104 157 111.500 157 L 119 157 119 152.500 L 119 148 111.500 148 L 104 148 104 152.500" stroke="none" fill-rule="evenodd"></path>
</g><path xmlns="http://www.w3.org/2000/svg" id="SvgjsPath136154894" d="M0.96-12.70L0.84-11.42L2.32-11.04L2.54-10.76L2.54-2.18L2.34-1.92L0.78-1.06L0.78 0L6.78 0L6.82-1.34L5.06-1.62L4.82-1.92L4.82-5.06C5.40-4.82 6.08-4.72 6.76-4.72L8.58-1.86L9.46 0.10L12.46 0L12.46-0.34L8.76-5.12C10.18-5.76 11.18-7.06 11.18-8.72C11.18-11.34 9.54-12.70 6.48-12.70C5.54-12.70 4.58-12.64 3.60-12.60ZM4.82-10.56L5.02-10.80C5.44-10.90 5.92-10.96 6.44-10.96C8-10.96 8.84-10.24 8.84-8.76C8.84-8.10 8.68-7.40 8.32-6.92C7.88-6.60 7.26-6.42 6.68-6.42C6.02-6.42 5.42-6.50 4.82-6.62ZM17.52-8.82C15.10-8.82 13.22-6.82 13.22-4.30C13.22-1.52 14.76 0.22 17.40 0.22C19.82 0.22 21.70-1.78 21.70-4.30C21.70-7.06 20.16-8.82 17.52-8.82ZM17.36-7.06C18.70-7.06 19.50-5.94 19.50-4.30C19.50-3.36 19.32-2.52 18.94-1.96C18.58-1.70 18.08-1.52 17.56-1.52C16.22-1.52 15.42-2.64 15.42-4.30C15.42-5.20 15.60-6.06 15.98-6.64C16.34-6.90 16.84-7.06 17.36-7.06ZM27.58-8.82C25.16-8.82 23.28-6.82 23.28-4.30C23.28-1.52 24.82 0.22 27.46 0.22C29.88 0.22 31.76-1.78 31.76-4.30C31.76-7.06 30.22-8.82 27.58-8.82ZM27.42-7.06C28.76-7.06 29.56-5.94 29.56-4.30C29.56-3.36 29.38-2.52 29-1.96C28.64-1.70 28.14-1.52 27.62-1.52C26.28-1.52 25.48-2.64 25.48-4.30C25.48-5.20 25.66-6.06 26.04-6.64C26.40-6.90 26.90-7.06 27.42-7.06ZM32.72-7.86L32.72-7.44L34.00-6.32L34.00 3.70L35.56 3.78L36.26-0.76L36.02-6.98L37.86-6.74L38.02-8.66L36.12-8.60L36.04-9.60L36.04-10.12C36.04-10.42 36.10-10.76 36.26-11.02C36.82-11.28 37.52-11.44 38.32-11.50L38.06-13.60C35.42-13.32 34.00-11.72 34.00-9.60L34.00-8.78ZM39.40-7.46L39.40-7.12L40.42-5.68L40.42-1.96L40.26-1.72L38.94-0.86L38.94 0L43.96 0L44.02-1.04L42.76-1.38L42.56-1.64L42.56-6.28L42.66-8.72L42.28-8.82ZM39.76-12.12L40.70-10L43.10-11.22L41.84-13.38ZM45.32-7.46L45.32-7.12L46.36-5.68L46.36-1.96L46.20-1.72L44.88-0.86L44.88 0L50.04 0L50.10-1.02L48.70-1.42L48.50-1.66L48.50-5.36C48.90-6.46 49.66-7.06 50.46-7.06C51.36-7.06 51.98-6.50 51.98-5.18L51.98-1.92L51.84-1.68L50.82-0.86L50.82 0L55.34 0L55.42-0.96L54.32-1.28L54.12-1.56L54.12-5.28C54.12-7.64 52.78-8.82 50.92-8.82C50.58-8.82 50.22-8.76 49.92-8.70C49.30-8.30 48.62-7.76 48.16-7.12L47.96-7.12L47.96-8.82L47.60-8.82ZM60.28-8.82C58.12-8.82 56.70-7.26 56.70-5.60C56.70-4.62 57.06-3.82 57.72-3.28C57.40-2.94 57.14-2.56 56.98-2.16C56.94-1.94 56.90-1.74 56.90-1.52C56.90-1.02 57.04-0.56 57.30-0.18C56.82 0.28 56.40 0.84 56.14 1.36C56.06 1.64 56.02 1.96 56.02 2.26C56.02 4.02 57.34 5.12 59.62 5.12C62.74 5.12 64.50 3.36 64.50 1.44C64.50-0.08 63.38-1.06 61.40-1.06L59.70-1.06C59.18-1.06 58.86-1.40 58.86-1.94C58.86-2.22 58.92-2.48 59.02-2.68C59.38-2.60 59.78-2.56 60.20-2.56C62.36-2.56 63.78-4.08 63.78-5.76C63.78-6.28 63.62-6.80 63.34-7.26L64.82-7.10L65.10-8.72L64.94-8.92L61.52-8.64C61.14-8.76 60.74-8.82 60.28-8.82ZM59.52 0.72L60.98 0.72C62.06 0.72 62.44 1.14 62.44 1.90C62.44 2.28 62.36 2.64 62.12 2.90C61.54 3.18 60.82 3.32 59.96 3.32C58.70 3.32 58.10 2.72 58.10 1.78C58.10 1.36 58.24 0.90 58.56 0.56ZM59.04-6.88C59.36-7.04 59.80-7.16 60.26-7.16C61.24-7.16 61.74-6.58 61.74-5.68C61.74-5.22 61.62-4.76 61.40-4.50C61.10-4.32 60.64-4.20 60.22-4.20C59.22-4.20 58.74-4.80 58.74-5.68C58.74-6.10 58.84-6.54 59.04-6.88ZM66.74-2.56L66.44-2.46L65.52 1.94L66.88 2.30L67.78 0.06L68.82-1.54L68.78-1.86ZM84.52-11.62C83.38-12.38 81.76-12.86 80.04-12.86C77.24-12.86 75.48-11.26 75.48-9.20C75.48-7.02 76.88-5.62 79.78-5.32C81.70-5.12 82.44-4.46 82.44-3.44C82.44-2.90 82.22-2.34 81.80-1.98C81.26-1.74 80.50-1.60 79.72-1.60C79.32-1.60 78.90-1.64 78.52-1.70C77.94-2.04 77.28-2.70 76.72-3.38L76.36-3.38L74.94-1.06C76.32-0.16 77.90 0.26 79.66 0.26C82.56 0.26 84.64-1.22 84.64-3.62C84.64-5.84 83.12-7.12 80.26-7.48C78.26-7.72 77.64-8.44 77.64-9.46C77.64-9.88 77.76-10.34 78.08-10.66C78.56-10.92 79.22-11.04 79.84-11.04C80.30-11.04 80.74-11 81.14-10.92C81.76-10.44 82.22-9.88 82.56-9.32L82.90-9.32ZM86.38-7.46L86.38-7.12L87.40-5.68L87.40-1.96L87.24-1.72L85.92-0.86L85.92 0L90.94 0L91-1.04L89.74-1.38L89.54-1.64L89.54-6.28L89.64-8.72L89.26-8.82ZM86.74-12.12L87.68-10L90.08-11.22L88.82-13.38ZM96.46-12.26L96.42-11.66L97.82-10.70L97.98-10.44L97.98-8.36C97.52-8.64 96.86-8.82 96.12-8.82C93.78-8.82 91.98-6.90 91.98-4.24C91.98-1.46 93.34 0.22 95.56 0.22C95.86 0.22 96.14 0.20 96.38 0.16C97.08-0.12 97.76-0.56 98.32-1.12L98.52-1.12L98.52 0.18L98.92 0.18L101.32-0.26L101.38-1L100.24-1.78L100.12-2L100.12-10.94L100.30-13.16L99.94-13.26ZM97.98-2.80C97.48-2 96.88-1.54 96.12-1.54C94.98-1.54 94.16-2.44 94.16-4.22C94.16-5.10 94.32-5.88 94.62-6.46C95.02-6.84 95.60-7.04 96.20-7.04C96.88-7.04 97.50-6.88 97.98-6.58ZM102.90-7.46L102.90-7.12L103.92-5.68L103.92-1.96L103.76-1.72L102.44-0.86L102.44 0L107.46 0L107.52-1.04L106.26-1.38L106.06-1.64L106.06-6.28L106.16-8.72L105.78-8.82ZM103.26-12.12L104.20-10L106.60-11.22L105.34-13.38ZM108.82-7.46L108.82-7.12L109.86-5.68L109.86-1.96L109.70-1.72L108.38-0.86L108.38 0L113.54 0L113.60-1.02L112.20-1.42L112-1.66L112-5.36C112.40-6.46 113.16-7.06 113.96-7.06C114.86-7.06 115.48-6.50 115.48-5.18L115.48-1.92L115.34-1.68L114.32-0.86L114.32 0L118.84 0L118.92-0.96L117.82-1.28L117.62-1.56L117.62-5.28C117.62-7.64 116.28-8.82 114.42-8.82C114.08-8.82 113.72-8.76 113.42-8.70C112.80-8.30 112.12-7.76 111.66-7.12L111.46-7.12L111.46-8.82L111.10-8.82ZM123.78-8.82C121.62-8.82 120.20-7.26 120.20-5.60C120.20-4.62 120.56-3.82 121.22-3.28C120.90-2.94 120.64-2.56 120.48-2.16C120.44-1.94 120.40-1.74 120.40-1.52C120.40-1.02 120.54-0.56 120.80-0.18C120.32 0.28 119.90 0.84 119.64 1.36C119.56 1.64 119.52 1.96 119.52 2.26C119.52 4.02 120.84 5.12 123.12 5.12C126.24 5.12 128 3.36 128 1.44C128-0.08 126.88-1.06 124.90-1.06L123.20-1.06C122.68-1.06 122.36-1.40 122.36-1.94C122.36-2.22 122.42-2.48 122.52-2.68C122.88-2.60 123.28-2.56 123.70-2.56C125.86-2.56 127.28-4.08 127.28-5.76C127.28-6.28 127.12-6.80 126.84-7.26L128.32-7.10L128.60-8.72L128.44-8.92L125.02-8.64C124.64-8.76 124.24-8.82 123.78-8.82ZM123.02 0.72L124.48 0.72C125.56 0.72 125.94 1.14 125.94 1.90C125.94 2.28 125.86 2.64 125.62 2.90C125.04 3.18 124.32 3.32 123.46 3.32C122.20 3.32 121.60 2.72 121.60 1.78C121.60 1.36 121.74 0.90 122.06 0.56ZM122.54-6.88C122.86-7.04 123.30-7.16 123.76-7.16C124.74-7.16 125.24-6.58 125.24-5.68C125.24-5.22 125.12-4.76 124.90-4.50C124.60-4.32 124.14-4.20 123.72-4.20C122.72-4.20 122.24-4.80 122.24-5.68C122.24-6.10 122.34-6.54 122.54-6.88ZM130.24-2.56L129.94-2.46L129.02 1.94L130.38 2.30L131.28 0.06L132.32-1.54L132.28-1.86ZM148.48-11.26C147.46-12.28 145.84-12.86 144.18-12.86C140.72-12.86 138.26-10.08 138.26-6.26C138.26-2.14 140.58 0.26 143.60 0.26C144.64 0.26 145.62-0.04 146.36-0.60L148.18 0.26L148.50 0.06L148.14-2.14L148.14-4.52L149.04-5.94L149.04-6.52L147.22-6.52L144.02-6.64L143.84-5.40L145.82-4.84L146.02-4.62L146.02-2.34C145.40-1.96 144.70-1.76 144.06-1.76C142.22-1.76 140.60-3.26 140.60-6.36C140.60-7.88 140.96-9.28 141.62-10.24C142.22-10.72 143.04-11 143.92-11C144.22-11 144.58-10.94 144.82-10.88C145.48-10.34 146.04-9.68 146.38-9.10L146.72-9.10ZM155.44-8.28L155.38-7.42L156.84-6.72L157.00-6.46L157.00-3.16C156.58-2.08 155.84-1.56 155.00-1.56C154.12-1.56 153.62-2.14 153.62-3.30L153.62-6.30L153.72-8.72L153.36-8.82L150.34-7.46L150.34-7.12L151.48-5.74L151.48-3.16C151.48-1.04 152.54 0.22 154.58 0.22C154.92 0.22 155.28 0.18 155.56 0.12C156.24-0.26 156.84-0.72 157.32-1.24L157.52-1.24L157.52 0.18L157.96 0.18L160.34-0.26L160.40-1L159.26-1.76L159.14-2L159.14-8.56L158.88-8.66ZM164.72-10.62L163.92-10.84L162.50-8.94L161.16-8L161.12-7.54L162.42-6.54L162.42-2.88C162.42-1.04 163.36 0.22 165.10 0.22C166.04 0.22 166.94-0.12 167.54-0.78L167.02-1.90C166.62-1.70 166.10-1.60 165.58-1.60C164.96-1.60 164.56-2.06 164.56-3.10L164.56-7L166.68-6.76L166.84-8.66L164.54-8.60ZM171.62-10.62L170.82-10.84L169.40-8.94L168.06-8L168.02-7.54L169.32-6.54L169.32-2.88C169.32-1.04 170.26 0.22 172 0.22C172.94 0.22 173.84-0.12 174.44-0.78L173.92-1.90C173.52-1.70 173-1.60 172.48-1.60C171.86-1.60 171.46-2.06 171.46-3.10L171.46-7L173.58-6.76L173.74-8.66L171.44-8.60ZM183.36-4L183.36-4.82C183.36-7.26 182.08-8.82 179.78-8.82C177.30-8.82 175.50-6.84 175.50-4.30C175.50-1.48 177.04 0.22 179.60 0.22C181.12 0.22 182.42-0.22 183.36-1.12L182.82-2.22C181.96-1.82 181.02-1.58 180.06-1.58C178.60-1.58 177.68-2.30 177.68-3.86L179.58-3.78ZM177.68-5.16C177.68-5.72 177.84-6.24 178.12-6.66C178.52-7 179.06-7.14 179.58-7.14C180.58-7.14 181.16-6.46 181.18-5.38ZM185.18-7.40L185.18-7.06L186.22-5.68L186.22-1.98L186.06-1.74L184.74-0.88L184.74 0L190.58 0L190.64-1.20L188.52-1.50L188.36-1.72L188.36-5.76C189.14-6.20 190.18-6.46 191.26-6.50L191.26-6.74L190.84-8.82L190.54-8.82C189.66-8.52 188.76-7.90 188.02-7.10L187.82-7.10L187.82-8.82L187.46-8.82ZM192.56-0.62C193.62-0.02 194.92 0.22 196.30 0.22C198.66 0.22 200-0.84 200-2.52C200-4.14 198.68-4.98 196.46-5.24C195.34-5.36 194.98-5.66 194.98-6.28C194.98-6.48 195.04-6.74 195.16-6.96C195.52-7.14 196.02-7.18 196.48-7.18C196.74-7.18 197.06-7.16 197.30-7.12C197.84-6.84 198.34-6.42 198.72-6.04L199-6.04L199.92-8.04C199.06-8.56 197.84-8.82 196.60-8.82C194.28-8.82 193-7.58 193-6.14C193-4.60 194.10-3.70 196.14-3.48C197.60-3.32 198-2.94 198-2.42C198-2.18 197.92-1.88 197.76-1.70C197.34-1.50 196.78-1.40 196.16-1.40C195.94-1.40 195.62-1.42 195.38-1.46C194.82-1.76 194.30-2.16 193.84-2.66L193.56-2.66Z" fill="#ffad01" fontsize="20" transform="matrix(1,0,0,1,219.11,281.24)"></path><path xmlns="http://www.w3.org/2000/svg" id="SvgjsPath136155469" d="M0.36 0L6.81 0L10.61-9.31L26.16-9.31L29.95 0L36.76 0L21.37-36.50L15.76-36.50ZM18.41-28.24L23.71-15.29L13.05-15.29ZM59.59-23.40L53.30-23.40L49.24-13.47C48.62-11.96 47.94-9.83 47.53-8.06C47.11-9.88 46.38-11.96 45.76-13.36L41.44-23.40L34.32-23.40L45.08 0.10L49.50 0.10ZM60.01-3.90C60.01-1.77 61.57 0.26 64.17 0.26C66.40 0.26 67.96-1.77 67.96-3.90C67.96-5.72 66.40-7.75 64.17-7.75C61.57-7.75 60.01-5.72 60.01-3.90ZM84.24 0L90.64 0L90.64-18.77L105.51 0L113.62 0L97.71-19.45L112.68-36.40L104.99-36.40L90.64-19.14L90.64-36.40L84.24-36.40ZM119.29-17.37C121.00-18.15 122.72-18.98 125.42-18.98C128.91-18.98 129.95-16.85 129.79-12.95C128.65-13.78 126.57-14.46 124.49-14.46C119.76-14.46 115.96-12.01 115.96-6.86C115.96-2.34 119.03 0.31 123.29 0.31C126.46 0.31 128.96-0.94 130.21-2.70L130.21 0L135.41 0L135.41-14.25C135.41-20.44 132.96-23.97 126.05-23.97C122.98-23.97 119.81-22.93 117.78-21.74ZM125.27-4.73C123.40-4.73 121.94-5.72 121.94-7.49C121.94-9.46 123.71-10.40 125.68-10.40C127.40-10.40 128.75-10.04 129.79-9.26L129.79-6.86C129.06-5.82 127.76-4.73 125.27-4.73ZM141.54-6.45C141.54-1.66 143.47 0.52 147.06 0.52C149.86 0.52 151.89-0.36 153.24-1.46L152.00-6.03C151.27-5.51 150.49-5.10 149.55-5.10C148.15-5.10 147.52-6.24 147.52-8.89L147.52-36.40L141.54-36.40Z" fill="#343a40" fontsize="52" transform="matrix(1,0,0,1,241.7,258.49)"></path></svg>