<svg style="position:relative" version="1.1" width="210" height="135" xmlns="http://www.w3.org/2000/svg" xmlns:xlink="http://www.w3.org/1999/xlink" xmlns:a="http://ns.adobe.com/AdobeSVGViewerExtensions/3.0/" ng-if="$root.removeAll != true" class="ng-scope">
                            <g ng-preview="" ng-model="config" ng-shapes="indexedShapes" ng-etape="etape" class="ng-presentation ng-pristine ng-untouched ng-valid ng-isolate-scope ng-not-empty" transform="translate(0 13.00152587890625)">
                                <g class="logo-preview ng-scope" transform="scale(0.39622641509433965)">
                                    <g class="logo-ctn"><g class="logo" id="item-xmr87qdjgvwq7s4k15fcrevy5c2o0yjd" transform="translate(161.43228149414062 0) scale(2.072369971885295)"><path d="M42.786 52.606h6.385v-6.385h-6.385v6.385zm8.045-6.384v6.385h6.383v-6.385h-6.383zm-8.045 14.414h6.385v-6.385h-6.385v6.385zm8.045 0h6.383v-6.385h-6.383v6.385z" fill="#4d4d4d"></path><path d="M89.179 56.66l-2.299-2.31-6.33-6.33-2.48-2.49-4.881-4.89V26.22h-8v6.41L50.01 17.421 21.649 45.79a28.631 28.631 0 002.95 7.921l25.38-25.37 25.28 24.989 2.211 2.181c-.51.899-1.061 1.76-1.65 2.6l.002.002c-5.764 8.161-15.262 13.506-25.991 13.506-10.575 0-19.956-5.192-25.742-13.155a32.128 32.128 0 01-2.185-3.439 33.356 33.356 0 01-.889-1.761c-.077-.166-.15-.332-.225-.498-.25-.56-.486-1.123-.703-1.693-.031-.082-.065-.162-.096-.243a31.088 31.088 0 01-.653-1.977c-.042-.141-.081-.282-.121-.424a31.664 31.664 0 01-.497-1.992c-.004-.018-.009-.035-.012-.054l-.062-.292a31.774 31.774 0 01-.626-6.282C18.021 22.27 32.291 8 49.831 8S81.64 22.27 81.64 39.809c0 1.598-.123 3.166-.35 4.7l6.684 6.698a39.79 39.79 0 001.666-11.398C89.64 17.823 71.816 0 49.831 0c-21.986 0-39.81 17.823-39.81 39.809a39.652 39.652 0 002.861 14.816L0 67.461h10.85l5.676-5.854c7.112 10.845 19.368 18.012 33.306 18.012 12.969 0 24.489-6.206 31.756-15.808l-1.527-1.512 1.529 1.512c.611-.81 1.191-1.64 1.74-2.5l2.17 2.15 4.051 4h10.4L89.179 56.66z" fill="#72bd13"></path></g></g><g class="main" transform="translate(0 180)"><g class="formes"></g><g class="inline-shape"><g class="contents"><g id="texts"><g class="firstLine" transform="translate(3.9921875 0) scale(1)"><text id="item-73ozbg438vf2k4nomepwxmqf7juy3kus" key="0" dominant-baseline="auto" alignment-baseline="auto" font-family="Rodina" font-size="62px" fill="#72bd13" letter-spacing="0" xml:space="preserve" class="" transform="translate(0 45)">Roofing, Siding, Gutters</text></g><g class="sndLine" transform="translate(228 62.516129032258064)  scale(1)"><text id="item-jy6ehptyreh24fk9dwolndq78mqo82a8" key="1" dominant-baseline="auto" alignment-baseline="auto" font-family="Rodina" font-size="34px" fill="#4d4d4d" letter-spacing="0" xml:space="preserve" class="" transform="translate(0 25)">space</text><g class="details" id="item-vbubqy5pp5fxaeeb1xsyx27qhod4bc9m" transform="scale(16.574875696177987 0.8152617126967828) translate(-13 19)"><rect width="12.266" height="3.152" fill="#4d4d4d"></rect></g><g class="details" id="item-g08j3qk9tqfvpvkda4emr2vjfyatldhw" transform="scale(16.574875696177987 0.8152617126967828) translate(5 19)"><rect width="12.266" height="3.152" fill="#4d4d4d"></rect></g></g><g class="thirdLine" transform="translate(265 91.35483870967742)  scale(1)"></g><g class="initial"></g></g></g></g></g>
                                </g>
                            </g>
                        </svg>