<svg class="injected-svg" id="svg-9086670d-0734-49bf-be43-277657216372" height="100%" width="100%" viewBox="0 0 540 508" xmlns="http://www.w3.org/2000/svg">
<g xmlns="http://www.w3.org/2000/svg" fill="#343a40" id="icon-svg">
	<path transform="translate(64, 190) scale(0.6,0.6)" d="M 90.200 55.200 C 89.540 55.860, 89 57.435, 89 58.700 C 89 60.979, 88.883 61, 76.367 61 L 63.734 61 55.961 68.750 C 32.117 92.524, 6 120.320, 6 121.922 C 6 125.085, 8.323 125.911, 18.054 126.210 L 27.500 126.500 27.805 131.250 C 28.095 135.772, 28.251 136, 31.055 136 L 34 136 34 129.672 L 34 123.344 54.250 102.560 L 74.500 81.776 95.836 103.888 C 115.321 124.082, 117.463 126, 120.531 126 C 123.829 126, 123.896 126.086, 124.195 130.750 C 124.487 135.305, 124.634 135.513, 127.750 135.813 L 131 136.127 131 131.063 L 131 126 150.945 126 L 170.890 126 171.195 130.750 C 171.487 135.305, 171.634 135.513, 174.750 135.813 L 178 136.127 178 131.063 L 178 126 184.800 126 C 191.778 126, 194 125.006, 194 121.882 C 194 120.374, 166.400 91.019, 144.046 68.750 L 136.266 61 127.633 61 C 119.789 61, 119 60.825, 119 59.082 C 119 54.142, 118.598 54, 104.593 54 C 95.665 54, 91.012 54.388, 90.200 55.200 M 96.033 65.750 C 96.057 69.872, 96.598 72.137, 97.944 73.750 C 98.976 74.987, 100.086 76, 100.410 76 C 100.735 76, 101 72.400, 101 68 C 101 60.133, 100.958 60, 98.500 60 C 96.119 60, 96.002 60.274, 96.033 65.750 M 107.216 70.750 C 107.488 81.038, 107.597 81.514, 109.750 81.820 C 111.967 82.134, 112 81.977, 112 71.070 L 112 60 109.466 60 L 106.932 60 107.216 70.750 M 88.814 83.750 C 95.987 91.313, 106.291 101.895, 111.712 107.266 L 121.568 117.032 149.714 116.766 L 177.860 116.500 155.336 93.250 L 132.813 70 125.906 70 L 119 70 119 77.800 C 119 82.533, 118.528 86.072, 117.800 86.800 C 117.091 87.509, 113.681 88, 109.464 88 L 102.328 88 95.664 81.097 C 91.758 77.051, 89 73.327, 89 72.097 C 89 70.179, 88.436 70, 82.386 70 L 75.771 70 88.814 83.750 M 43.183 94.750 L 22.162 116.500 26.491 116.801 L 30.820 117.102 48.580 99.030 C 70.015 77.220, 69.780 77.520, 67.445 74.939 C 66.480 73.872, 65.356 73, 64.947 73 C 64.539 73, 54.745 82.787, 43.183 94.750 M 63.095 123.385 C 62.387 124.239, 62.016 127.037, 62.195 130.169 C 62.493 135.379, 62.573 135.507, 65.750 135.813 C 68.935 136.120, 69 136.045, 69 132.063 L 69 128 74 128 L 79 128 79 132 C 79 135.791, 79.159 136, 82.046 136 L 85.091 136 84.796 129.250 L 84.500 122.500 74.400 122.217 C 66.530 121.996, 64.034 122.254, 63.095 123.385 M 8 141.500 C 7.007 142.697, 7.007 143.303, 8 144.500 C 9.090 145.813, 20.549 146, 100 146 C 179.451 146, 190.910 145.813, 192 144.500 C 192.993 143.303, 192.993 142.697, 192 141.500 C 190.910 140.187, 179.451 140, 100 140 C 20.549 140, 9.090 140.187, 8 141.500" stroke="none" fill-rule="evenodd"></path>
</g>
<path xmlns="http://www.w3.org/2000/svg" id="SvgjsPath134931382" d="M5.20-11.56Q6.89-11.56 7.81-10.68Q8.73-9.81 8.73-8.17L8.73-8.17Q8.73-6.25 7.59-5.15Q6.44-4.05 4.43-4.05L4.43-4.05L3.06-4.05L3.06-3.60L3.13 0L1.67 0L1.76-3.47L1.67-11.54L5.20-11.56ZM4.97-5.22Q6.08-5.40 6.67-6.12Q7.25-6.84 7.25-8.05L7.25-8.05Q7.25-10.28 4.88-10.37L4.88-10.37L3.13-10.31L3.08-5.26L4.97-5.22ZM14.62-11.54L18.47 0L16.99 0L16.72-1.15L16.07-3.13L13.48-3.19L11.14-3.13L10.44-1.22L10.15 0L8.71 0L12.94-11.54L14.62-11.54ZM13.61-4.32L15.68-4.36L13.81-10.04L13.68-10.04L11.59-4.36L13.61-4.32ZM21.15-1.57Q21.91-1.10 21.91-0.36L21.91-0.36Q21.91 0.81 20.21 2.05L20.21 2.05L19.73 1.60L19.73 1.48Q20.72 0.70 20.72-0.11L20.72-0.11Q20.72-0.59 20.16-0.95L20.16-0.95L20.16-1.10Q20.66-1.44 21.15-1.57L21.15-1.57ZM31.16-11.56Q32.85-11.56 33.77-10.68Q34.69-9.81 34.69-8.17L34.69-8.17Q34.69-6.25 33.54-5.15Q32.40-4.05 30.38-4.05L30.38-4.05L29.02-4.05L29.02-3.60L29.09 0L27.63 0L27.72-3.47L27.63-11.54L31.16-11.56ZM30.92-5.22Q32.04-5.40 32.63-6.12Q33.21-6.84 33.21-8.05L33.21-8.05Q33.21-10.28 30.83-10.37L30.83-10.37L29.09-10.31L29.03-5.26L30.92-5.22ZM41.94 0L42.03-5.60Q42.05-6.34 41.69-6.75Q41.33-7.16 40.63-7.16L40.63-7.16Q39.44-7.16 38.20-5.89L38.20-5.89L38.16-3.62L38.25 0L36.83 0L36.94-3.51L36.85-12.51L38.27-12.64L38.20-7.07L38.30-7.07Q39.42-8.06 40.59-8.35L40.59-8.35Q41.96-8.35 42.66-7.72Q43.36-7.09 43.34-5.92L43.34-5.92L43.31-3.58L43.38 0L41.94 0ZM46.13 0L46.21-3.49L46.15-8.15L47.54-8.28L47.50-3.62L47.54 0L46.13 0ZM46.87-11.93Q47.23-11.93 47.45-11.72Q47.66-11.50 47.66-11.12L47.66-11.12Q47.66-10.73 47.44-10.49Q47.21-10.26 46.82-10.26L46.82-10.26Q46.44-10.26 46.23-10.48Q46.03-10.69 46.03-11.09L46.03-11.09Q46.03-11.47 46.25-11.70Q46.48-11.93 46.87-11.93L46.87-11.93ZM51.98-12.64L51.88-3.62L51.97 0L50.54 0L50.65-3.51L50.56-12.51L51.98-12.64ZM57.64-8.39Q58.81-8.39 59.48-7.81Q60.16-7.24 60.16-6.23L60.16-6.23Q60.16-5.92 60.05-4.01L60.05-4.01Q59.94-2.11 59.94-1.78L59.94-1.78Q59.94-1.39 60.07-1.23Q60.19-1.08 60.50-1.08L60.50-1.08Q60.77-1.08 61.11-1.19L61.11-1.19L61.25-1.06L61.11-0.25Q60.59 0.05 60.08 0.11L60.08 0.11Q59.53 0.05 59.19-0.29Q58.86-0.63 58.84-1.22L58.84-1.22L58.72-1.22Q57.74-0.23 56.79 0.13L56.79 0.13Q55.58 0.13 54.91-0.48Q54.23-1.08 54.23-2.12L54.23-2.12Q54.23-2.92 54.66-3.38Q55.08-3.85 55.91-4.05L55.91-4.05L58.82-4.73L58.84-5.90Q58.84-6.61 58.47-6.98Q58.10-7.36 57.42-7.36L57.42-7.36Q56.81-7.36 56.20-7.07Q55.58-6.79 54.88-6.17L54.88-6.17L54.74-6.25L54.56-7.27Q56.05-8.39 57.64-8.39L57.64-8.39ZM58.81-3.82L56.20-3.19Q55.84-3.08 55.67-2.89Q55.51-2.70 55.51-2.32L55.51-2.32Q55.51-1.73 55.84-1.40Q56.18-1.06 56.74-1.06L56.74-1.06Q57.73-1.06 58.75-2.34L58.75-2.34L58.81-3.82ZM69.52-12.64L69.39-3.62L69.44-1.76Q69.46-1.39 69.57-1.23Q69.68-1.08 69.97-1.08L69.97-1.08Q70.25-1.08 70.58-1.19L70.58-1.19L70.72-1.06L70.58-0.25Q70.09 0.05 69.57 0.11L69.57 0.11Q69.01 0.05 68.70-0.27Q68.38-0.59 68.31-1.15L68.31-1.15L68.18-1.15Q67.64-0.68 67.21-0.41Q66.78-0.13 66.22 0.09L66.22 0.09Q64.44 0.09 63.49-1.00Q62.53-2.09 62.53-4.10L62.53-4.10Q62.53-6.14 63.59-7.26Q64.66-8.39 66.53-8.39L66.53-8.39Q67.37-8.39 68.11-8.21L68.11-8.21L68.09-12.51L69.52-12.64ZM66.37-7.38Q65.21-7.38 64.55-6.60Q63.88-5.81 63.88-4.34L63.88-4.34Q63.88-2.81 64.48-1.96Q65.09-1.12 66.15-1.12L66.15-1.12Q66.65-1.12 67.13-1.37Q67.61-1.62 68.13-2.21L68.13-2.21L68.17-3.51L68.11-6.93Q67.16-7.38 66.37-7.38L66.37-7.38ZM78.35-4.19L73.19-4.18L73.19-4.14Q73.19-2.63 73.87-1.82Q74.56-1.01 75.82-1.01L75.82-1.01Q76.45-1.01 77.08-1.22Q77.71-1.42 78.23-1.80L78.23-1.80L78.37-1.69L78.16-0.47Q76.90 0.14 75.64 0.14L75.64 0.14Q73.87 0.14 72.86-0.98Q71.86-2.11 71.86-4.07L71.86-4.07Q71.86-6.05 72.86-7.22Q73.87-8.39 75.58-8.39L75.58-8.39Q77.02-8.39 77.81-7.57Q78.61-6.75 78.61-5.29L78.61-5.29Q78.61-4.81 78.53-4.37L78.53-4.37L78.35-4.19ZM75.58-7.38Q74.68-7.38 74.08-6.80Q73.48-6.21 73.28-5.15L73.28-5.15L77.26-5.22L77.29-5.47Q77.29-6.39 76.85-6.89Q76.41-7.38 75.58-7.38L75.58-7.38ZM82.35-12.64L82.24-3.62L82.33 0L80.91 0L81.02-3.51L80.93-12.51L82.35-12.64ZM89.03-8.33Q90.58-8.33 91.40-7.31Q92.23-6.28 92.23-4.37L92.23-4.37Q92.23-2.21 91.19-1.04Q90.14 0.14 88.22 0.14L88.22 0.14Q87.46 0.14 86.65-0.02L86.65-0.02L86.69 3.33L85.28 3.33L85.37-3.49L85.28-8.15L86.65-8.28L86.63-7.11L86.76-7.11Q87.39-7.63 87.89-7.90Q88.40-8.17 89.03-8.33L89.03-8.33ZM88.40-0.90Q89.59-0.90 90.23-1.73Q90.88-2.56 90.88-4.09L90.88-4.09Q90.88-5.58 90.37-6.37Q89.86-7.16 88.90-7.16L88.90-7.16Q88.34-7.16 87.80-6.86Q87.25-6.55 86.63-5.90L86.63-5.90L86.62-3.62L86.63-1.37Q87.52-0.90 88.40-0.90L88.40-0.90ZM99.63 0L99.72-5.60Q99.74-6.34 99.38-6.75Q99.02-7.16 98.32-7.16L98.32-7.16Q97.13-7.16 95.89-5.89L95.89-5.89L95.85-3.62L95.94 0L94.52 0L94.63-3.51L94.54-12.51L95.96-12.64L95.89-7.07L95.99-7.07Q97.11-8.06 98.28-8.35L98.28-8.35Q99.65-8.35 100.35-7.72Q101.05-7.09 101.03-5.92L101.03-5.92L101.00-3.58L101.07 0L99.63 0ZM103.82 0L103.90-3.49L103.84-8.15L105.23-8.28L105.19-3.62L105.23 0L103.82 0ZM104.56-11.93Q104.92-11.93 105.14-11.72Q105.35-11.50 105.35-11.12L105.35-11.12Q105.35-10.73 105.13-10.49Q104.90-10.26 104.51-10.26L104.51-10.26Q104.13-10.26 103.92-10.48Q103.72-10.69 103.72-11.09L103.72-11.09Q103.72-11.47 103.94-11.70Q104.17-11.93 104.56-11.93L104.56-11.93ZM110.88-8.39Q112.05-8.39 112.73-7.81Q113.40-7.24 113.40-6.23L113.40-6.23Q113.40-5.92 113.29-4.01L113.29-4.01Q113.18-2.11 113.18-1.78L113.18-1.78Q113.18-1.39 113.31-1.23Q113.44-1.08 113.74-1.08L113.74-1.08Q114.01-1.08 114.35-1.19L114.35-1.19L114.50-1.06L114.35-0.25Q113.83 0.05 113.33 0.11L113.33 0.11Q112.77 0.05 112.44-0.29Q112.10-0.63 112.09-1.22L112.09-1.22L111.96-1.22Q110.99-0.23 110.03 0.13L110.03 0.13Q108.83 0.13 108.15-0.48Q107.48-1.08 107.48-2.12L107.48-2.12Q107.48-2.92 107.90-3.38Q108.32-3.85 109.15-4.05L109.15-4.05L112.07-4.73L112.09-5.90Q112.09-6.61 111.72-6.98Q111.35-7.36 110.66-7.36L110.66-7.36Q110.05-7.36 109.44-7.07Q108.83-6.79 108.13-6.17L108.13-6.17L107.98-6.25L107.80-7.27Q109.30-8.39 110.88-8.39L110.88-8.39ZM112.05-3.82L109.44-3.19Q109.08-3.08 108.92-2.89Q108.76-2.70 108.76-2.32L108.76-2.32Q108.76-1.73 109.09-1.40Q109.42-1.06 109.98-1.06L109.98-1.06Q110.97-1.06 112.00-2.34L112.00-2.34L112.05-3.82Z" fill="#000000" fontsize="18" transform="matrix(1,0,0,1,197.33,285.65500000000003)"></path>
<path xmlns="http://www.w3.org/2000/svg" id="SvgjsPath134931370" d="M9.20-6.73Q10.92-3.90 13.52-0.49L13.52-0.49L13.49-0.23Q12.56 0.13 11.57 0.23L11.57 0.23L11.28 0.05Q9.15-3.15 7.46-6.19L7.46-6.19L4.42-6.19L4.42-5.20L4.52 0L2.42 0L2.55-5.02L2.42-16.67L7.51-16.69Q9.96-16.69 11.30-15.46Q12.64-14.22 12.64-11.93L12.64-11.93Q12.64-10.22 11.74-8.85Q10.84-7.49 9.20-6.73L9.20-6.73ZM4.52-14.90L4.45-7.96L7.57-7.88Q10.48-8.71 10.48-11.75L10.48-11.75Q10.48-13.34 9.62-14.13Q8.76-14.92 7.05-14.98L7.05-14.98L4.52-14.90ZM20.02-12.12Q22.44-12.12 23.78-10.54Q25.12-8.97 25.12-6.11L25.12-6.11Q25.12-3.09 23.71-1.44Q22.31 0.21 19.71 0.21L19.71 0.21Q17.26 0.21 15.93-1.37Q14.59-2.94 14.59-5.80L14.59-5.80Q14.59-8.81 16.00-10.47Q17.42-12.12 20.02-12.12L20.02-12.12ZM19.89-10.66Q18.25-10.66 17.39-9.54Q16.54-8.42 16.54-6.27L16.54-6.27Q16.54-3.77 17.38-2.52Q18.23-1.27 19.84-1.27L19.84-1.27Q21.48-1.27 22.33-2.37Q23.19-3.46 23.19-5.64L23.19-5.64Q23.19-8.11 22.35-9.39Q21.50-10.66 19.89-10.66L19.89-10.66ZM32.79-12.12Q35.20-12.12 36.54-10.54Q37.88-8.97 37.88-6.11L37.88-6.11Q37.88-3.09 36.48-1.44Q35.07 0.21 32.47 0.21L32.47 0.21Q30.03 0.21 28.69-1.37Q27.35-2.94 27.35-5.80L27.35-5.80Q27.35-8.81 28.77-10.47Q30.19-12.12 32.79-12.12L32.79-12.12ZM32.66-10.66Q31.02-10.66 30.16-9.54Q29.30-8.42 29.30-6.27L29.30-6.27Q29.30-3.77 30.15-2.52Q30.99-1.27 32.60-1.27L32.60-1.27Q34.24-1.27 35.10-2.37Q35.96-3.46 35.96-5.64L35.96-5.64Q35.96-8.11 35.11-9.39Q34.27-10.66 32.66-10.66L32.66-10.66ZM46.23-18.30Q47.74-18.30 49.58-17.78L49.58-17.78L49.32-16.07L49.06-15.99Q48.20-16.41 47.48-16.60Q46.75-16.80 45.99-16.80L45.99-16.80Q44.59-16.80 43.93-16.08Q43.26-15.37 43.26-13.86L43.26-13.86L43.24-11.88L49.63-11.88L50.86-12.04L51.01-11.96L50.86-5.17L51.01 0L48.93 0L49.09-5.02L48.98-10.50L43.24-10.50L43.16-5.20L43.29 0L41.24 0L41.39-5.04L41.34-10.50L39.55-10.50L39.44-10.66L39.57-11.88L41.31-11.88L41.31-13.47Q41.31-15.96 42.50-17.13Q43.68-18.30 46.23-18.30L46.23-18.30ZM62.40 0L62.53-8.09Q62.56-9.15 62.04-9.75Q61.52-10.35 60.50-10.35L60.50-10.35Q58.86-10.35 56.97-8.50L56.97-8.50L56.97-5.23L57.07 0L55.02 0L55.15-5.04L55.04-11.78L56.99-11.96L56.99-10.22L57.15-10.22Q58.76-11.65 60.45-12.06L60.45-12.06Q62.40-12.06 63.43-11.15Q64.45-10.24 64.43-8.55L64.43-8.55L64.38-5.17L64.48 0L62.40 0ZM78.96-10.89Q78.16-10.66 76.57-10.35L76.57-10.35L76.52-10.24Q77.09-9.33 77.09-8.03L77.09-8.03Q77.09-6.14 75.83-5.02Q74.57-3.90 72.41-3.90L72.41-3.90Q71.55-3.90 70.80-4.11L70.80-4.11Q70.36-3.77 70.20-3.56Q70.04-3.35 70.04-3.09L70.04-3.09Q70.04-2.55 70.72-2.33Q71.40-2.11 72.93-1.87L72.93-1.87Q74.44-1.66 75.40-1.40Q76.36-1.14 77.06-0.56Q77.77 0.03 77.77 1.07L77.77 1.07Q77.77 2.16 77.03 3.07Q76.28 3.98 75.00 4.50Q73.71 5.02 72.18 5.02L72.18 5.02Q70.10 5.02 68.94 4.07Q67.78 3.12 67.78 1.61L67.78 1.61Q68.41 0.36 70.07-0.65L70.07-0.65L70.07-0.78Q69.13-1.07 68.63-1.55Q68.12-2.03 68.12-2.86L68.12-2.86Q68.67-3.77 69.71-4.45L69.71-4.45L69.71-4.55Q68.87-5.07 68.45-5.92Q68.02-6.76 68.02-7.88L68.02-7.88Q68.02-9.83 69.28-10.93Q70.54-12.04 72.64-12.04L72.64-12.04Q74.02-12.04 74.98-11.57L74.98-11.57Q76.78-11.91 78.75-12.45L78.75-12.45L78.96-12.30L78.96-10.89ZM72.51-5.30Q73.81-5.30 74.53-6.03Q75.24-6.76 75.24-8.06L75.24-8.06Q75.24-9.31 74.57-9.98Q73.89-10.66 72.62-10.66L72.62-10.66Q71.32-10.66 70.59-9.96Q69.86-9.26 69.86-7.96L69.86-7.96Q69.86-6.71 70.55-6.01Q71.24-5.30 72.51-5.30L72.51-5.30ZM75.95 1.46Q75.95 0.60 75.08 0.26Q74.20-0.08 72.44-0.34L72.44-0.34L71.60-0.47Q70.62 0.13 70.11 0.68Q69.60 1.22 69.60 1.82L69.60 1.82Q69.60 2.57 70.34 3.07Q71.08 3.56 72.41 3.56L72.41 3.56Q73.92 3.56 74.93 2.95Q75.95 2.34 75.95 1.46L75.95 1.46ZM82.32-2.26Q83.41-1.59 83.41-0.52L83.41-0.52Q83.41 1.17 80.96 2.96L80.96 2.96L80.26 2.31L80.26 2.13Q81.69 1.01 81.69-0.16L81.69-0.16Q81.69-0.86 80.89-1.38L80.89-1.38L80.89-1.59Q81.61-2.08 82.32-2.26L82.32-2.26ZM96.20-16.80Q97.99-16.80 99.92-16.02L99.92-16.02L99.58-14.01L99.22-13.91Q98.46-14.48 97.62-14.79Q96.77-15.11 95.94-15.11L95.94-15.11Q94.98-15.11 94.26-14.72Q93.55-14.33 93.17-13.70Q92.79-13.08 92.79-12.40L92.79-12.40Q92.79-11.70 93.22-11.17Q93.65-10.63 94.30-10.24Q94.95-9.85 96.07-9.31L96.07-9.31Q97.47-8.66 98.33-8.10Q99.19-7.54 99.80-6.68Q100.41-5.82 100.41-4.60L100.41-4.60Q100.41-3.30 99.71-2.21Q99.01-1.12 97.73-0.47Q96.46 0.18 94.82 0.18L94.82 0.18Q93.73 0.18 92.55-0.12Q91.36-0.42 90.35-0.99L90.35-0.99L90.61-3.12L90.90-3.25Q91.81-2.37 92.91-1.94Q94.02-1.51 95.03-1.51L95.03-1.51Q96.02-1.51 96.79-1.90Q97.55-2.29 97.96-2.94Q98.36-3.59 98.36-4.32L98.36-4.32Q98.36-5.41 97.53-6.07Q96.69-6.73 95.00-7.51L95.00-7.51Q93.63-8.19 92.79-8.72Q91.96-9.26 91.36-10.10Q90.77-10.95 90.77-12.17L90.77-12.17Q90.77-13.44 91.46-14.51Q92.14-15.57 93.38-16.19Q94.61-16.80 96.20-16.80L96.20-16.80ZM103.64 0L103.74-5.04L103.66-11.78L105.66-11.96L105.61-5.23L105.66 0L103.64 0ZM104.70-17.24Q105.22-17.24 105.53-16.93Q105.85-16.61 105.85-16.07L105.85-16.07Q105.85-15.50 105.52-15.16Q105.20-14.82 104.62-14.82L104.62-14.82Q104.08-14.82 103.78-15.13Q103.48-15.44 103.48-16.02L103.48-16.02Q103.48-16.56 103.81-16.90Q104.13-17.24 104.70-17.24L104.70-17.24ZM119.00-18.25L118.82-5.23L118.90-2.55Q118.92-2.00 119.08-1.78Q119.24-1.56 119.65-1.56L119.65-1.56Q120.07-1.56 120.54-1.72L120.54-1.72L120.74-1.53L120.54-0.36Q119.83 0.08 119.08 0.16L119.08 0.16Q118.27 0.08 117.82-0.39Q117.36-0.86 117.26-1.66L117.26-1.66L117.08-1.66Q116.30-0.99 115.67-0.59Q115.05-0.18 114.24 0.13L114.24 0.13Q111.67 0.13 110.29-1.44Q108.91-3.02 108.91-5.93L108.91-5.93Q108.91-8.87 110.45-10.49Q111.98-12.12 114.69-12.12L114.69-12.12Q115.91-12.12 116.97-11.86L116.97-11.86L116.95-18.07L119.00-18.25ZM114.45-10.66Q112.79-10.66 111.83-9.53Q110.86-8.40 110.86-6.27L110.86-6.27Q110.86-4.06 111.74-2.83Q112.61-1.61 114.14-1.61L114.14-1.61Q114.87-1.61 115.56-1.98Q116.25-2.34 117.00-3.20L117.00-3.20L117.05-5.07L116.97-10.01Q115.60-10.66 114.45-10.66L114.45-10.66ZM123.40 0L123.50-5.04L123.42-11.78L125.42-11.96L125.37-5.23L125.42 0L123.40 0ZM124.46-17.24Q124.98-17.24 125.29-16.93Q125.61-16.61 125.61-16.07L125.61-16.07Q125.61-15.50 125.28-15.16Q124.96-14.82 124.38-14.82L124.38-14.82Q123.84-14.82 123.54-15.13Q123.24-15.44 123.24-16.02L123.24-16.02Q123.24-16.56 123.57-16.90Q123.89-17.24 124.46-17.24L124.46-17.24ZM137.05 0L137.18-8.09Q137.20-9.15 136.68-9.75Q136.16-10.35 135.15-10.35L135.15-10.35Q133.51-10.35 131.61-8.50L131.61-8.50L131.61-5.23L131.72 0L129.66 0L129.79-5.04L129.69-11.78L131.64-11.96L131.64-10.22L131.79-10.22Q133.41-11.65 135.10-12.06L135.10-12.06Q137.05-12.06 138.07-11.15Q139.10-10.24 139.07-8.55L139.07-8.55L139.02-5.17L139.13 0L137.05 0ZM153.61-10.89Q152.80-10.66 151.22-10.35L151.22-10.35L151.16-10.24Q151.74-9.33 151.74-8.03L151.74-8.03Q151.74-6.14 150.48-5.02Q149.21-3.90 147.06-3.90L147.06-3.90Q146.20-3.90 145.44-4.11L145.44-4.11Q145.00-3.77 144.85-3.56Q144.69-3.35 144.69-3.09L144.69-3.09Q144.69-2.55 145.37-2.33Q146.04-2.11 147.58-1.87L147.58-1.87Q149.08-1.66 150.05-1.40Q151.01-1.14 151.71-0.56Q152.41 0.03 152.41 1.07L152.41 1.07Q152.41 2.16 151.67 3.07Q150.93 3.98 149.64 4.50Q148.36 5.02 146.82 5.02L146.82 5.02Q144.74 5.02 143.59 4.07Q142.43 3.12 142.43 1.61L142.43 1.61Q143.05 0.36 144.72-0.65L144.72-0.65L144.72-0.78Q143.78-1.07 143.27-1.55Q142.77-2.03 142.77-2.86L142.77-2.86Q143.31-3.77 144.35-4.45L144.35-4.45L144.35-4.55Q143.52-5.07 143.09-5.92Q142.66-6.76 142.66-7.88L142.66-7.88Q142.66-9.83 143.92-10.93Q145.18-12.04 147.29-12.04L147.29-12.04Q148.67-12.04 149.63-11.57L149.63-11.57Q151.42-11.91 153.40-12.45L153.40-12.45L153.61-12.30L153.61-10.89ZM147.16-5.30Q148.46-5.30 149.18-6.03Q149.89-6.76 149.89-8.06L149.89-8.06Q149.89-9.31 149.21-9.98Q148.54-10.66 147.26-10.66L147.26-10.66Q145.96-10.66 145.24-9.96Q144.51-9.26 144.51-7.96L144.51-7.96Q144.51-6.71 145.20-6.01Q145.89-5.30 147.16-5.30L147.16-5.30ZM150.59 1.46Q150.59 0.60 149.72 0.26Q148.85-0.08 147.08-0.34L147.08-0.34L146.25-0.47Q145.26 0.13 144.76 0.68Q144.25 1.22 144.25 1.82L144.25 1.82Q144.25 2.57 144.99 3.07Q145.73 3.56 147.06 3.56L147.06 3.56Q148.56 3.56 149.58 2.95Q150.59 2.34 150.59 1.46L150.59 1.46ZM156.96-2.26Q158.05-1.59 158.05-0.52L158.05-0.52Q158.05 1.17 155.61 2.96L155.61 2.96L154.91 2.31L154.91 2.13Q156.34 1.01 156.34-0.16L156.34-0.16Q156.34-0.86 155.53-1.38L155.53-1.38L155.53-1.59Q156.26-2.08 156.96-2.26L156.96-2.26ZM173.00-16.80Q175.63-16.80 177.89-15.63L177.89-15.63L177.48-13.65L177.22-13.60Q175.97-14.38 174.92-14.72Q173.86-15.05 172.69-15.05L172.69-15.05Q167.05-15.05 167.05-8.09L167.05-8.09Q167.05-4.73 168.36-3.16Q169.68-1.59 172.43-1.59L172.43-1.59Q173.16-1.59 173.90-1.72Q174.64-1.85 175.81-2.21L175.81-2.21L175.86-4.16L175.84-6.66L177.79-6.81L177.74-4.45L177.84-0.81Q176.15-0.29 174.85-0.05Q173.55 0.18 172.33 0.18L172.33 0.18Q168.61 0.18 166.75-1.92Q164.89-4.03 164.89-8.01L164.89-8.01Q164.89-12.30 167.00-14.55Q169.10-16.80 173.00-16.80L173.00-16.80ZM191.52-1.72L191.72-1.53L191.52-0.36Q190.76 0.08 190.03 0.16L190.03 0.16Q189.28 0.05 188.83-0.38Q188.37-0.81 188.19-1.66L188.19-1.66L188.03-1.66Q186.47-0.26 184.81 0.16L184.81 0.16Q182.88 0.16 181.88-0.75Q180.88-1.66 180.91-3.35L180.91-3.35L180.93-6.66L180.86-11.78L182.94-11.96L182.78-3.85Q182.78-2.78 183.29-2.18Q183.79-1.59 184.78-1.59L184.78-1.59Q186.39-1.59 188.01-3.15L188.01-3.15L188.01-11.78L189.98-11.96L189.85-2.55Q189.85-2.00 190.02-1.78Q190.19-1.56 190.61-1.56L190.61-1.56Q191.02-1.56 191.52-1.72L191.52-1.72ZM198.07-1.59Q198.93-1.59 199.94-2.11L199.94-2.11L200.17-1.95L199.97-0.60Q198.56 0.05 197.37 0.16L197.37 0.16Q195.88-0.13 195.23-0.94Q194.58-1.74 194.58-3.28L194.58-3.28L194.66-5.12L194.64-10.50L193.00-10.50L192.89-10.66L193.02-11.88L194.61-11.88L194.61-13.81L196.40-14.59L196.61-14.40L196.56-11.88L200.10-11.88L200.20-11.73L200.07-10.50L196.56-10.50L196.43-3.46Q196.40-2.42 196.79-2.00Q197.18-1.59 198.07-1.59L198.07-1.59ZM206.36-1.59Q207.22-1.59 208.23-2.11L208.23-2.11L208.47-1.95L208.26-0.60Q206.86 0.05 205.66 0.16L205.66 0.16Q204.18-0.13 203.53-0.94Q202.88-1.74 202.88-3.28L202.88-3.28L202.96-5.12L202.93-10.50L201.29-10.50L201.19-10.66L201.32-11.88L202.90-11.88L202.90-13.81L204.70-14.59L204.91-14.40L204.85-11.88L208.39-11.88L208.49-11.73L208.36-10.50L204.85-10.50L204.72-3.46Q204.70-2.42 205.09-2.00Q205.48-1.59 206.36-1.59L206.36-1.59ZM218.95-6.06L211.48-6.03L211.48-5.98Q211.48-3.80 212.47-2.63Q213.46-1.46 215.28-1.46L215.28-1.46Q216.19-1.46 217.10-1.76Q218.01-2.05 218.76-2.60L218.76-2.60L218.97-2.44L218.66-0.68Q216.84 0.21 215.02 0.21L215.02 0.21Q212.47 0.21 211.02-1.42Q209.56-3.04 209.56-5.88L209.56-5.88Q209.56-8.74 211.02-10.43Q212.47-12.12 214.94-12.12L214.94-12.12Q217.02-12.12 218.17-10.93Q219.31-9.75 219.31-7.64L219.31-7.64Q219.31-6.94 219.21-6.32L219.21-6.32L218.95-6.06ZM214.94-10.66Q213.64-10.66 212.77-9.82Q211.90-8.97 211.61-7.44L211.61-7.44L217.36-7.54L217.41-7.90Q217.41-9.23 216.78-9.95Q216.14-10.66 214.94-10.66L214.94-10.66ZM227.99-11.93Q228.31-11.93 228.67-11.88L228.67-11.88L228.67-9.88L228.44-9.80Q227.99-9.93 227.47-9.93L227.47-9.93Q226.62-9.93 225.90-9.24Q225.19-8.55 224.48-7.05L224.48-7.05L224.46-5.23L224.59 0L222.53 0L222.66-5.04L222.56-11.78L224.51-11.96L224.48-9.52L224.64-9.52Q225.37-10.82 226.25-11.38Q227.14-11.93 227.99-11.93L227.99-11.93ZM234.18-12.09Q235.66-12.09 237.04-11.52L237.04-11.52L236.76-9.83L236.44-9.75Q235.14-10.61 233.95-10.61L233.95-10.61Q233.06-10.61 232.52-10.11Q231.97-9.62 231.97-8.92L231.97-8.92Q231.97-8.22 232.53-7.79Q233.09-7.36 234.26-6.81L234.26-6.81Q235.27-6.34 235.89-5.97Q236.50-5.59 236.94-4.97Q237.38-4.34 237.38-3.43L237.38-3.43Q237.38-2.47 236.89-1.64Q236.39-0.81 235.43-0.30Q234.47 0.21 233.14 0.21L233.14 0.21Q231.32 0.21 229.68-0.65L229.68-0.65L229.94-2.42L230.18-2.57Q230.91-1.95 231.75-1.61Q232.60-1.27 233.35-1.27L233.35-1.27Q234.31-1.27 234.91-1.81Q235.51-2.34 235.51-3.07L235.51-3.07Q235.51-3.77 234.95-4.20Q234.39-4.63 233.22-5.17L233.22-5.17Q232.21-5.64 231.58-6.02Q230.96-6.40 230.52-7.05Q230.07-7.70 230.07-8.66L230.07-8.66Q230.07-10.17 231.18-11.13Q232.28-12.09 234.18-12.09L234.18-12.09Z" fill="#000000" fontsize="26" transform="matrix(1,0,0,1,196.58,243.14)"></path></svg>