<svg width="39" height="33" viewBox="0 0 39 33" fill="none" xmlns="http://www.w3.org/2000/svg">
<path d="M19.739 32.4667C14.6871 32.4667 9.63509 32.4667 4.59798 32.4667C2.07199 32.4667 0.764416 31.1591 0.764416 28.6183C0.764416 26.8649 0.749558 25.0967 0.764416 23.3434C0.779275 20.0002 3.18639 17.5931 6.54447 17.5931C8.10464 17.5931 9.64995 17.6971 11.2101 17.7119C11.4033 17.7119 11.6559 17.5336 11.7599 17.3702C12.9486 15.602 14.5831 14.7402 16.7079 14.7402C18.7584 14.755 20.8089 14.755 22.8742 14.7402C24.999 14.7253 26.6335 15.6168 27.8222 17.3702C27.9559 17.5633 28.3274 17.6673 28.5949 17.6822C30.4671 17.7119 32.369 17.5188 34.2115 17.7416C36.8861 18.0685 38.7731 20.4162 38.8028 23.1354C38.8326 25.067 38.8177 26.9986 38.8028 28.9303C38.788 31.0699 37.4061 32.4667 35.2664 32.4667C30.0807 32.4815 24.9099 32.4667 19.739 32.4667ZM13.1269 30.1933C17.6142 30.1933 21.9827 30.1933 26.3661 30.1933C26.3661 26.7758 26.4403 23.4177 26.3363 20.0596C26.2769 18.2023 24.8505 17.0284 22.9634 17.0136C20.9277 16.9987 18.907 16.9987 16.8713 17.0136C14.479 17.0136 13.1418 18.3509 13.1269 20.7283C13.112 22.6302 13.1269 24.547 13.1269 26.4489C13.1269 27.6673 13.1269 28.9006 13.1269 30.1933ZM10.8535 30.2379C10.8832 30.0447 10.8981 29.9555 10.8981 29.8515C10.8981 26.7312 10.8832 23.6109 10.9129 20.4905C10.9129 19.8962 10.6009 19.8367 10.17 19.8367C8.86244 19.8367 7.54001 19.7921 6.23244 19.8516C4.46425 19.9259 3.08238 21.2186 3.00809 22.9422C2.93379 24.9927 2.96351 27.0581 2.99323 29.1086C2.99323 29.7624 3.3647 30.223 4.0482 30.223C6.29187 30.2527 8.53555 30.2379 10.8535 30.2379ZM28.6543 30.2379C31.0168 30.2379 33.2605 30.2527 35.519 30.223C36.1728 30.2081 36.5592 29.7475 36.574 29.0194C36.5889 27.0432 36.6037 25.0521 36.5592 23.0759C36.5146 21.3523 35.2516 19.9853 33.5428 19.8664C32.1164 19.7624 30.6751 19.8367 29.2338 19.8367C28.8029 19.8367 28.6394 20.0299 28.6543 20.4757C28.684 21.6198 28.6692 22.749 28.6692 23.8932C28.6543 25.9883 28.6543 28.0685 28.6543 30.2379Z" fill="white"/>
<path d="M26.3833 7.65255C26.2941 11.3524 23.2778 14.2647 19.6077 14.1755C16.0119 14.0864 13.0847 11.0403 13.1739 7.45939C13.2482 3.71498 16.2496 0.8621 20.0237 0.951252C23.5601 1.0404 26.4576 4.08645 26.3833 7.65255ZM24.1545 7.5634C24.1545 5.12656 22.208 3.18007 19.7711 3.18007C17.364 3.18007 15.4324 5.09684 15.4027 7.50396C15.373 9.92594 17.3343 11.917 19.7563 11.9319C22.1634 11.9616 24.1396 9.98538 24.1545 7.5634Z" fill="white"/>
<path d="M3.24609 12.0358C3.24609 9.30177 5.48977 7.0581 8.20892 7.08782C10.9429 7.10268 13.142 9.34635 13.1123 12.0952C13.0974 14.7995 10.8835 16.9986 8.1792 16.9986C5.46005 16.9986 3.24609 14.7698 3.24609 12.0358ZM10.8835 12.0952C10.9132 10.5648 9.72451 9.33149 8.20892 9.31663C6.75276 9.30177 5.50462 10.5053 5.48977 11.9763C5.46005 13.5068 6.66361 14.7401 8.16434 14.7549C9.63536 14.7698 10.8538 13.5811 10.8835 12.0952Z" fill="white"/>
<path d="M26.4259 12.0062C26.4407 9.27214 28.6992 7.04333 31.4184 7.07305C34.1524 7.11762 36.3366 9.34644 36.3069 12.0953C36.2624 14.8145 34.0484 16.9987 31.3441 16.9987C28.6101 16.9838 26.411 14.755 26.4259 12.0062ZM34.0633 12.0359C34.0633 10.55 32.8746 9.34644 31.4035 9.31672C29.9028 9.287 28.6695 10.5351 28.6695 12.0359C28.6695 13.5217 29.8582 14.7253 31.3292 14.755C32.83 14.7847 34.0633 13.5515 34.0633 12.0359Z" fill="white"/>
</svg>
