<svg width="44" height="35" viewBox="0 0 44 35" fill="none" xmlns="http://www.w3.org/2000/svg">
<path d="M14.4289 5.19082C14.8998 4.07409 15.4447 3.07846 16.2655 2.24933C20.0361 -1.55326 26.3917 -0.369259 28.4838 4.55509C28.7075 5.0815 28.8017 5.17905 29.2995 4.77709C31.1209 3.30382 33.1711 3.00782 35.2767 4.03709C37.3268 5.03777 38.4452 6.73472 38.4688 9.07076C38.4789 10.1354 38.462 11.2016 38.4721 12.2662C38.489 14.0405 37.7708 15.4717 36.4355 16.5986C36.0806 16.8979 35.8586 17.199 35.9528 17.6699C36.0486 18.1559 36.4926 18.1105 36.8189 18.1946C37.902 18.4738 39.0271 18.6117 40.0228 19.1684C42.051 20.3002 43.1358 22.0207 43.1728 24.3534C43.2014 26.1193 43.1846 27.8852 43.1762 29.6511C43.1711 30.7342 42.9289 30.9697 41.8257 30.9747C40.0598 30.9814 38.2939 30.9999 36.5296 30.9646C35.8586 30.9512 35.5744 31.1278 35.5979 31.8543C35.6837 34.5486 35.5912 34.3451 33.0567 34.3417C30.534 34.3383 28.0113 34.34 25.4902 34.34C25.1236 34.34 24.7519 34.3484 24.4761 34.0457C24.2272 33.7699 24.1717 33.4453 24.3045 33.1072C24.4542 32.7288 24.7654 32.5522 25.1639 32.5489C26.2016 32.5405 27.2393 32.5068 28.2736 32.5506C28.9531 32.5792 29.1616 32.3084 29.1313 31.6659C29.0927 30.8553 29.1162 30.0413 29.128 29.2273C29.1381 28.5748 29.3416 28.0181 30.1102 28.0315C30.8283 28.045 31.0267 28.5832 31.0368 29.1987C31.052 30.0665 31.0621 30.936 31.0402 31.8055C31.0267 32.3454 31.2387 32.5321 31.7819 32.5489C33.7597 32.6094 33.7547 32.6279 33.7109 30.6249C33.6975 30.0093 33.721 29.3921 33.7059 28.7766C33.6386 25.8469 31.8996 23.647 29.0725 22.9289C28.0415 22.6665 26.987 22.4866 25.9729 22.1738C25.2194 21.9417 24.9234 22.2276 24.656 22.8785C24.0304 24.4072 23.3409 25.9108 22.6749 27.4244C22.4579 27.9155 22.2611 28.4385 21.5901 28.4385C20.9174 28.4402 20.7206 27.9172 20.5053 27.4261C19.8175 25.862 19.1161 24.3029 18.4569 22.7271C18.2197 22.1603 17.9153 21.9585 17.2964 22.1368C16.3025 22.4244 15.2867 22.638 14.2792 22.8869C11.3411 23.6134 9.56008 25.7241 9.3919 28.7429C9.33471 29.7773 9.39358 30.8166 9.37003 31.8526C9.35826 32.3622 9.56344 32.5489 10.0663 32.5405C12.5419 32.5001 12.0878 32.8382 12.1366 30.6148C12.145 30.1943 12.1366 29.7739 12.14 29.3534C12.1467 28.6925 12.2594 28.045 13.0835 28.0315C13.9059 28.0181 14.0539 28.6488 14.0572 29.3198C14.0623 30.1607 14.0741 31.0016 14.0572 31.8425C14.0472 32.3403 14.2422 32.5522 14.7518 32.5405C15.6768 32.5203 16.6018 32.5354 17.5268 32.5405C18.1424 32.5438 18.5914 32.7911 18.583 33.4621C18.5746 34.0827 18.1457 34.335 17.5655 34.3367C14.5668 34.34 11.5682 34.3417 8.56949 34.3333C7.92535 34.3316 7.59067 33.9767 7.5789 33.3343C7.56881 32.8012 7.54358 32.268 7.5789 31.7366C7.61758 31.1345 7.35354 30.9629 6.78508 30.9697C4.99227 30.9932 3.19778 30.9814 1.40328 30.9764C0.241148 30.973 0.010739 30.7493 0.00569353 29.6141C-0.00103372 27.8768 -0.00271554 26.1395 0.00569353 24.4005C0.0208299 21.7079 1.68919 19.4795 4.28086 18.7126C5.03095 18.4906 5.80459 18.3443 6.56309 18.1441C7.32999 17.9423 7.55872 17.2814 6.95999 16.8088C5.13018 15.3624 4.54827 13.4553 4.70132 11.2218C4.74673 10.5524 4.71141 9.87635 4.70973 9.20363C4.69964 6.79863 5.81468 5.04114 7.94049 4.02532C10.1201 2.98428 12.1938 3.3526 14.0505 4.90155C14.1514 4.98227 14.2607 5.06132 14.4289 5.19082ZM27.2477 10.9039C27.5319 9.96381 26.9938 9.30622 25.9981 8.87399C25.5642 8.68563 25.1539 8.42831 24.7654 8.15586C24.2406 7.78586 23.8084 7.73036 23.2938 8.22481C22.9187 8.58472 22.4192 8.82522 21.9567 9.08422C20.3556 9.98567 18.5897 10.0529 16.8188 10.0395C16.1814 10.0344 15.8652 10.2346 15.9358 10.909C15.9913 11.4371 15.9981 11.9702 16.0569 12.4966C16.4421 15.9208 19.767 18.1694 23.0819 17.2562C25.7475 16.5246 27.246 14.3096 27.2477 10.9039ZM41.3749 26.496C41.3733 26.496 41.3716 26.496 41.3716 26.496C41.3716 25.8805 41.3934 25.2633 41.3682 24.6477C41.2707 22.3319 40.1523 20.9561 37.9205 20.386C37.379 20.2481 36.8189 20.164 36.2908 19.9874C35.7594 19.8091 35.5222 20.0194 35.3406 20.4852C34.9841 21.3968 34.6225 22.31 34.2087 23.1963C33.9935 23.6555 34.0052 23.9969 34.3029 24.4224C35.0362 25.4735 35.4466 26.6642 35.5845 27.9373C35.7173 29.1684 35.7039 29.123 36.9282 29.1853C37.7574 29.2273 38.1105 29.007 38.0298 28.1207C37.9558 27.3151 38.0147 26.4977 38.018 25.6854C38.0197 25.0766 38.2485 24.6124 38.9229 24.6158C39.599 24.6191 39.8159 25.09 39.8159 25.6972C39.8176 26.454 39.794 27.2108 39.826 27.9643C39.8479 28.4856 39.5435 29.1768 40.5761 29.1886C41.6592 29.2004 41.3379 28.4738 41.3716 27.9239C41.3985 27.4496 41.3749 26.972 41.3749 26.496ZM1.8086 26.3884C1.8086 27.1789 1.83214 27.823 1.80187 28.4654C1.77328 29.0356 2.04237 29.1752 2.56037 29.1802C3.10528 29.1836 3.39959 29.0591 3.37605 28.4352C3.33905 27.5135 3.36596 26.5885 3.371 25.6652C3.37437 25.0514 3.62327 24.604 4.296 24.6175C4.91827 24.6292 5.15877 25.0581 5.1655 25.6349C5.17222 26.2791 5.16213 26.9232 5.17223 27.5657C5.2025 29.3232 4.84259 29.1533 6.87254 29.1735C7.36699 29.1785 7.58731 29.007 7.57722 28.4923C7.54526 26.9518 8.09858 25.5879 8.92603 24.3265C9.1329 24.012 9.19512 23.7395 9.04712 23.3931C8.61826 22.3907 8.19781 21.3833 7.78408 20.3742C7.63608 20.0143 7.44267 19.8361 7.01549 19.9605C6.18468 20.2027 5.32191 20.349 4.50623 20.6332C3.06491 21.1361 2.24251 22.1973 1.9381 23.6891C1.74469 24.6343 1.83719 25.5862 1.8086 26.3884ZM27.2578 7.43436C27.1872 7.01054 27.1518 6.79359 27.1165 6.57663C26.6473 3.67887 24.0153 1.62201 21.104 1.88101C18.2332 2.13664 15.9375 4.6745 15.951 7.56218C15.9527 7.93722 16.067 8.12895 16.4706 8.14913C18.8941 8.26686 21.1797 7.97254 22.9288 6.03845C23.4014 5.51541 23.9194 5.48514 24.5064 5.83495C25.3658 6.34454 26.2353 6.84068 27.2578 7.43436ZM14.1279 11.3984C14.1279 11.0671 14.1161 10.8148 14.1296 10.5642C14.1548 10.1068 13.9799 10.0328 13.5796 10.2144C11.6758 11.0755 9.64249 11.1983 7.59572 11.2302C6.5059 11.247 6.39827 11.3681 6.56813 12.4647C6.59336 12.6295 6.62531 12.7943 6.65559 12.9608C6.96504 14.6577 8.38785 15.8838 10.184 16.0066C11.7885 16.1159 13.4854 14.91 13.9126 13.3123C14.0858 12.6648 14.1767 11.9954 14.1279 11.3984ZM32.8852 16.015C34.8411 15.9914 36.3161 14.572 36.6255 12.4142C36.7752 11.3748 36.6608 11.2538 35.6198 11.2285C33.9733 11.1898 32.3335 11.1192 30.7307 10.6449C30.1959 10.4868 29.5249 9.86121 29.1667 10.2632C28.8555 10.6113 29.0321 11.4354 29.0674 12.0442C29.2003 14.3819 30.8098 16.0402 32.8852 16.015ZM8.19949 9.32808C9.92167 9.33649 11.585 9.08253 13.1726 8.36104C13.8386 8.05831 13.8924 7.70345 13.5107 7.13163C12.6748 5.87868 11.5127 5.29004 10.0226 5.39936C8.59472 5.50364 7.54695 6.22682 6.93477 7.51677C6.20318 9.06067 6.38145 9.32976 8.03299 9.32976C8.08681 9.32808 8.14231 9.32808 8.19949 9.32808ZM34.8697 9.32472C35.2885 9.32472 35.7072 9.31967 36.1277 9.3264C36.5347 9.33313 36.639 9.15485 36.5986 8.74954C36.4338 7.14845 35.2616 5.79627 33.6924 5.45318C32.0997 5.10336 30.4802 5.81141 29.6443 7.17536C29.3012 7.7354 29.3718 8.06336 29.9874 8.34758C31.5397 9.06572 33.1761 9.32135 34.8697 9.32472ZM19.5955 20.1035C19.836 21.7348 20.7223 23.1492 21.3698 24.6477C21.5884 25.1539 21.797 24.7217 21.9029 24.488C22.2847 23.6504 22.6446 22.8028 23.018 21.9635C23.3005 21.3278 23.5999 20.7123 23.5847 19.9756C23.5713 19.3551 23.3947 19.091 22.7421 19.2457C22.029 19.4139 21.2874 19.4375 20.5827 19.2642C19.8124 19.0725 19.4407 19.2104 19.5955 20.1035ZM13.4013 17.4529C13.3492 17.9322 13.6738 18.0483 14.0589 18.1391C15.0882 18.383 16.1326 18.5814 17.1198 18.98C17.2712 19.0406 17.4377 19.1751 17.584 19.054C17.7522 18.9144 17.6765 18.6891 17.6647 18.499C17.6462 18.1744 17.3805 18.0365 17.1602 17.8717C16.6203 17.4697 16.1377 17.0123 15.7256 16.4758C15.0327 15.5743 15.0209 15.5727 14.1985 16.3547C13.8706 16.6675 13.3442 16.8458 13.4013 17.4529ZM29.7822 17.4445C29.7822 17.4058 29.7839 17.3772 29.7822 17.3503C29.7688 17.1855 28.4384 15.6702 28.2803 15.6332C28.1542 15.6029 28.0583 15.6534 27.9961 15.7543C27.3856 16.7432 26.5481 17.5101 25.6399 18.2181C25.4129 18.3964 25.4499 18.7395 25.5541 19.0052C25.6214 19.1751 25.798 19.1011 25.9208 19.0456C26.9753 18.5764 28.1088 18.3914 29.2171 18.1172C29.5972 18.0231 29.8192 17.8482 29.7822 17.4445ZM10.3589 21.4556C10.66 20.7459 10.9274 20.1724 11.1511 19.5838C11.7683 17.9524 11.5917 17.7573 10.0327 17.8448C9.21699 17.8902 9.00676 18.0769 9.23885 18.8656C9.48608 19.7133 9.8258 20.5357 10.3589 21.4556ZM32.8717 21.4926C33.1845 20.7644 33.4301 20.2111 33.6605 19.6511C34.3349 18.018 34.1919 17.8347 32.4748 17.8364C31.7869 17.8364 31.6154 18.1542 31.7466 18.7126C31.9602 19.6342 32.3789 20.4751 32.8717 21.4926ZM27.4899 20.4684C27.4966 20.5105 27.5033 20.5525 27.5118 20.5946C28.5444 20.8519 29.5753 21.1092 30.6601 21.3783C30.1976 19.8058 30.1976 19.8058 28.7782 20.1539C28.3476 20.2599 27.9188 20.3641 27.4899 20.4684ZM15.5524 20.6114C15.5608 20.5559 15.5675 20.5021 15.5759 20.4466C15.0192 20.307 14.4474 20.2145 13.9109 20.0177C13.25 19.7755 12.9119 20.016 12.7505 20.6366C12.6899 20.8653 12.478 21.0621 12.5991 21.3665C13.5847 21.1142 14.5685 20.862 15.5524 20.6114Z" fill="white"/>
<path d="M21.5978 15.6617C20.9789 15.6953 20.439 15.4918 19.9866 15.0831C19.6183 14.7501 19.4737 14.3297 19.7629 13.884C20.0589 13.4282 20.5063 13.2617 20.989 13.5678C21.4061 13.8319 21.7576 13.7764 22.1562 13.5544C22.6119 13.3004 23.0441 13.398 23.3334 13.8235C23.6479 14.286 23.5184 14.7333 23.1249 15.0966C22.6977 15.4935 22.1864 15.6903 21.5978 15.6617Z" fill="white"/>
<path d="M25.3132 11.5361C25.214 12.0641 24.913 12.4224 24.3664 12.4106C23.8147 12.3988 23.4901 12.0204 23.5002 11.4822C23.5103 10.9356 23.8669 10.5942 24.4185 10.6161C24.96 10.638 25.2628 10.9827 25.3132 11.5361Z" fill="white"/>
<path d="M19.6466 11.5985C19.5692 12.13 19.2345 12.4394 18.6947 12.399C18.1531 12.3587 17.8353 11.9904 17.879 11.4404C17.9227 10.8905 18.3028 10.586 18.8376 10.6163C19.3893 10.6483 19.6584 11.0149 19.6466 11.5985Z" fill="white"/>
</svg>
