<svg width="31" height="37" viewBox="0 0 31 37" fill="none" xmlns="http://www.w3.org/2000/svg">
<path d="M15.6493 1.00419C18.337 1.00419 21.0247 1.00141 23.7124 1.00558C25.31 1.00836 26.1512 1.8009 26.1192 3.37486C26.1053 4.07424 26.357 4.27029 27.0035 4.2105C27.4624 4.1674 27.9309 4.18408 28.3926 4.21606C29.3686 4.28558 30.2404 5.07395 30.2821 6.03891C30.4045 8.85173 29.7552 11.4157 27.7029 13.4846C27.0216 14.1715 26.2152 14.6665 25.3086 14.9849C24.9332 15.117 24.6801 15.313 24.5035 15.6773C23.3829 17.9729 21.7658 19.8583 19.6732 21.3155C18.8209 21.9078 18.4761 22.6823 18.4886 23.6778C18.4997 24.5816 18.4997 25.4853 18.4872 26.3877C18.483 26.7256 18.5803 26.9439 18.9071 27.0982C19.8039 27.5195 20.3643 28.2342 20.5464 29.2075C20.6145 29.5718 20.8008 29.6316 21.1165 29.6524C22.6487 29.7553 23.3495 30.5173 23.3551 32.0634C23.3592 33.2453 23.3606 34.4272 23.3537 35.6076C23.3481 36.4808 23.1479 36.6963 22.3025 36.6963C17.8768 36.7019 13.4525 36.7019 9.02676 36.6963C8.17165 36.6949 7.96725 36.4836 7.96169 35.6201C7.95474 34.3688 7.95057 33.1174 7.96308 31.8674C7.97699 30.5381 8.7737 29.7067 10.1168 29.658C10.5423 29.6427 10.7161 29.5204 10.7995 29.0852C10.965 28.2189 11.4864 27.5626 12.2734 27.1719C12.685 26.9689 12.8532 26.7256 12.8351 26.264C12.8018 25.3616 12.8282 24.4578 12.824 23.5541C12.8198 22.6405 12.4931 21.9147 11.7103 21.3683C9.57875 19.8833 7.92971 17.9701 6.784 15.6314C6.65748 15.3742 6.51009 15.167 6.2181 15.0627C3.20367 13.9907 1.791 11.6479 1.1806 8.6821C1.01653 7.88539 0.977602 7.07477 1.01097 6.26276C1.05686 5.11428 1.90084 4.25639 3.04655 4.2105C3.55544 4.18965 4.06712 4.18408 4.57462 4.20772C5.02651 4.22858 5.20727 4.0506 5.18224 3.59872C5.15304 3.06479 5.16416 2.53226 5.46588 2.05257C5.92611 1.31842 6.58656 0.997237 7.44724 1.00002C10.1808 1.01114 12.9144 1.00419 15.6493 1.00419ZM15.6897 2.49611C13.0715 2.49611 10.4519 2.49194 7.83377 2.49889C6.9147 2.50167 6.67694 2.73944 6.67138 3.65155C6.66304 5.3437 6.63106 7.03584 6.67972 8.72659C6.72839 10.3979 6.96754 12.0441 7.57933 13.6209C8.62492 16.31 10.3004 18.5026 12.6655 20.16C13.7945 20.9498 14.3715 21.9954 14.3229 23.4025C14.2784 24.722 14.3048 26.0443 14.3159 27.3652C14.3201 27.9311 14.124 28.2898 13.5178 28.383C13.0451 28.4567 12.6307 28.6625 12.4138 29.131C12.2637 29.4564 12.297 29.6524 12.7336 29.6497C14.6802 29.6399 16.6268 29.6399 18.5734 29.6497C19.01 29.6524 19.0406 29.4536 18.8918 29.131C18.6888 28.6889 18.305 28.4664 17.8545 28.4011C17.1871 28.3051 16.9744 27.9228 16.9869 27.2929C17.0092 26.1806 17.0648 25.0627 16.9758 23.9573C16.8326 22.1483 17.5653 20.9053 19.0183 19.8486C21.9758 17.699 23.7485 14.7471 24.384 11.1404C24.8164 8.6821 24.5967 6.19463 24.6329 3.71968C24.6481 2.72275 24.409 2.50028 23.4009 2.4975C20.8342 2.49194 18.2619 2.49611 15.6897 2.49611ZM15.6563 35.2072C17.5083 35.2072 19.3618 35.1961 21.2138 35.2141C21.6852 35.2183 21.8868 35.0751 21.8687 34.5801C21.8395 33.7709 21.8576 32.9589 21.859 32.1496C21.8604 31.5045 21.5642 31.1444 20.8996 31.143C17.4027 31.1416 13.9071 31.1416 10.4102 31.143C9.74421 31.143 9.44944 31.5045 9.45083 32.1496C9.45361 32.9366 9.48003 33.7264 9.43832 34.5106C9.40773 35.0779 9.63437 35.2239 10.1669 35.2169C11.9981 35.1919 13.8279 35.2072 15.6563 35.2072ZM5.76204 13.0035C5.02234 10.7608 5.19336 8.47215 5.17807 6.19742C5.17529 5.8512 5.04042 5.69686 4.68586 5.69269C2.34439 5.6621 2.43198 5.68852 2.62942 7.68934C2.81574 9.57892 3.42475 11.2961 4.91111 12.5878C5.12523 12.7741 5.31989 13.0258 5.76204 13.0035ZM25.6075 13.0202C26.0191 13.0035 26.2318 12.7421 26.4626 12.535C27.9268 11.2224 28.5121 9.49967 28.6915 7.61008C28.8597 5.83173 28.964 5.68296 26.8923 5.68018C26.2596 5.67879 26.1206 5.90265 26.122 6.48801C26.1248 8.00914 26.243 9.5386 25.9843 11.0514C25.8745 11.6993 25.7368 12.3459 25.6075 13.0202Z" fill="white" stroke="white" stroke-width="0.3"/>
<path d="M12.2967 12.4905C12.3371 12.1443 12.1368 11.9219 11.9172 11.7049C11.4041 11.203 10.8952 10.6955 10.3807 10.1949C10.0915 9.91408 9.93859 9.59011 10.0818 9.19523C10.2195 8.81704 10.5615 8.72388 10.9161 8.66965C11.5112 8.58067 12.1049 8.42911 12.7014 8.41938C13.4174 8.40686 13.7914 8.06621 14.0431 7.44191C14.2586 6.9066 14.5478 6.40049 14.8051 5.88186C14.9733 5.5412 15.1652 5.21306 15.6046 5.20333C16.0731 5.1936 16.2956 5.52869 16.4763 5.89159C16.7864 6.51311 17.0951 7.13602 17.3829 7.76727C17.5553 8.14546 17.8292 8.32622 18.2352 8.37627C18.9235 8.4597 19.609 8.56954 20.2958 8.66826C20.7032 8.72666 21.0786 8.84485 21.2135 9.28978C21.34 9.7083 21.0926 10.0017 20.8228 10.2659C20.3264 10.7525 19.8273 11.2364 19.3128 11.7022C19.0125 11.9747 18.8873 12.2458 18.9888 12.6755C19.1585 13.3943 19.2336 14.1354 19.3726 14.8626C19.4449 15.2394 19.3893 15.5536 19.082 15.797C18.7594 16.0514 18.4285 15.961 18.1045 15.7928C17.4469 15.4507 16.785 15.117 16.1385 14.7555C15.8006 14.5678 15.4975 14.5567 15.1582 14.743C14.4894 15.1115 13.8193 15.4827 13.1282 15.8081C12.3496 16.1765 11.7726 15.7427 11.8921 14.8835C12.0006 14.0826 12.1591 13.2886 12.2967 12.4905ZM12.7097 9.9544C12.5971 10.2464 12.7667 10.3465 12.8793 10.4341C13.7664 11.114 14.235 11.9246 13.7761 13.0662C13.7205 13.2038 13.6886 13.411 13.822 13.5264C14.0014 13.6821 14.1808 13.525 14.3212 13.4305C15.1332 12.8799 15.9369 12.681 16.8017 13.3429C16.9769 13.4777 17.2341 13.7322 17.4733 13.5264C17.6679 13.3595 17.5011 13.0787 17.4343 12.8729C17.1479 11.9691 17.3676 11.2558 18.1351 10.6858C18.3409 10.5328 18.5884 10.3687 18.6774 9.95301C17.0714 10.1296 16.0982 9.35513 15.6129 7.77978C15.1429 9.3301 14.2294 10.1213 12.7097 9.9544Z" fill="white" stroke="white" stroke-width="0.3"/>
<path d="M14.209 33.9101C13.7711 33.9115 13.3317 33.9254 12.8937 33.9073C12.4376 33.8879 12.1484 33.6445 12.1484 33.1718C12.1498 32.6977 12.4418 32.4488 12.8965 32.4404C13.8197 32.4237 14.743 32.4224 15.6648 32.4432C16.0875 32.4529 16.3614 32.7032 16.3753 33.1398C16.3906 33.6112 16.1181 33.8767 15.6606 33.9032C15.1796 33.931 14.6943 33.9101 14.209 33.9101Z" fill="white" stroke="white" stroke-width="0.3"/>
</svg>
