<svg width="39" height="36" viewBox="0 0 39 36" fill="none" xmlns="http://www.w3.org/2000/svg">
<path d="M32.8559 26.8103C33.8761 27.0884 34.8129 27.4542 35.6427 28.049C38.0592 29.7814 38.7625 32.2143 38.4993 35.0397C38.4592 35.4635 38.2064 35.7178 37.7826 35.7639C37.5119 35.7922 37.2383 35.7847 36.9662 35.7847C25.2704 35.7862 13.5747 35.7862 1.87895 35.7847C0.42312 35.7847 0.339845 35.6985 0.339845 34.2114C0.338358 30.3287 2.05145 28.0267 5.78249 26.8906C5.84643 26.8713 5.89997 26.8177 5.96689 26.7746C3.23515 25.1686 2.31318 23.4659 2.9199 21.1758C3.43888 19.2189 5.21146 17.8463 7.23535 17.8344C9.344 17.8225 11.1166 19.1281 11.6772 21.1074C12.3285 23.4079 11.417 25.1255 8.60345 26.8073C9.90016 27.1568 11.0883 27.6193 12.0594 28.507C12.2512 28.6825 12.4103 28.6171 12.562 28.4357C13.9792 26.7315 15.8261 25.7634 18.0463 25.3322C14.4149 23.6711 12.8743 21.2115 13.5212 18.1987C14.1175 15.4194 16.4655 13.4149 19.1735 13.3747C22.1967 13.3301 24.6176 15.1592 25.2868 17.9935C26.0244 21.1208 24.6013 23.4942 20.8301 25.3396C23.0443 25.7604 24.8853 26.7404 26.3025 28.4461C26.4973 28.6795 26.6653 28.6305 26.8646 28.455C27.8163 27.6163 28.9464 27.1375 30.3086 26.8207C27.5605 25.5032 26.3233 23.5298 27.3716 20.6122C28.0468 18.7311 29.9458 17.6887 32.0797 17.8463C33.8552 17.9772 35.5163 19.4389 35.9594 21.2606C36.5067 23.512 35.6546 25.0571 32.8559 26.8103ZM19.4411 34.1891C21.6435 34.1891 23.8443 34.1757 26.0467 34.1995C26.585 34.2055 26.7738 34.0984 26.7203 33.4976C26.3634 29.5212 22.6874 26.501 18.7184 26.9635C15.1197 27.3828 12.4311 30.0833 12.1382 33.5229C12.0921 34.0701 12.2453 34.204 12.7628 34.198C14.9889 34.1772 17.215 34.1891 19.4411 34.1891ZM23.8205 19.3765C23.825 17.0329 21.8428 15.0298 19.4694 14.9792C17.1243 14.9302 15.0409 16.9927 15.0365 19.3676C15.032 21.7112 17.0143 23.7142 19.3876 23.7648C21.7327 23.8154 23.8161 21.7528 23.8205 19.3765ZM6.19292 34.1876C7.40785 34.1876 8.62129 34.1772 9.83622 34.1936C10.2734 34.1995 10.4593 34.0449 10.4667 33.5928C10.4816 32.6663 10.6853 31.7578 11.0824 30.9324C11.4006 30.2722 11.2311 29.8796 10.6853 29.5063C8.88747 28.2795 6.98106 28.0044 4.98989 28.9323C3.06414 29.8305 2.10647 31.4187 1.9429 33.5184C1.90572 33.9854 2.04104 34.204 2.54962 34.195C3.76455 34.1727 4.97948 34.1876 6.19292 34.1876ZM32.5897 34.1876C33.8285 34.1876 35.0687 34.1772 36.3074 34.1936C36.7431 34.1995 36.9498 34.0597 36.9186 33.5928C36.7699 31.3994 35.7676 29.7532 33.7318 28.8729C31.6633 27.9776 29.7182 28.3182 27.9442 29.6967C27.5769 29.9822 27.4966 30.2781 27.6973 30.7213C28.0973 31.6061 28.3605 32.5414 28.3843 33.5169C28.3962 34.0374 28.591 34.2069 29.0966 34.195C30.2595 34.1713 31.4239 34.1891 32.5897 34.1876ZM10.1693 22.3298C10.1634 20.7297 8.86517 19.4538 7.27253 19.4821C5.68881 19.5103 4.45454 20.7535 4.4486 22.3283C4.44265 23.9373 5.70814 25.2162 7.30822 25.2162C8.90681 25.2162 10.1753 23.9373 10.1693 22.3298ZM28.6877 22.3774C28.6981 23.9745 30.0052 25.2504 31.5964 25.2132C33.1831 25.176 34.4054 23.9328 34.4084 22.3551C34.4114 20.7505 33.134 19.4717 31.5369 19.4806C29.9339 19.488 28.6773 20.7654 28.6877 22.3774Z" fill="white"/>
<path d="M15.3917 10.4139C15.5107 9.72687 15.6178 8.99226 15.7724 8.26657C15.8914 7.70744 15.7932 7.26578 15.3456 6.87171C14.7895 6.38098 14.2824 5.83523 13.753 5.31476C13.463 5.03073 13.3351 4.69763 13.4645 4.30356C13.5894 3.92436 13.9166 3.79498 14.2705 3.73996C15.0036 3.62546 15.7352 3.48567 16.4728 3.43214C17.0438 3.3905 17.3695 3.13621 17.5926 2.62764C17.8915 1.94954 18.2409 1.29226 18.5711 0.62754C18.7436 0.278081 18.9711 0 19.4098 0C19.844 0 20.0804 0.266184 20.2529 0.620105C20.5979 1.33241 20.9533 2.04025 21.282 2.76147C21.4664 3.16595 21.7593 3.35927 22.1935 3.41132C22.9296 3.49906 23.6628 3.61802 24.3959 3.7236C24.8316 3.78606 25.2316 3.91395 25.3759 4.38832C25.5097 4.83444 25.2465 5.14969 24.958 5.43075C24.4271 5.94973 23.8947 6.46723 23.3445 6.96688C23.0248 7.25686 22.8865 7.54535 22.9951 8.00634C23.1809 8.79894 23.2955 9.60939 23.4114 10.4169C23.5364 11.2764 22.9207 11.7404 22.1266 11.3701C21.4099 11.0355 20.708 10.6652 20.0209 10.2726C19.612 10.0392 19.2536 10.0168 18.8402 10.2503C18.1279 10.6503 17.4111 11.0444 16.6706 11.3864C15.9122 11.7344 15.3337 11.2942 15.3917 10.4139ZM19.4038 2.78081C18.9116 4.48498 17.8602 5.26568 16.0832 5.1036C16.2438 5.34599 16.278 5.44562 16.3479 5.49915C17.3502 6.26796 17.8989 7.16318 17.426 8.49558C17.2297 9.04579 17.6223 9.07256 17.9971 8.82125C18.8655 8.23832 19.7235 8.00783 20.65 8.72013C20.8388 8.86586 21.1154 9.13353 21.3712 8.92386C21.5853 8.74838 21.4054 8.44651 21.334 8.22494C21.0277 7.25835 21.2552 6.494 22.0805 5.88281C22.3021 5.71924 22.5638 5.54228 22.6635 5.10806C20.9875 5.25081 19.8975 4.52662 19.4038 2.78081Z" fill="white"/>
<path d="M3.65569 14.0885C4.3561 12.7739 3.69733 11.7419 2.52255 10.7798C1.92029 10.2861 2.2177 9.42508 3.01328 9.38344C4.51224 9.30463 5.44909 8.69345 5.97402 7.24207C6.27143 6.41973 7.21869 6.45245 7.528 7.28669C8.02022 8.62058 8.82025 9.35816 10.2865 9.32099C10.6895 9.31058 11.0687 9.49646 11.21 9.94258C11.3542 10.3946 11.0791 10.6935 10.8025 10.985C10.7177 11.0742 10.6374 11.1754 10.5378 11.2438C9.62327 11.8683 9.34519 12.6847 9.7348 13.7361C9.81807 13.9606 9.81807 14.2253 9.80766 14.4707C9.77792 15.1651 9.19797 15.6068 8.65222 15.2216C7.32427 14.2833 6.1257 14.3413 4.79775 15.2246C4.20739 15.6142 3.59323 15.0521 3.65569 14.0885ZM7.91612 12.9554C7.69901 12.1524 7.74213 11.5233 8.3206 11.0281C8.51541 10.8601 8.35034 10.6876 8.15554 10.6772C7.57112 10.6445 7.19787 10.353 6.96738 9.83105C6.84246 9.54702 6.67591 9.49349 6.52274 9.81618C6.28333 10.3203 5.93089 10.6415 5.33607 10.6698C5.0342 10.6831 4.91969 10.8765 5.18439 11.098C5.63199 11.4743 5.74352 11.9382 5.64984 12.4884C5.61861 12.6713 5.69148 12.9152 5.91156 12.7739C6.56884 12.3531 7.17408 12.5806 7.91612 12.9554Z" fill="white"/>
<path d="M28.911 14.3472C28.975 13.9695 29.0136 13.5204 29.1296 13.0936C29.2932 12.4943 29.1504 12.0392 28.6672 11.6511C28.3593 11.4043 28.0708 11.1262 27.8106 10.8288C27.2753 10.2176 27.4671 9.43391 28.2493 9.39228C29.775 9.31049 30.7297 8.68295 31.2665 7.21373C31.5521 6.43302 32.4978 6.46128 32.7833 7.25091C33.277 8.62198 34.1172 9.26736 35.5909 9.35213C36.6348 9.41161 36.8222 10.1819 36.1054 10.9567C36.0549 11.0117 36.0073 11.0712 35.9463 11.1128C34.9351 11.8192 34.6035 12.7173 35.0333 13.9189C35.1864 14.3457 35.1998 14.8706 34.7225 15.1978C34.2674 15.51 33.8734 15.232 33.4763 15.0342C33.3217 14.9569 33.1566 14.8885 33.0213 14.7844C32.3655 14.2802 31.7231 14.2832 31.0479 14.7591C30.7684 14.9569 30.4427 15.1026 30.1215 15.229C29.4627 15.4907 28.92 15.113 28.911 14.3472ZM33.1402 12.927C33.0257 12.1656 33.0004 11.5188 33.5982 11.0266C33.796 10.8645 33.6265 10.6875 33.4317 10.6771C32.8473 10.6459 32.474 10.3514 32.2435 9.83096C32.1171 9.54396 31.9506 9.49935 31.8004 9.81758C31.561 10.3232 31.2071 10.6414 30.6137 10.6697C30.3104 10.6845 30.2018 10.8793 30.4635 11.0979C30.9126 11.4742 31.0212 11.9381 30.9275 12.4883C30.8963 12.6712 30.9706 12.9136 31.1907 12.7724C31.8465 12.353 32.4517 12.585 33.1402 12.927Z" fill="white"/>
<path d="M22.1835 29.1048C22.53 29.1018 22.7442 29.2133 22.9524 29.3576C23.742 29.9063 24.3323 30.6216 24.7695 31.4722C25.0179 31.954 25.0194 32.3986 24.5063 32.6871C24.029 32.9548 23.6275 32.7526 23.3762 32.3183C22.9851 31.6432 22.4765 31.087 21.8653 30.6067C21.5545 30.3628 21.382 30.0312 21.5307 29.6253C21.6542 29.2937 21.9114 29.1197 22.1835 29.1048Z" fill="white"/>
</svg>
