<svg width="37" height="37" viewBox="0 0 37 37" fill="none" xmlns="http://www.w3.org/2000/svg">
<path d="M18.3441 0.000357568C23.6361 0.000357568 28.9281 -0.0010727 34.2186 0.00178784C35.8949 0.00321811 36.7159 0.824193 36.7173 2.50047C36.7202 6.88711 36.7188 11.2723 36.7173 15.659C36.7173 15.8735 36.7288 16.0938 36.6844 16.2997C36.5986 16.6959 36.3283 16.9333 35.9221 16.9162C35.523 16.899 35.2456 16.663 35.207 16.2497C35.1712 15.8706 35.1855 15.4873 35.1855 15.1069C35.1841 12.7469 35.1698 10.387 35.1955 8.02703C35.2027 7.44348 35.0296 7.24468 34.4275 7.24468C23.7247 7.26041 13.022 7.26041 2.31932 7.24325C1.67284 7.24182 1.52123 7.46065 1.52266 8.06994C1.53983 15.4587 1.53267 22.8489 1.53554 30.2377C1.53554 31.2432 1.75294 31.4634 2.74554 31.4649C7.01204 31.4677 11.2785 31.4677 15.5465 31.4649C16.5462 31.4634 16.6721 31.2332 16.3031 30.3092C16.0742 29.7342 15.8368 29.3137 15.0902 29.401C14.5825 29.4596 14.3136 29.0935 14.3107 28.5857C14.3036 27.5845 14.3007 26.5834 14.3107 25.5822C14.3164 24.9829 14.6754 24.6854 15.2347 24.7569C16.1157 24.8699 16.0928 24.1276 16.386 23.6627C16.6792 23.1979 16.4261 22.9233 16.1214 22.6229C15.668 22.1767 15.658 21.7033 16.1086 21.2456C16.7608 20.5834 17.4201 19.9269 18.0795 19.2718C18.5629 18.7912 19.0506 18.817 19.5097 19.2976C19.7929 19.5936 20.0618 19.8196 20.4909 19.5421C20.9472 19.2461 21.7109 19.2947 21.6094 18.4079C21.535 17.76 21.8969 17.4439 22.5519 17.4482C23.4573 17.4554 24.3641 17.4611 25.2694 17.4454C25.9488 17.4339 26.3436 17.73 26.2678 18.4237C26.1691 19.319 26.9514 19.2461 27.402 19.5464C27.8353 19.8353 28.0999 19.5707 28.3774 19.2847C28.848 18.8027 29.3314 18.807 29.8091 19.2818C30.4513 19.9212 31.0906 20.5634 31.7314 21.2027C32.2062 21.6761 32.2234 22.1581 31.7443 22.6358C31.4668 22.9133 31.1865 23.1679 31.4682 23.6113C31.7729 24.0904 31.7357 24.8728 32.6596 24.7583C33.2732 24.6811 33.575 25.053 33.5736 25.6694C33.5707 26.5991 33.5664 27.5288 33.575 28.4584C33.5807 29.1092 33.2832 29.421 32.6239 29.4282C32.0661 29.4339 31.2308 30.458 31.3481 30.9929C31.4167 31.3061 31.6742 31.4549 31.9917 31.4577C32.7784 31.4634 33.565 31.482 34.3517 31.452C35.0368 31.4263 35.1912 30.9557 35.1898 30.3607C35.1826 28.0251 35.1869 25.6894 35.1869 23.3524C35.1869 23.1378 35.1912 22.9233 35.1884 22.7088C35.1841 22.1753 35.4158 21.7977 35.9707 21.8091C36.5285 21.8206 36.7245 22.2182 36.7216 22.7431C36.7159 23.9831 36.7216 25.2217 36.7216 26.4618C36.7216 27.8921 36.7316 29.3223 36.7173 30.7526C36.7044 32.0999 35.8062 33.0982 34.4718 32.9681C32.5452 32.7807 31.0063 33.2313 29.8191 34.8432C29.3686 35.4539 28.9324 35.3924 28.3603 34.8532C28.0556 34.5671 27.7967 34.3655 27.3719 34.6315C26.9071 34.9233 26.1619 34.8904 26.2678 35.7757C26.345 36.4308 25.956 36.7254 25.3095 36.7183C24.3798 36.7082 23.4501 36.714 22.5205 36.7154C21.9012 36.7168 21.5379 36.4079 21.6151 35.7957C21.7252 34.9175 21.0001 34.929 20.5295 34.6372C20.0675 34.3512 19.7901 34.5786 19.4869 34.8918C19.0134 35.3781 18.5271 35.3466 18.0566 34.8718C18.0237 34.8374 17.9808 34.8103 17.955 34.7717C16.878 33.1597 15.3391 32.8994 13.5026 32.9624C9.83682 33.0882 6.16246 33.0024 2.49096 32.9981C0.821831 32.9967 0.00371595 32.1729 0.00371595 30.488C-0.00057486 21.1698 -0.00057486 11.8501 0.000855411 2.53051C0.000855411 0.80846 0.811819 0.00321811 2.54102 0.00178784C7.8087 -0.0010727 13.0764 0.000357568 18.3441 0.000357568ZM18.367 5.72144C23.7033 5.72144 29.0382 5.71286 34.3745 5.73288C34.9867 5.73574 35.2441 5.57984 35.1969 4.93336C35.1469 4.24683 35.1869 3.55315 35.1855 2.86233C35.1826 1.71668 35.0053 1.53647 33.8611 1.53647C28.4775 1.53504 23.094 1.53647 17.7105 1.53647C12.7803 1.53647 7.84875 1.53647 2.91861 1.53647C1.70717 1.53647 1.53983 1.70095 1.53697 2.87663C1.53554 3.52025 1.5813 4.16673 1.52409 4.80464C1.46116 5.51977 1.69287 5.74289 2.43231 5.7386C7.74291 5.70714 13.0549 5.72144 18.367 5.72144ZM18.3941 23.0449C18.3813 23.1035 18.3813 23.2337 18.3255 23.3324C17.8978 24.1076 17.5746 24.9228 17.3143 25.7681C17.1941 26.1586 16.8537 26.3102 16.4618 26.273C15.7825 26.2086 15.8311 26.6577 15.8325 27.104C15.8339 27.5288 15.7953 27.9464 16.4304 27.8935C17.0096 27.8463 17.29 28.1753 17.4258 28.7059C17.5846 29.3309 17.8192 29.9331 18.1581 30.4837C18.4757 30.9986 18.4914 31.4792 18.0294 31.9011C17.5517 32.3373 17.9822 32.5504 18.2282 32.8065C18.4842 33.0711 18.7117 33.4501 19.1364 32.9752C19.5283 32.5376 19.996 32.5376 20.4909 32.8379C21.0644 33.1855 21.6852 33.4358 22.3345 33.6003C22.8737 33.7361 23.1712 34.0408 23.1283 34.6115C23.0783 35.2651 23.5345 35.1821 23.9393 35.1836C24.3469 35.185 24.796 35.2565 24.7445 34.6072C24.7002 34.0336 25.0048 33.7361 25.5412 33.5988C26.1905 33.4344 26.8113 33.1855 27.3848 32.8365C27.8811 32.5347 28.346 32.5447 28.7393 32.9781C29.1641 33.4472 29.39 33.0711 29.6475 32.8036C29.8964 32.5462 30.3154 32.3302 29.8392 31.8968C29.3757 31.4749 29.3986 30.9929 29.7147 30.4794C30.0537 29.9288 30.2883 29.3266 30.447 28.7002C30.5829 28.1681 30.8675 27.8434 31.4453 27.8906C32.0847 27.9421 32.0489 27.5173 32.036 27.0968C32.0246 26.7035 32.1419 26.2258 31.4782 26.2744C30.8647 26.3188 30.5743 25.9855 30.4356 25.4248C30.2854 24.8227 30.0594 24.2406 29.7305 23.7128C29.3958 23.175 29.3815 22.6859 29.862 22.2353C30.3498 21.7777 29.8334 21.5874 29.616 21.3357C29.3886 21.074 29.1612 20.7307 28.765 21.1669C28.3474 21.6246 27.8697 21.6318 27.3505 21.3114C26.7798 20.9581 26.1519 20.725 25.504 20.5562C24.9977 20.4246 24.7016 20.1314 24.7474 19.5922C24.8003 18.97 24.4084 18.97 23.9708 18.98C23.5388 18.9901 23.0683 18.9028 23.1255 19.5951C23.1698 20.1357 22.8709 20.426 22.366 20.5576C21.7181 20.7264 21.0916 20.9624 20.5209 21.3142C20.0003 21.6346 19.524 21.6232 19.1064 21.1655C18.7074 20.7278 18.4828 21.0811 18.2554 21.34C18.0337 21.5903 17.5274 21.7819 18.0108 22.2411C18.2196 22.4413 18.3898 22.6744 18.3941 23.0449Z" fill="white"/>
<path d="M9.633 22.1367C9.18103 22.1367 8.72764 22.1295 8.27567 22.1381C7.63777 22.1496 7.3131 21.8706 7.28879 21.2056C7.25589 20.3088 6.61942 19.9569 5.78843 20.3689C5.20488 20.6578 4.78438 20.5233 4.46686 19.977C4.0006 19.1746 3.53433 18.3722 3.06949 17.5684C2.75483 17.022 2.85209 16.5915 3.38701 16.2239C4.12217 15.7176 4.12646 15.0354 3.39988 14.5219C2.84637 14.1315 2.7534 13.6895 3.09666 13.116C3.56007 12.3393 4.00346 11.5512 4.45971 10.7703C4.79297 10.2011 5.21919 10.0609 5.8342 10.3913C6.59368 10.8004 7.26018 10.4056 7.28879 9.54315C7.31024 8.88952 7.60488 8.58058 8.25422 8.58487C9.18104 8.59059 10.1107 8.59631 11.039 8.58201C11.6897 8.572 11.9872 8.90239 12.0702 9.51597C12.2046 10.5057 12.668 10.7703 13.5662 10.3484C14.1255 10.0852 14.5345 10.2139 14.8363 10.7246C15.3069 11.5241 15.7717 12.3293 16.2265 13.1374C16.5441 13.7024 16.4611 14.1644 15.8861 14.5405C15.181 15.0025 15.1839 15.6947 15.8618 16.1853C16.4869 16.6387 16.5727 16.9591 16.1979 17.6356C15.7603 18.4266 15.3026 19.2075 14.8435 19.987C14.5245 20.5276 14.0969 20.6563 13.5162 20.3589C12.7295 19.9555 12.186 20.2559 12.0759 21.114C11.9715 21.9293 11.7555 22.1238 10.9202 22.1367C10.4897 22.1438 10.0607 22.1381 9.633 22.1367ZM5.65256 12.1677C5.24493 12.3279 5.18486 12.7756 4.95745 13.0888C4.77294 13.3448 4.9031 13.525 5.13337 13.6752C5.53814 13.9398 5.64827 14.3074 5.57818 14.7865C5.52097 15.1813 5.52383 15.5975 5.57532 15.9937C5.63396 16.4471 5.53242 16.8046 5.14338 17.0392C4.64708 17.3396 4.94314 17.6499 5.13051 17.9303C5.31644 18.2063 5.35363 18.7069 5.94433 18.4466C6.47925 18.212 8.52025 19.1832 8.75195 19.7267C8.79772 19.8325 8.82347 19.9584 8.81775 20.0728C8.79057 20.6206 9.16244 20.6292 9.53431 20.5906C9.88759 20.5534 10.4196 20.808 10.4454 20.1286C10.464 19.6237 10.7729 19.3791 11.1906 19.1846C11.5338 19.0258 11.8714 18.8385 12.1789 18.6182C12.5565 18.3479 12.9226 18.2206 13.3717 18.428C14.0239 18.7283 14.0268 18.0833 14.2556 17.7872C14.4573 17.5283 14.5875 17.258 14.1612 17.0421C13.8008 16.859 13.7179 16.5171 13.7279 16.1324C13.7422 15.6089 13.7393 15.0854 13.7279 14.562C13.7193 14.2015 13.8051 13.8869 14.1384 13.7138C14.6475 13.4506 14.403 13.1388 14.2056 12.8456C14.0053 12.5467 13.971 12.0232 13.3446 12.2907C12.7767 12.5338 10.7286 11.5112 10.5083 10.9348C10.4826 10.869 10.4583 10.7961 10.4611 10.7274C10.4983 9.98224 9.95481 10.151 9.52573 10.121C9.07806 10.0895 8.7777 10.1896 8.80916 10.7303C8.8249 11.0106 8.6833 11.3081 8.42871 11.3653C7.49761 11.577 6.8926 12.91 5.65256 12.1677Z" fill="white"/>
<path d="M24.2906 15.6933C23.1493 15.6933 22.0079 15.6905 20.868 15.6947C20.3545 15.6962 19.9412 15.5303 19.9226 14.9625C19.9025 14.3532 20.323 14.1615 20.8708 14.1615C23.1764 14.1644 25.4835 14.1629 27.789 14.1629C28.3082 14.1629 28.693 14.3517 28.693 14.9296C28.693 15.5088 28.3039 15.6933 27.7862 15.6933C26.6205 15.6933 25.4563 15.6933 24.2906 15.6933Z" fill="white"/>
<path d="M29.0215 12.2606C28.0446 12.2606 27.0692 12.2577 26.0923 12.262C25.576 12.2649 25.1655 12.0875 25.1526 11.5211C25.1398 10.9104 25.5645 10.7273 26.1123 10.7288C28.0418 10.7331 29.9698 10.7316 31.8992 10.7302C32.4112 10.7302 32.8203 10.8904 32.8332 11.4711C32.8461 12.0947 32.4241 12.2649 31.8792 12.2634C30.9266 12.2577 29.9741 12.2606 29.0215 12.2606Z" fill="white"/>
<path d="M6.71189 29.707C6.04681 29.7085 5.38174 29.7142 4.71666 29.7056C4.21893 29.6999 3.88281 29.4725 3.88281 28.9433C3.88424 28.4126 4.22179 28.1852 4.71952 28.1838C6.09687 28.1781 7.47422 28.1781 8.85157 28.1867C9.31927 28.1895 9.63822 28.4284 9.65395 28.9118C9.67112 29.4324 9.35217 29.6942 8.84871 29.7042C8.13787 29.717 7.42416 29.7056 6.71189 29.707Z" fill="white"/>
<path d="M9.61834 24.7497C10.189 24.7497 10.7597 24.7397 11.3304 24.7526C11.7981 24.764 12.1156 24.9957 12.1285 25.4834C12.1413 26.0083 11.8181 26.2658 11.3161 26.2701C10.1747 26.2815 9.03193 26.2801 7.89057 26.2686C7.42144 26.2644 7.09534 26.0112 7.08247 25.5392C7.06817 25.0257 7.40428 24.7654 7.90488 24.7526C8.47555 24.7383 9.04766 24.7497 9.61834 24.7497Z" fill="white"/>
<path d="M21.5796 10.7488C21.8885 10.7488 22.2032 10.7145 22.5064 10.7574C22.9083 10.8132 23.1414 11.0778 23.1428 11.4926C23.1443 11.9074 22.9154 12.2034 22.5135 12.2292C21.8513 12.2721 21.1791 12.2778 20.5183 12.2234C20.1207 12.1906 19.9004 11.8745 19.9147 11.464C19.9276 11.0864 20.1464 10.8189 20.5126 10.766C20.8616 10.7159 21.2248 10.7546 21.581 10.7546C21.5796 10.7531 21.5796 10.7503 21.5796 10.7488Z" fill="white"/>
<path d="M31.471 15.6947C30.5285 15.6933 30.1108 15.4602 30.1094 14.9295C30.1065 14.3989 30.527 14.16 31.4667 14.16C32.4951 14.1586 32.8655 14.3746 32.8412 14.961C32.8183 15.5202 32.4894 15.6962 31.471 15.6947Z" fill="white"/>
<path d="M24.4388 2.86089C26.773 2.86089 29.1087 2.86089 31.4429 2.86089C31.6331 2.86089 31.8247 2.85946 32.015 2.86661C32.5184 2.88378 32.8431 3.11691 32.8359 3.64611C32.8288 4.13669 32.5199 4.36411 32.0493 4.38699C31.8591 4.397 31.6688 4.39414 31.4772 4.39414C26.7358 4.39414 21.9945 4.39414 17.2546 4.39414C17.1116 4.39414 16.9685 4.39128 16.8255 4.39271C16.3106 4.397 15.9101 4.22394 15.8987 3.64325C15.8872 3.06685 16.2663 2.86375 16.7912 2.86089C16.9814 2.85946 17.1731 2.85803 17.3633 2.85803C19.7218 2.86089 22.0803 2.86089 24.4388 2.86089Z" fill="white"/>
<path d="M23.9274 22.3327C26.5162 22.3269 28.6788 24.468 28.6931 27.054C28.7074 29.6714 26.5348 31.8482 23.9174 31.8368C21.3315 31.8254 19.1861 29.6657 19.1875 27.0783C19.1889 24.4924 21.3401 22.3384 23.9274 22.3327ZM23.9474 30.202C25.7195 30.1991 27.0611 28.8504 27.0568 27.0754C27.0526 25.3005 25.711 23.966 23.9317 23.9689C22.1567 23.9717 20.8223 25.3133 20.8237 27.0926C20.8266 28.8676 22.1682 30.2034 23.9474 30.202Z" fill="white"/>
<path d="M9.64883 17.8416C8.23429 17.8402 7.15873 16.7689 7.16016 15.3601C7.16159 13.9627 8.25002 12.8814 9.66027 12.8785C11.0648 12.8757 12.1504 13.9627 12.1461 15.3686C12.1432 16.7789 11.0705 17.843 9.64883 17.8416ZM9.64025 14.5091C9.09102 14.5234 8.76635 14.8738 8.80068 15.423C8.83357 15.9608 9.15109 16.274 9.6617 16.2611C10.1923 16.2483 10.537 15.9136 10.5671 15.3601C10.5928 14.8681 10.1637 14.4948 9.64025 14.5091Z" fill="white"/>
</svg>
