<svg width="38" height="38" viewBox="0 0 38 38" fill="none" xmlns="http://www.w3.org/2000/svg">
<path d="M18.086 25.9519C17.2588 26.8087 16.4168 27.6359 15.6191 28.4927C15.4862 28.6404 15.4419 28.9359 15.4566 29.1574C15.9293 33.6776 12.5318 37.6661 8.07068 37.8138C3.49139 37.9615 -0.157267 34.2981 0.00522418 29.7188C0.167715 25.2872 4.20044 21.8454 8.60247 22.3476C8.85359 22.3771 9.19334 22.2885 9.37061 22.126C10.2126 21.3579 10.9955 20.5602 11.7932 19.7773C10.4637 17.916 10.4637 17.916 11.675 16.4536C11.5421 16.3059 11.4091 16.1286 11.2614 15.9809C9.72513 14.4151 8.17408 12.8345 6.57872 11.2982C6.31282 11.0471 5.86967 10.8846 5.50037 10.8403C4.86518 10.7664 4.22999 10.8108 3.58002 10.8255C2.98915 10.8255 2.57553 10.5596 2.39827 10.0131C1.61536 7.67911 0.83245 5.35993 0.0938556 3.01119C0.00522418 2.71576 0.197259 2.31692 0.28589 1.97716C0.300662 1.88853 0.404065 1.82944 0.477925 1.75558C2.76757 -0.504516 1.99943 -0.238622 4.79132 0.647692C6.46054 1.16471 8.10022 1.77036 9.75468 2.28737C10.5376 2.53849 10.9512 3.01119 10.8183 3.80888C10.5671 5.50765 11.1875 6.71894 12.4875 7.82683C13.8908 9.00858 15.1169 10.4119 16.4168 11.7118C18.1599 10.5005 18.1599 10.5005 19.7552 11.8448C20.5972 11.0028 21.4392 10.1608 22.2665 9.28925C22.3846 9.1563 22.3994 8.89041 22.3846 8.6836C21.8676 3.88274 25.6049 -0.164763 30.4206 0.0420438C31.3512 0.0863595 32.3114 0.367025 33.1977 0.692007C34.1874 1.04653 34.3351 1.9033 33.6261 2.67144C32.8579 3.49867 32.0898 4.35544 31.2478 5.09403C30.5683 5.69968 30.4206 6.37919 30.5978 7.23596C31.366 7.41322 32.0455 7.38368 32.6511 6.71894C33.434 5.86217 34.2908 5.09403 35.1328 4.29635C35.96 3.51344 36.7872 3.66116 37.2156 4.70996C38.3087 7.39845 38.0576 9.9983 36.3441 12.3323C34.6305 14.681 32.2375 15.6855 29.3422 15.4639C28.899 15.4344 28.6184 15.4934 28.3082 15.8184C27.5548 16.5866 26.7571 17.3252 25.9742 18.0933C27.3923 19.5114 28.7218 20.8556 30.0513 22.1851C32.2227 24.3566 34.409 26.5281 36.5804 28.7143C38.294 30.4278 38.294 32.3039 36.5952 34.0174C35.7384 34.8742 34.8964 35.7309 34.0397 36.5729C32.3409 38.2717 30.4649 38.2569 28.7366 36.5582C25.2061 33.0425 21.7051 29.5563 18.086 25.9519ZM33.0943 34.5049C32.7397 34.2094 32.5182 34.0617 32.3261 33.8697C29.2536 30.8119 26.1958 27.7541 23.138 24.6816C22.9755 24.5191 22.7983 24.3861 22.6801 24.2089C22.3256 23.7066 22.3256 23.1748 22.7687 22.7317C23.2119 22.2885 23.7437 22.3033 24.2459 22.6726C24.4232 22.8055 24.5709 22.968 24.7186 23.1305C27.2298 25.6417 29.7263 28.1382 32.2375 30.6494C32.9909 31.4028 33.7147 32.1561 34.4533 32.8947C35.9452 31.6687 35.9748 31.2551 34.6601 29.9404C31.5432 26.8235 28.4263 23.7214 25.3243 20.5897C24.8368 20.1023 24.3198 19.7921 23.6403 19.6148C21.5426 19.083 20.1393 17.7388 19.6223 15.6264C19.386 14.6367 18.7951 14.0015 18.1599 13.4697C16.5941 15.0355 15.043 16.557 13.492 18.1081C14.0533 18.8171 14.7476 19.3785 15.7668 19.6148C17.5986 20.0432 18.9428 21.2249 19.445 22.9976C19.8291 24.3123 20.5382 25.2577 21.4836 26.1292C22.1335 26.7349 22.7392 27.3701 23.3596 28.0052C25.7083 30.354 28.0571 32.7027 30.4058 35.0514C31.1296 35.7605 31.6319 35.7605 32.3704 35.0514C32.5329 34.9185 32.7545 34.7708 33.0943 34.5049ZM7.64229 24.5191C5.55946 24.6225 3.83115 25.5826 2.84143 27.5769C1.82217 29.6006 2.0142 31.6096 3.38799 33.4118C4.747 35.1844 6.59349 35.8934 8.7945 35.4798C11.8227 34.9185 13.7431 32.0971 13.1818 29.0245C13.0488 28.2711 13.1965 27.7098 13.7579 27.178C14.718 26.2917 15.6043 25.3463 16.535 24.4304C17.4361 23.5294 17.4361 23.2487 16.4463 22.4362C16.0623 22.126 15.56 21.9192 15.0873 21.7272C14.7476 21.5795 14.3487 21.5942 14.0385 21.417C13.5954 21.1806 13.3295 21.3283 13.034 21.6533C12.4284 22.3033 11.7341 22.8646 11.1728 23.5441C10.3899 24.4748 9.5331 25.0065 8.29226 24.5486C8.14454 24.5043 7.9525 24.5338 7.64229 24.5191ZM30.908 2.56804C30.8194 2.42032 30.716 2.28737 30.6274 2.13965C29.8592 2.25783 29.0763 2.30214 28.3377 2.52372C25.7083 3.35095 24.1277 6.03943 24.6447 8.72792C24.8072 9.54037 24.6595 10.146 24.0096 10.6926C23.4334 11.1948 22.9755 11.83 22.3699 12.2879C21.4392 12.997 21.1881 13.7651 21.646 14.9026C21.9858 15.7593 22.3403 16.5127 23.1085 17.0445C23.4778 17.3104 23.7141 17.2808 24.0391 16.9411C25.0584 15.8775 26.1515 14.873 27.156 13.7947C27.7321 13.1743 28.3377 13.0413 29.1354 13.189C32.0011 13.7504 34.8669 11.83 35.4578 8.96427C35.5759 8.37339 35.5759 7.75297 35.635 7.13255C35.5612 7.11778 35.5021 7.10301 35.4282 7.08824C34.7635 7.7382 34.1135 8.40294 33.4045 9.00858C33.109 9.25971 32.6954 9.48129 32.3114 9.51083C31.3807 9.58469 30.4353 9.58469 29.5047 9.51083C29.1649 9.48129 28.5888 9.24493 28.5298 9.00858C28.1752 7.60525 28.0423 6.12806 28.5741 4.75428C28.7956 4.17817 29.4308 3.74979 29.9035 3.29186C30.2137 3.01119 30.5683 2.80439 30.908 2.56804ZM14.8805 13.3368C14.7033 13.1447 14.5408 12.9675 14.3635 12.7902C13.034 11.4459 11.7489 10.0426 10.3308 8.78701C9.08994 7.69389 8.29226 6.51213 8.61724 4.78382C8.6911 4.35544 8.45475 4.19295 8.07068 4.07477C6.5344 3.5873 4.99813 3.04074 3.44708 2.55327C3.2255 2.47941 2.8562 2.55327 2.69371 2.71576C2.54599 2.86348 2.47213 3.24755 2.54599 3.46912C2.90052 4.66565 3.3289 5.8474 3.71297 7.04392C4.24476 8.62451 4.24476 8.65406 5.88444 8.60974C6.68212 8.59497 7.273 8.83132 7.83433 9.40742C9.47401 11.0619 11.1285 12.672 12.7534 14.3117C12.9454 14.5037 13.1374 14.681 13.3295 14.873C13.8613 14.3412 14.3487 13.8538 14.8805 13.3368Z" fill="#FE5D14"/>
<path d="M7.74378 33.3823C5.92684 33.3675 4.4201 31.8313 4.44965 30.0143C4.47919 28.1974 6.01547 26.7054 7.83241 26.7497C9.61981 26.7793 11.097 28.286 11.0822 30.0882C11.0822 31.8904 9.56072 33.3971 7.74378 33.3823ZM7.80287 31.1665C8.37897 31.1518 8.86644 30.6495 8.88121 30.0734C8.88121 29.4678 8.3642 28.9508 7.74378 28.9655C7.16767 28.9803 6.6802 29.4825 6.66543 30.0586C6.66543 30.6643 7.18245 31.1813 7.80287 31.1665Z" fill="#FE5D14"/>
</svg>
