<svg width="50" height="39" viewBox="0 0 50 39" fill="none" xmlns="http://www.w3.org/2000/svg">
<path d="M26.9364 17.8729H46.2291C47.8826 17.8729 48.1151 18.0967 48.1151 19.6894C48.1151 25.2154 48.1151 30.7441 48.1151 36.2754C48.1151 37.7542 47.8563 38.008 46.3524 38.008H7.3566C5.87084 38.008 5.64844 37.7942 5.64844 36.3474C5.64844 30.7521 5.64844 25.1568 5.64844 19.5615C5.64844 18.0987 5.87284 17.8749 7.33637 17.8749C13.8684 17.8709 20.4017 17.8703 26.9364 17.8729ZM29.641 35.9417V19.9352H7.74668V35.9417H29.641ZM34.5654 35.9417C34.5654 33.7935 34.5532 31.7033 34.5654 29.613C34.5414 28.9823 34.5943 28.3509 34.723 27.7326C35.2789 25.6224 37.2478 24.3695 39.4977 24.6213C41.5919 24.8551 43.1767 26.6196 43.2414 28.9156C43.298 30.914 43.2535 32.9123 43.2616 34.9106C43.2616 35.2583 43.3 35.606 43.3182 35.9097H46.0169V19.9232H31.804V35.9257L34.5654 35.9417ZM41.22 35.9417C41.22 33.4738 41.22 31.1198 41.22 28.7658C41.2074 28.4994 41.1464 28.2375 41.04 27.9924C40.664 27.0352 39.6998 26.4917 38.6143 26.5936C37.6723 26.6895 36.7121 27.4129 36.6818 28.3401C36.6029 30.852 36.6555 33.3659 36.6555 35.9337L41.22 35.9417Z" fill="#FE5D14"/>
<path d="M38.8609 2.59986C37.8927 3.90876 37.0012 5.11176 36.1117 6.31675C33.9326 9.27426 31.7374 12.2238 29.5865 15.2033C29.4011 15.4952 29.139 15.7321 28.8283 15.8887C28.5176 16.0452 28.1698 16.1157 27.8218 16.0925C19.3701 16.0705 10.9164 16.0925 2.46473 16.0545C1.97352 16.0545 1.28421 15.8088 1.04972 15.4551C0.869809 15.1753 1.14469 14.4559 1.42163 14.0722C4.64181 9.63994 7.90647 5.23765 11.1408 0.813376C11.312 0.551744 11.5504 0.339831 11.8317 0.199366C12.1131 0.0589016 12.4272 -0.00505935 12.7418 0.0140488C21.3633 0.0360303 29.9847 0.0140468 38.6042 0.0620064C38.8746 0.0790224 39.1387 0.15036 39.3802 0.271644C39.6218 0.392929 39.8358 0.561621 40.0092 0.767418C43.2435 5.23366 46.4131 9.73987 49.607 14.2341C50.0113 14.8096 50.2397 15.4191 49.5504 15.8867C48.8186 16.3862 48.3214 15.9266 47.8928 15.3192C45.1356 11.4184 42.3729 7.52172 39.6049 3.629C39.3987 3.31726 39.1763 3.0235 38.8609 2.59986ZM36.706 2.10028C36.552 2.06609 36.3961 2.04074 36.2391 2.02434C28.6243 2.02434 21.0095 2.01035 13.3967 2.04632C13.0227 2.04632 12.5396 2.38205 12.2991 2.70378C9.67119 6.21082 7.08978 9.74585 4.49625 13.2749C4.34667 13.4747 4.21726 13.6985 4.00905 14.0142C4.36281 14.0422 4.58318 14.0722 4.80352 14.0722C12.2505 14.0722 19.6976 14.0842 27.1446 14.0462C27.3794 14.0253 27.6075 13.9584 27.8158 13.8492C28.0241 13.7401 28.2082 13.5911 28.3575 13.4108C29.635 11.7782 30.8378 10.0896 32.0669 8.41498L36.706 2.10028Z" fill="#FE5D14"/>
<path d="M18.8335 24.0017C20.6872 24.0017 22.5388 24.0017 24.3925 24.0017C25.5387 24.0017 25.856 24.2975 25.8681 25.4005C25.8843 27.1324 25.8843 28.8643 25.8681 30.5962C25.858 31.6793 25.5164 31.995 24.3864 31.995C20.6467 32.003 16.907 32.003 13.1673 31.995C12.0191 31.995 11.7281 31.7012 11.72 30.5782C11.7079 28.8463 11.7079 27.1144 11.72 25.3825C11.72 24.2255 11.9666 24.0037 13.1754 23.9977C15.0594 23.9957 16.9475 24.0017 18.8335 24.0017ZM23.7901 26.066H13.8264V29.9367H23.7901V26.066Z" fill="#FE5D14"/>
<path d="M17.1397 12.3936C16.8345 12.1338 16.408 11.944 16.3514 11.6762C16.2749 11.2743 16.3613 10.8587 16.5919 10.5192C17.6957 9.17832 18.8701 7.89342 20.0182 6.58851L21.213 5.23565C21.6536 4.74007 22.1873 4.5902 22.7209 5.01584C23.2546 5.44148 23.2122 6.003 22.7715 6.50458C21.2089 8.29107 19.6423 10.0756 18.0554 11.8401C17.8513 12.0659 17.5117 12.1738 17.1397 12.3936Z" fill="#FE5D14"/>
<path d="M29.003 5.71314C28.8516 6.01867 28.6752 6.31141 28.4754 6.5884C26.9593 8.32494 25.4311 10.0475 23.9029 11.774C23.444 12.2916 22.8921 12.5014 22.3322 11.9898C21.8167 11.5222 21.9279 10.9707 22.3544 10.4851C23.8988 8.7306 25.4291 6.96208 27.026 5.25352C27.2807 4.97975 27.8628 4.84186 28.251 4.90381C28.536 4.94777 28.7543 5.42138 29.003 5.71314Z" fill="#FE5D14"/>
<path d="M11.3251 12.3737C11.0502 12.1299 10.6298 11.934 10.5773 11.6663C10.5016 11.2619 10.5895 10.8443 10.8219 10.5033C12.1055 8.96655 13.4497 7.4818 14.7778 5.97907C15.0426 5.67932 15.263 5.25966 15.6006 5.12178C16.0049 4.95792 16.6598 4.85403 16.9125 5.06785C17.1651 5.28167 17.2784 6.09298 17.0762 6.33877C15.4793 8.26515 13.7994 10.1236 12.1237 11.984C11.9761 12.1599 11.6668 12.2138 11.3251 12.3737Z" fill="#FE5D14"/>
</svg>
