<svg width="33" height="37" viewBox="0 0 33 37" fill="none" xmlns="http://www.w3.org/2000/svg">
<path d="M2.47305 11.1669C2.11956 10.8558 1.72365 10.5871 1.41257 10.2336C0.408648 9.13075 0.422787 7.71677 1.42671 6.59973C1.9216 6.06242 2.43063 5.53925 2.96794 5.04436C4.07085 4.04044 5.49896 4.04044 6.60186 5.04436C6.94122 5.35543 7.23815 5.73721 7.57751 6.0907C9.93884 4.64844 12.4274 3.87076 15.1281 3.64452C15.1281 3.14963 15.1281 2.68302 15.1281 2.13157C14.6615 2.13157 14.2091 2.14571 13.7424 2.13157C13.0355 2.10329 12.5688 1.6791 12.5688 1.07109C12.5688 0.463077 13.0355 0.0106048 13.7283 0.0106048C15.3968 -0.00353494 17.0794 -0.00353494 18.7479 0.0106048C19.4549 0.0106048 19.9215 0.463077 19.9215 1.07109C19.9215 1.6791 19.4549 2.10329 18.7479 2.13157C18.3096 2.14571 17.8571 2.13157 17.3622 2.13157C17.3622 2.65474 17.3622 3.13549 17.3622 3.6021C27.7832 4.33737 34.8955 14.6453 31.7706 24.7835C28.971 33.847 18.9176 38.6121 10.1368 35.0206C1.07322 31.316 -2.99903 20.3436 2.47305 11.1669ZM16.231 5.75135C8.44003 5.76549 2.09128 12.1284 2.10542 19.9335C2.11956 27.7245 8.51073 34.0874 16.2876 34.0733C24.022 34.0591 30.3849 27.668 30.3849 19.9052C30.3708 12.1142 24.0079 5.73721 16.231 5.75135ZM5.75348 7.23602C5.69692 7.17946 5.59794 7.0522 5.48482 6.93909C4.83439 6.28866 4.73541 6.28866 4.07084 6.95323C3.75977 7.2643 3.4487 7.60365 3.12348 7.90059C2.68515 8.2965 2.71343 8.65 3.15176 9.01763C3.32144 9.17317 3.49111 9.3287 3.57595 9.41354C4.31122 8.66413 5.01821 7.95715 5.75348 7.23602Z" fill="#FE5D14"/>
<path d="M16.2321 7.74514C22.9343 7.731 28.4064 13.2031 28.4064 19.9195C28.4064 26.5934 22.9626 32.0655 16.2887 32.0938C9.61469 32.1362 4.10019 26.65 4.08605 19.9336C4.05777 13.2314 9.51571 7.75928 16.2321 7.74514ZM26.1299 18.7742C25.9461 14.4615 21.8739 10.2337 17.3067 9.97923C17.3067 10.3327 17.3209 10.6721 17.3067 11.0256C17.2643 11.775 16.8825 12.185 16.2604 12.185C15.6241 12.185 15.2423 11.7891 15.1999 11.0397C15.1858 10.6721 15.1999 10.3186 15.1999 9.93681C10.4348 10.4883 5.91008 15.1261 6.41911 18.8166C7.22507 18.9297 8.45523 18.5338 8.49765 19.8629C8.54007 21.3617 7.19679 20.8244 6.39083 21.0224C6.50395 25.7733 11.3397 29.8739 15.1716 29.789C15.2989 28.9831 14.8747 27.7388 16.1897 27.6822C17.6885 27.6115 17.1795 29.0113 17.3916 29.8314C21.8597 29.6618 26.0309 25.2926 26.1441 21.0224C25.3381 20.8386 23.9807 21.3617 24.0231 19.8912C24.0372 18.4772 25.324 18.9721 26.1299 18.7742Z" fill="#FE5D14"/>
<path d="M17.362 19.2973C17.9135 19.2973 18.3518 19.269 18.8043 19.2973C19.483 19.3397 19.9072 19.7639 19.9072 20.3436C19.9072 20.9375 19.483 21.3758 18.8184 21.39C17.9983 21.4182 17.1641 21.4182 16.344 21.39C15.6087 21.3617 15.2552 20.9658 15.2411 20.2022C15.2269 18.5337 15.2269 16.8511 15.2411 15.1826C15.2411 14.3908 15.637 13.9524 16.2874 13.9383C16.952 13.9242 17.362 14.3908 17.362 15.225C17.3762 16.5683 17.362 17.8833 17.362 19.2973Z" fill="#FE5D14"/>
</svg>
