<svg width="36" height="36" viewBox="0 0 36 36" fill="none" xmlns="http://www.w3.org/2000/svg">
<path d="M27.4577 2.22087C28.4699 2.22087 29.3978 2.22087 30.3398 2.22087C31.2958 2.23493 31.6473 2.57228 31.6473 3.54215C31.6473 8.27908 31.6614 13.0019 31.6333 17.7389C31.6333 18.273 31.7457 18.6104 32.2097 18.9618C35.4995 21.4216 36.793 25.6525 35.5136 29.4898C34.2201 33.3553 30.6632 35.9838 26.5719 35.9838C18.1645 36.0119 9.74304 35.9978 1.33563 35.9838C0.351481 35.9838 0 35.6183 0 34.6063C0 25.6525 0 16.6706 0.0281184 7.70278C0.0281184 7.26703 0.267125 6.7329 0.576428 6.42367C2.47442 4.4558 4.44271 2.54416 6.36883 0.590359C6.77655 0.168674 7.21238 0 7.80287 0C13.8202 0.0140562 19.8516 0.0140562 25.869 0.0140562C27.1484 0.0140562 27.4295 0.281123 27.4436 1.57429C27.4295 1.75702 27.4436 1.93975 27.4577 2.22087ZM2.16512 8.44775C2.16512 16.9658 2.16512 25.4135 2.16512 33.8332C8.26682 33.8332 14.3123 33.8332 20.3859 33.8332C19.8938 33.2709 19.3736 32.793 18.98 32.2167C18.6847 31.795 18.3473 31.6826 17.8693 31.6966C13.9608 31.7107 10.0523 31.7107 6.12982 31.7107C5.91893 31.7107 5.70804 31.7107 5.49716 31.7107C4.7239 31.6826 4.25994 31.289 4.24589 30.6705C4.23183 30.0521 4.70984 29.6304 5.46904 29.6023C5.65181 29.5882 5.84864 29.6023 6.03141 29.6023C9.57433 29.6023 13.1032 29.6023 16.6461 29.6023C16.9132 29.6023 17.1804 29.6023 17.5178 29.6023C17.3913 29.0822 17.2225 28.7027 17.2225 28.3232C17.2225 27.5641 16.8289 27.4938 16.1962 27.4938C12.7517 27.522 9.30721 27.5079 5.8627 27.5079C5.60963 27.5079 5.3425 27.5079 5.08944 27.4657C4.56925 27.3673 4.25994 27.0019 4.25994 26.4818C4.24589 25.9196 4.55519 25.5541 5.11756 25.4416C5.37062 25.3995 5.62369 25.3995 5.89081 25.3995C9.40562 25.3995 12.9204 25.3995 16.4352 25.3854C16.6742 25.3854 17.0679 25.287 17.1241 25.1324C17.321 24.5702 17.4053 23.9658 17.5459 23.2911C17.2225 23.2911 16.9414 23.2911 16.6602 23.2911C13.047 23.2911 9.4478 23.2911 5.83458 23.2911C4.76608 23.2911 4.24589 22.9397 4.25994 22.2228C4.25994 21.52 4.78014 21.1686 5.84864 21.1686C9.85552 21.1686 13.8624 21.1545 17.8693 21.1826C18.4316 21.1826 18.8112 21.0421 19.1627 20.5782C20.2593 19.1445 21.6934 18.1606 23.3945 17.5702C24.0132 17.3594 24.6458 17.2188 25.3066 17.0361C25.3066 12.0883 25.3066 7.14053 25.3066 2.16465C19.6829 2.16465 14.1014 2.16465 8.47771 2.16465C8.47771 3.82328 8.47771 5.43973 8.47771 7.04214C8.47771 8.08229 8.12623 8.4337 7.08585 8.4337C5.44092 8.44775 3.82411 8.44775 2.16512 8.44775ZM26.5579 19.1304C22.4807 19.1164 19.1487 22.4055 19.1205 26.4537C19.1065 30.53 22.3963 33.8613 26.4454 33.8894C30.5226 33.9035 33.8546 30.6143 33.8827 26.5661C33.8968 22.4899 30.6069 19.1445 26.5579 19.1304ZM27.4577 4.37147C27.4577 8.64454 27.4577 12.8192 27.4577 17.022C28.1466 17.1626 28.7933 17.3031 29.4963 17.4437C29.4963 13.0722 29.4963 8.72888 29.4963 4.35741C28.7933 4.37147 28.1606 4.37147 27.4577 4.37147ZM6.29853 4.00601C5.56745 4.73693 4.73796 5.56624 4.00688 6.29716C4.62548 6.29716 5.44092 6.29716 6.29853 6.29716C6.29853 5.43973 6.29853 4.63853 6.29853 4.00601Z" fill="#FE5D14"/>
<path d="M10.6307 10.6265C10.6307 9.92374 10.6166 9.30527 10.6307 8.67274C10.6588 7.84343 11.0243 7.47797 11.8538 7.46391C13.1473 7.44986 14.4266 7.44986 15.7201 7.46391C16.5355 7.47797 16.9292 7.84343 16.9432 8.65868C16.9573 9.64262 16.9432 10.6125 16.9432 11.6667C17.9555 11.6667 18.8834 11.6667 19.8113 11.6667C20.7814 11.6667 21.147 12.0181 21.161 12.9599C21.1751 14.2249 21.1751 15.49 21.161 16.755C21.147 17.6265 20.7674 18.006 19.9097 18.006C15.8326 18.006 11.7554 18.006 7.67822 18.006C6.80655 18.006 6.42695 17.6406 6.41289 16.7831C6.39883 15.1386 6.39883 13.5081 6.41289 11.8635C6.42695 10.992 6.79249 10.6406 7.67822 10.6265C8.63425 10.6125 9.59027 10.6265 10.6307 10.6265ZM12.7958 9.60045C12.7958 11.7229 12.7958 13.7892 12.7958 15.8554C13.4987 15.8554 14.1314 15.8554 14.7641 15.8554C14.7641 13.747 14.7641 11.6808 14.7641 9.60045C14.0892 9.60045 13.4706 9.60045 12.7958 9.60045ZM10.5885 15.8695C10.5885 14.8153 10.5885 13.8173 10.5885 12.8053C9.88552 12.8053 9.22473 12.8053 8.57801 12.8053C8.57801 13.8595 8.57801 14.8575 8.57801 15.8695C9.25285 15.8695 9.88552 15.8695 10.5885 15.8695ZM19.024 13.8173C18.307 13.8173 17.6743 13.8173 16.9854 13.8173C16.9854 14.506 16.9854 15.1807 16.9854 15.8414C17.6884 15.8414 18.3492 15.8414 19.024 15.8414C19.024 15.1526 19.024 14.5201 19.024 13.8173Z" fill="#FE5D14"/>
<path d="M29.4679 28.0422C29.2008 28.6044 29.018 29.2088 28.6665 29.7148C28.2447 30.3193 27.5137 30.6144 27.1622 31.3735C26.881 31.9779 25.8406 31.8233 25.5594 31.1626C25.3767 30.7409 25.1376 30.5442 24.7299 30.4317C24.5753 30.3895 24.4206 30.3052 24.2941 30.2209C23.7317 29.8835 23.5208 29.3072 23.7739 28.7871C24.041 28.2389 24.6175 28.0984 25.2782 28.3514C25.6578 28.506 26.0796 28.6466 26.4873 28.6325C26.7123 28.6325 27.0778 28.3514 27.1341 28.1265C27.1903 27.9438 26.9513 27.5783 26.7404 27.4377C26.3749 27.1988 25.939 27.0723 25.5313 26.8755C23.4646 25.9056 23.2678 23.755 25.0955 22.4197C25.2501 22.3072 25.3064 22.0823 25.4469 21.9558C25.7562 21.6888 26.0796 21.2671 26.4311 21.239C26.7404 21.2109 27.1059 21.6044 27.4152 21.8293C27.6824 22.0261 27.8792 22.3072 28.1604 22.49C28.8633 22.9538 29.0742 23.6707 28.6103 24.2048C28.2729 24.5984 27.837 24.7108 27.3449 24.4859C27.1622 24.4016 26.9794 24.2189 26.7826 24.2189C26.5295 24.2189 26.2764 24.3454 26.0234 24.4157C26.178 24.6125 26.2905 24.8795 26.4873 24.992C26.9513 25.259 27.4715 25.4137 27.9354 25.6807C28.8493 26.2149 29.3414 27.0582 29.4679 28.0422Z" fill="#FE5D14"/>
</svg>
