<svg width="82" height="80" viewBox="0 0 82 80" fill="none" xmlns="http://www.w3.org/2000/svg">
<g opacity="0.27">
<path d="M81.9809 37.1868C81.9809 38.7982 81.9809 40.389 81.9809 42.0004C81.767 43.6325 81.5532 45.2646 81.3179 46.9587C79.3931 46.3389 77.5966 45.7191 75.7573 45.2026C74.9018 44.9547 74.5382 44.6242 74.8804 43.7565C74.966 43.5292 74.9232 43.2606 74.9232 42.9301C73.255 42.9301 71.6296 42.9714 70.0042 42.9094C69.2129 42.8888 68.4216 42.7648 67.673 42.5376C61.0645 40.4303 54.4559 38.3024 48.0612 36.2365C50.1999 36.2365 52.5952 36.2365 55.1403 36.2365C54.7339 32.8897 54.3489 29.6255 53.964 26.4026C50.649 26.7125 47.5693 27.0017 44.4682 27.2703C44.4682 30.2659 44.4682 33.2409 44.4682 36.2778C45.0884 36.2778 45.6445 36.2778 46.2219 36.2778C41.7093 37.0009 38.8862 39.4593 37.6671 43.9011C37.6243 43.4466 37.5816 43.1987 37.5602 42.9507C34.0099 42.9507 30.5453 42.9507 26.8667 42.9507C27.2517 46.3182 27.658 49.6444 28.043 53.0118C28.4921 52.9499 28.7488 52.9085 29.0054 52.8879C31.2083 52.6606 33.3897 52.3921 35.614 52.2268C37.603 52.0822 37.603 52.1442 37.603 50.2022C37.603 49.2105 37.603 48.1982 37.603 47.2066C37.881 47.7024 38.0307 48.1982 38.2018 48.6734C39.9555 53.7762 41.6879 58.8998 43.5058 63.982C44.1474 65.8 44.5751 67.5767 44.4254 69.498C44.3826 70.1178 44.4254 70.7582 44.4254 71.5226C44.9601 71.1507 45.345 70.8822 45.7728 70.5929C46.7138 73.32 47.6121 75.9644 48.5317 78.6294C48.3392 78.6707 48.2537 78.6914 48.1895 78.7121C46.6069 78.9186 45.0242 79.1252 43.4416 79.3318C41.7948 79.3318 40.1266 79.3318 38.4798 79.3318C38.2232 79.2905 37.9665 79.2285 37.7099 79.1872C36.2556 79.0013 34.8013 78.8773 33.3469 78.6088C23.0598 76.6461 14.6761 71.6052 8.34559 63.5274C1.54453 54.8712 -1.06468 45.058 0.389636 34.2945C1.56592 25.6176 5.43696 18.1182 11.8103 11.8585C17.9269 5.84659 25.3055 2.06593 33.9244 0.599121C35.4215 0.351209 36.9186 0.185934 38.4157 0C40.1266 0 41.8376 0 43.5485 0C44.9173 0.165275 46.2861 0.289231 47.6548 0.516483C55.2686 1.75604 62.0269 4.81362 67.8441 9.73055C75.1157 15.9077 79.6497 23.593 81.3393 32.8277C81.6173 34.2738 81.767 35.7406 81.9809 37.1868ZM19.9801 42.9714C15.7027 42.9714 11.3825 42.9714 7.01959 42.9714C7.59704 48.2602 9.35077 53.0945 12.2166 57.4123C15.3391 56.338 18.3761 55.305 21.2847 54.2927C20.857 50.5327 20.4292 46.7727 19.9801 42.9714ZM12.2166 21.9196C9.39355 26.258 7.57566 31.0097 7.01959 36.2365C11.4467 36.2365 15.7455 36.2365 19.9801 36.2365C20.4292 32.4558 20.857 28.7371 21.2847 25.0391C18.3547 24.0268 15.3177 22.9732 12.2166 21.9196ZM61.9841 36.2365C66.2401 36.2365 70.5603 36.2365 74.966 36.2365C74.3885 30.989 72.592 26.2374 69.769 21.9196C66.6465 22.9938 63.6095 24.0475 60.7009 25.0391C61.1286 28.7784 61.5564 32.4765 61.9841 36.2365ZM37.5388 27.291C34.3949 27.0017 31.2724 26.7125 28.0002 26.4026C27.6152 29.6668 27.2303 32.931 26.8453 36.2365C30.5239 36.2365 34.0313 36.2365 37.5388 36.2365C37.5388 33.1995 37.5388 30.2453 37.5388 27.291ZM37.5388 20.6593C37.5388 16.3209 37.5388 12.127 37.5388 7.74725C33.3683 10.9701 31.4863 15.2879 29.8395 19.9569C32.4701 20.2048 34.951 20.4321 37.5388 20.6593ZM44.4682 7.76791C44.4682 12.1477 44.4682 16.3415 44.4682 20.6593C47.056 20.4321 49.5369 20.2048 52.1675 19.9569C50.4565 15.2879 48.5959 10.9494 44.4682 7.76791ZM37.5602 58.6725C34.9724 58.8998 32.4701 59.1477 29.8181 59.3749C31.5291 64.0233 33.3897 68.3824 37.5602 71.5846C37.5602 67.1841 37.5602 63.011 37.5602 58.6725ZM65.3632 16.5481C62.2194 13.5112 58.883 11.2387 55.2472 9.66857C56.4021 12.4576 57.5784 15.2879 58.776 18.1182C58.8402 18.2628 59.1824 18.4488 59.3535 18.4075C61.2997 17.829 63.2245 17.2299 65.3632 16.5481ZM22.9101 18.5521C24.2575 15.4738 25.5407 12.5609 26.8239 9.62725C23.0812 11.28 19.7235 13.5319 16.6437 16.5481C18.8894 17.2712 20.9425 17.9323 22.9101 18.5521ZM16.6223 62.7837C19.7448 65.8 23.0812 68.0518 26.8025 69.6839C25.5193 66.771 24.2361 63.8373 22.8887 60.7798C20.9425 61.3995 18.8894 62.0606 16.6223 62.7837Z" fill="white"/>
<path d="M57.1496 79.3314C56.0588 78.8975 55.4814 78.0918 55.1178 77.0175C51.6531 66.8531 48.1243 56.6888 44.6382 46.5244C44.0394 44.7683 44.8735 43.2395 46.6058 43.0123C47.0549 42.9503 47.5682 43.0329 48.0173 43.1776C58.668 46.607 69.3187 50.0364 79.9908 53.4659C80.996 53.7758 81.5949 54.4369 82.0012 55.3046C82.0012 55.7178 82.0012 56.131 82.0012 56.5441C81.5307 57.5771 80.6752 58.1349 79.6059 58.5274C75.2216 60.1182 70.8586 61.7503 66.4957 63.403C66.1107 63.5476 65.7044 63.9402 65.5546 64.312C63.8437 68.5059 62.1755 72.7204 60.5287 76.9349C60.1224 77.9885 59.5663 78.8769 58.4542 79.3314C58.005 79.3314 57.5773 79.3314 57.1496 79.3314Z" fill="white"/>
</g>
</svg>
