<svg width="28" height="22" viewBox="0 0 43 39" fill="none" xmlns="http://www.w3.org/2000/svg">
<path d="M18.4939 20.3761C18.2848 19.7902 18.1079 19.2044 17.8667 18.6348C17.545 17.8212 17.6897 17.1214 18.2205 16.4379C19.1212 15.2663 19.9575 14.0295 20.8582 12.8415C21.2442 12.3208 21.2764 11.8651 20.9547 11.2793C20.2149 9.92862 19.5394 8.54539 18.8156 7.17844C18.4457 6.47869 18.4296 5.79521 18.8156 5.09546C19.3946 4.02143 19.9254 2.93112 20.5044 1.87336C21.0352 0.880689 21.7107 0.734229 22.5953 1.43398C25.04 3.33795 27.4525 5.2582 29.8973 7.17844C30.1385 7.37372 30.3959 7.55273 30.7497 7.82937C30.7819 7.29235 30.7819 6.88552 30.814 6.49496C30.8945 5.77894 31.3126 5.33956 32.0203 5.33956C33.5161 5.30702 35.028 5.30702 36.5238 5.33956C37.344 5.35584 37.7622 5.87658 37.7622 6.82043C37.7783 8.64303 37.7944 10.4494 37.7461 12.272C37.73 13.0856 37.9552 13.6552 38.6307 14.1271C39.6118 14.8269 40.5768 15.5592 41.4775 16.3728C41.7831 16.6495 42.0887 17.2516 41.9761 17.5608C41.8635 17.87 41.2684 18.0815 40.8503 18.1954C40.4482 18.2931 39.9978 18.2117 39.5636 18.2117C38.309 18.2117 38.309 18.2117 38.309 19.5136C38.309 22.2312 38.309 24.9326 38.309 27.6502C38.309 30.4655 38.309 33.297 38.309 36.1123C38.309 37.642 37.9713 38 36.4755 38C33.1462 38 29.8329 38 26.5036 38C25.0561 38 24.7022 37.6257 24.7022 36.1774C24.7022 34.306 24.7183 32.4345 24.7022 30.5631C24.6701 28.5127 23.6085 27.1946 21.8876 26.9993C19.7002 26.7552 18.3331 28.0408 18.3009 30.4167C18.2688 32.3369 18.3009 34.2734 18.3009 36.1937C18.3009 37.6094 17.931 38 16.5639 38C13.1863 38 9.80873 38 6.43116 38C5.09621 38 4.69412 37.6094 4.69412 36.2588C4.69412 30.6119 4.69412 24.9814 4.69412 19.3346C4.69412 18.2117 4.69412 18.2117 3.61651 18.2117C3.10183 18.2117 2.58715 18.2931 2.08856 18.1792C1.68647 18.0978 1.13962 17.87 1.02703 17.5608C0.914448 17.2679 1.17179 16.6658 1.46129 16.4054C2.66757 15.3639 3.93818 14.42 5.17663 13.4274C7.58918 11.5234 10.0017 9.6357 12.4143 7.73173C13.3632 6.98316 13.9101 7.04825 14.6821 7.95956C15.5667 8.98477 16.4191 10.0263 17.2877 11.0515C17.8827 11.735 17.9471 12.4184 17.4807 13.1995C16.7408 14.4526 16.0653 15.7544 15.3254 17.0075C14.9877 17.5771 15.0842 17.9188 15.5828 18.2931C16.4995 18.9928 17.4002 19.7251 18.3009 20.4411C18.3974 20.4411 18.4457 20.4086 18.4939 20.3761ZM21.7911 8.85459C21.7268 8.90341 21.6785 8.93595 21.6142 8.98477C21.9198 9.60316 22.1932 10.2378 22.5631 10.8237C23.1582 11.7838 23.0939 12.6137 22.3862 13.5087C21.4372 14.713 20.5848 15.9985 19.668 17.2353C19.3946 17.6096 19.3624 17.9188 19.5233 18.3419C19.9897 19.5787 20.4401 20.8317 20.8743 22.0685C21.0673 22.6055 21.2925 23.1913 20.6813 23.5982C20.1345 23.9724 19.668 23.6144 19.2338 23.2727C17.5289 21.9057 15.824 20.5551 14.1192 19.1881C13.122 18.3907 13.0255 17.87 13.6527 16.7471C14.0387 16.0636 14.4248 15.3802 14.7947 14.6967C13.1059 15.5917 11.5779 16.5844 10.0339 17.5608C9.59964 17.8374 9.10105 18.3744 8.65071 17.7072C8.16819 16.9749 8.92413 16.7308 9.35839 16.4379C11.3528 15.1198 13.3793 13.8342 15.3576 12.5161C15.5667 12.3859 15.808 11.914 15.7436 11.8326C15.0198 10.8887 14.2317 9.97744 13.4276 9.03359C10.2912 11.5559 7.21926 13.9644 4.05077 16.4705C6.35074 16.8122 6.36682 16.8285 6.36682 19.0416C6.36682 24.4932 6.36682 29.9447 6.36682 35.3963C6.36682 35.9984 6.43116 36.3727 7.17101 36.3564C10.0982 36.3239 13.0094 36.3401 15.9366 36.3564C16.4995 36.3564 16.7408 36.1774 16.7247 35.559C16.6926 33.769 16.6926 31.9789 16.7247 30.1888C16.773 27.8618 18.0758 26.0392 20.0219 25.5184C23.3834 24.6234 26.2784 26.8203 26.3589 30.3516C26.391 32.0114 26.3589 33.655 26.3749 35.3149C26.3749 36.3239 26.4071 36.3564 27.4204 36.3564C30.1868 36.3564 32.9371 36.3239 35.7035 36.3727C36.5398 36.3889 36.7328 36.096 36.7328 35.2986C36.7007 29.7657 36.7168 24.2328 36.7168 18.6999C36.7168 16.9099 36.9098 16.7146 38.6468 16.5518C38.679 16.5518 38.7111 16.4867 38.8398 16.324C33.1944 11.8814 27.549 7.43881 21.8233 2.91485C21.3729 3.77733 21.0191 4.54217 20.5848 5.24192C20.1988 5.84403 20.3596 6.15323 20.8904 6.54378C25.2491 9.79844 29.5756 13.0856 33.9021 16.3566C34.1434 16.5356 34.449 16.682 34.5776 16.9261C34.7063 17.1702 34.7224 17.5608 34.6098 17.7886C34.5294 17.9351 34.0951 17.9676 33.8539 17.9188C33.6448 17.8862 33.4518 17.6584 33.2588 17.512C30.5889 15.4941 27.9351 13.4925 25.2812 11.4746C24.0911 10.5958 22.933 9.73334 21.7911 8.85459ZM32.3581 6.96689C32.4385 7.82937 32.2455 8.82204 32.6476 9.24514C33.5965 10.2704 34.8189 11.0515 36.1377 12.093C36.1377 10.3355 36.1538 8.83831 36.1217 7.34117C36.1217 7.21099 35.8482 6.99943 35.7035 6.99943C34.642 6.95061 33.6126 6.96689 32.3581 6.96689Z" fill="white" stroke="white" stroke-width="0.7"/>
</svg>
