<svg width="22" height="22" viewBox="0 0 46 46" fill="none" xmlns="http://www.w3.org/2000/svg">
<path d="M21.9975 33.1781C21.4774 33.1781 21.1653 33.1781 20.8532 33.1781C16.3803 33.1781 11.9075 33.1781 7.41724 33.1781C5.28482 33.1781 4.27929 32.1726 4.27929 30.0575C4.27929 26.7115 4.27929 23.3655 4.27929 20.0022C4.27929 19.6901 4.27929 19.378 4.27929 19.066C2.84034 19.1353 0.915956 17.6444 0.638568 16.2748C0.4652 15.4773 0.863946 14.9052 1.43606 14.3851C4.97276 11.1951 8.49212 7.9878 12.0288 4.7805C13.2251 3.68828 14.4213 2.59607 15.6175 1.52119C16.9871 0.290276 17.5246 0.290276 18.8595 1.50385C20.3505 2.85612 21.8414 4.22572 23.2804 5.52598C23.6271 4.95386 23.8178 4.24306 24.3032 3.94833C24.806 3.61893 25.5515 3.65361 26.193 3.6016C26.8864 3.54959 27.5799 3.58426 28.2734 3.58426C29.5389 3.6016 30.1977 4.22572 30.1977 5.50864C30.2151 7.38101 30.1804 9.27072 30.2324 11.1431C30.2498 11.5245 30.5098 11.9059 30.7005 12.2526C30.8045 12.4433 31.0472 12.5647 31.2033 12.7381C32.3822 14.0903 33.6998 15.0265 35.6588 14.5238C36.0576 14.4197 36.647 14.6278 37.0284 14.8878C37.7046 15.3386 37.7219 16.2228 37.1151 16.9509C35.9535 18.3205 34.792 19.6728 33.5957 21.0077C33.2143 21.4411 33.093 21.8572 33.197 22.412C33.3877 23.3655 33.5611 24.3364 33.6824 25.3072C33.7344 25.7753 33.9078 25.9487 34.3932 25.9487C35.4855 25.9313 36.595 26.0007 37.6872 25.9487C37.9993 25.9313 38.3807 25.706 38.6061 25.4459C39.785 24.1457 40.9292 22.7934 42.0734 21.4585C42.5242 20.9384 43.0269 20.5916 43.7378 20.7997C44.4312 21.0077 44.7086 21.5451 44.83 22.2213C46.0782 28.9653 40.2704 34.7384 33.5437 33.4382C33.0063 33.3341 32.7116 33.4902 32.3648 33.8889C29.643 37.0615 26.8864 40.2342 24.1646 43.4068C23.0723 44.6724 21.7374 45.2618 20.0731 44.9324C16.9525 44.3083 15.6695 40.7196 17.6806 38.2404C19.0155 36.5588 20.4371 34.9811 21.9975 33.1781ZM17.2819 7.25965C17.1085 7.36367 17.0218 7.39835 16.9698 7.46769C13.3637 10.7443 9.74037 14.021 6.15166 17.315C5.96095 17.4883 5.80492 17.8004 5.80492 18.0431C5.78759 22.2039 5.78759 26.3648 5.78759 30.5082C5.78759 31.0977 6.09965 31.6005 6.67176 31.6178C8.56147 31.6698 10.4512 31.6351 12.3235 31.6351C12.3582 31.4791 12.3929 31.4271 12.3929 31.3751C12.3929 28.8266 12.3929 26.2954 12.4102 23.7469C12.4276 22.2386 13.2771 21.3544 14.7507 21.3198C16.3977 21.2851 18.0447 21.2851 19.6917 21.3198C21.1826 21.3544 22.0321 22.2386 22.0495 23.7469C22.0668 25.914 22.0495 28.0811 22.0495 30.2482C22.0495 30.6989 22.0495 31.1497 22.0495 31.5658C22.9163 31.8258 23.4537 31.5831 23.9392 30.959C24.6153 30.0575 25.3781 29.2253 26.1409 28.4105C26.4877 28.0464 26.5224 27.7344 26.349 27.2663C25.4995 24.9431 25.5342 22.6027 26.5397 20.3489C27.0078 19.3087 27.6839 18.3725 28.2907 17.2976C24.6847 14.0037 21.0093 10.6403 17.2819 7.25965ZM35.9535 15.98C35.5721 15.9454 35.3814 15.9107 35.1907 15.928C29.4696 16.0841 25.7075 21.8745 27.9093 27.1623C28.204 27.8731 28.1693 28.3758 27.6319 28.9479C26.7651 29.8668 25.9502 30.855 25.1181 31.8258C23.0203 34.253 20.9226 36.6628 18.8422 39.1073C18.0273 40.0608 17.958 41.257 18.5648 42.2452C19.1542 43.2161 20.2811 43.7709 21.3907 43.4241C22.0668 43.1987 22.7256 42.7133 23.1937 42.1932C26.0369 38.9686 28.8455 35.7093 31.6367 32.4326C32.1395 31.8432 32.5902 31.6871 33.353 31.8952C37.2018 32.9181 41.2066 30.959 42.8016 27.3183C43.4777 25.7753 43.6511 24.1803 43.287 22.3253C42.9923 22.6374 42.8016 22.8454 42.6282 23.0534C41.536 24.319 40.4611 25.6193 39.3169 26.8328C39.0048 27.1622 38.45 27.4223 37.9993 27.4396C36.4737 27.4743 34.948 27.3703 33.405 27.3703C32.7636 27.3703 32.4515 27.0929 32.3475 26.4688C32.1048 24.9258 31.8101 23.4002 31.6367 21.8572C31.5847 21.4411 31.7754 20.8863 32.0528 20.5569C33.2837 19.0486 34.5666 17.5924 35.9535 15.98ZM3.55114 17.627C3.77652 17.4363 3.98456 17.263 4.17527 17.0896C8.21473 13.4142 12.2542 9.73881 16.2937 6.08075C17.1778 5.26593 17.2819 5.26593 18.1487 6.06342C21.7027 9.28805 25.2394 12.5127 28.7935 15.7373C29.0535 15.9627 29.3136 16.1881 29.5389 16.3961C30.2671 15.9627 30.9259 15.564 31.6194 15.1652C31.498 15.0439 31.4287 14.9398 31.3593 14.8705C26.8171 10.7443 22.2922 6.63553 17.7673 2.49204C17.2819 2.04129 17.0218 2.21466 16.6231 2.57873C12.2369 6.58352 7.83332 10.571 3.41245 14.5758C1.86948 15.98 1.85214 15.98 3.32577 17.4883C3.37778 17.523 3.42979 17.5404 3.55114 17.627ZM20.5412 31.6351C20.5412 28.9133 20.5412 26.2954 20.5412 23.6776C20.5412 23.0534 20.1944 22.8107 19.605 22.8107C18.0447 22.8107 16.4844 22.8281 14.9241 22.8107C14.1786 22.7934 13.9012 23.1401 13.9012 23.8683C13.9185 25.7233 13.9012 27.561 13.9012 29.416C13.9012 30.1615 13.9012 30.8897 13.9012 31.6525C16.1723 31.6351 18.3047 31.6351 20.5412 31.6351ZM28.6548 5.14457C27.3892 5.14457 26.2276 5.14457 24.9794 5.14457C25.0314 5.89005 24.8407 6.73955 25.1874 7.1383C26.193 8.28252 27.4065 9.25338 28.6548 10.3803C28.6548 8.52524 28.6548 6.86091 28.6548 5.14457Z" fill="white" stroke="white" stroke-width="0.8"/>
<path d="M23.2822 38.9512C23.1435 39.2113 23.0568 39.4193 22.9182 39.5927C22.5194 40.0781 22.138 40.6155 21.6526 41.0143C21.4445 41.1876 20.9244 41.1877 20.6817 41.0316C20.5083 40.9276 20.439 40.3381 20.5777 40.1474C20.9938 39.5233 21.4965 38.9685 22.034 38.4484C22.19 38.3097 22.5888 38.2924 22.8141 38.3791C23.0048 38.4484 23.1262 38.7432 23.2822 38.9512Z" fill="white" stroke="white" stroke-width="0.8"/>
</svg>
