<svg width="24" height="22" viewBox="0 0 42 40" fill="none" xmlns="http://www.w3.org/2000/svg">
<path d="M19.4502 22.9594C18.0572 22.9594 16.643 22.9383 15.25 22.9594C14.4057 22.9805 14.0469 22.6006 14.0469 21.7563C14.068 19.2235 14.068 16.7117 14.0469 14.1789C14.0469 13.3769 14.4057 13.018 15.1866 13.0391C16.9807 13.0391 18.7748 13.0391 20.5478 13.0391C21.7509 13.0391 21.9831 13.2924 22.0042 14.5588C22.0253 16.374 22.0464 18.2103 21.9831 20.0255C21.962 20.8698 22.2575 21.1653 23.0595 21.0809C23.3761 21.0387 23.756 20.9753 23.9882 21.102C24.3681 21.313 24.6425 21.6719 24.9802 21.9885C24.6425 22.3051 24.3259 22.8961 23.9671 22.9172C22.4896 23.0016 20.9699 22.9594 19.4502 22.9594ZM19.9357 21.0175C19.9357 18.9491 19.9357 16.965 19.9357 15.0232C18.5637 15.0232 17.2762 15.0232 16.0309 15.0232C16.0309 17.0706 16.0309 19.0124 16.0309 21.0175C17.3395 21.0175 18.5849 21.0175 19.9357 21.0175Z" fill="white" stroke="white" stroke-width="0.3"/>
<path d="M14.9106 29.0803C14.9106 29.9879 14.8895 30.9166 14.9106 31.8242C14.9317 32.6685 14.5307 33.0695 13.7075 33.0695C11.8501 33.0695 9.99272 33.0695 8.13532 33.0695C7.37547 33.0695 6.95333 32.6685 6.95333 31.8876C6.93222 29.9879 6.93222 28.0883 6.95333 26.2098C6.95333 25.4922 7.35436 25.1122 8.07199 25.1122C9.97161 25.1122 11.8712 25.1122 13.7497 25.1122C14.5307 25.1122 14.9106 25.4711 14.8895 26.252C14.8895 27.2018 14.9106 28.1516 14.9106 29.0803ZM13.011 31.0433C13.011 29.8191 13.0321 28.7426 12.9899 27.6451C12.9899 27.4129 12.6944 27.033 12.5255 27.0119C11.3436 26.9485 10.1616 26.9908 8.93738 26.9908C8.93738 28.426 8.93738 29.6924 8.93738 31.0433C10.3093 31.0433 11.5968 31.0433 13.011 31.0433Z" fill="white" stroke="white" stroke-width="0.3"/>
<path d="M31.0378 25.0911C31.9876 25.0911 32.9374 25.1122 33.8872 25.0911C34.6049 25.07 35.0481 25.4077 35.0481 26.1253C35.0692 28.0883 35.0692 30.0512 35.0481 32.0141C35.0481 32.6684 34.6471 33.0484 33.9716 33.0484C32.0509 33.0484 30.1091 33.0484 28.1884 33.0484C27.5129 33.0484 27.133 32.6473 27.133 31.993C27.1119 30.0301 27.1119 28.0672 27.133 26.1042C27.133 25.4499 27.5129 25.0911 28.2095 25.0911C29.1382 25.1122 30.088 25.0911 31.0378 25.0911ZM29.096 31.0221C30.489 31.0221 31.7765 31.0221 33.064 31.0221C33.064 29.6502 33.064 28.3838 33.064 27.054C31.7132 27.054 30.4468 27.054 29.096 27.054C29.096 28.3838 29.096 29.6713 29.096 31.0221Z" fill="white" stroke="white" stroke-width="0.3"/>
<path d="M17.9522 36.5944C17.9522 36.7843 18.3321 37.101 18.5432 37.101C20.3372 37.1432 22.1102 37.1221 23.9676 37.1221C23.9676 33.6605 23.9676 30.3468 23.9676 27.0541C21.9203 27.0541 19.9784 27.0541 17.9311 27.0541C17.9311 30.3045 17.91 33.4495 17.9522 36.5944Z" stroke="black" stroke-width="0.3"/>
<path d="M36.7386 16.4162C35.5777 15.3819 34.3957 14.411 33.2348 13.4401C32.285 13.8411 32.0951 14.4532 32.4117 15.3397C32.6438 15.994 32.6861 16.7328 32.9182 17.366C33.1715 18.0414 32.9393 18.5058 32.475 18.949C31.293 20.1099 30.1532 21.313 28.9501 22.4316C28.6546 22.706 28.0003 22.9382 27.6837 22.7904C27.3882 22.6638 27.1561 21.9884 27.1983 21.5874C27.346 20.3421 27.6626 19.0967 27.8315 17.8514C27.8737 17.4715 27.7682 16.965 27.536 16.6483C26.5651 15.3608 25.5519 14.0944 24.5177 12.8491C23.9689 12.1948 23.99 11.6249 24.5177 10.9706C25.2775 10.063 25.9952 9.09208 26.8395 8.03674C25.0032 6.51704 23.2513 5.01846 21.4361 3.56208C21.2461 3.41433 20.634 3.49876 20.4019 3.70983C15.4628 7.82567 10.5449 11.9837 5.62704 16.1207C5.09936 16.5639 4.86719 17.0283 4.86719 17.7248C4.88829 23.8036 4.88829 29.9035 4.88829 35.9823C4.88829 36.3411 4.93051 36.721 4.97272 37.0798C8.70864 37.0798 12.3179 37.0798 16.0116 37.0798C16.0116 36.6577 16.0116 36.32 16.0116 35.9611C16.0116 32.9006 16.0116 29.8401 16.0116 26.7796C16.0116 25.2811 16.1805 25.0911 17.7213 25.0911C19.9375 25.0911 22.1537 25.0911 24.3699 25.0911C25.8263 25.0911 26.0585 25.3233 26.0585 26.8219C26.0585 29.8401 26.0585 32.8795 26.0585 35.8978C26.0585 36.2777 26.1007 36.6366 26.1218 37.0587C29.8155 37.0587 33.4248 37.0587 37.0763 37.0587C37.0974 36.8476 37.1396 36.6788 37.1396 36.5099C37.1396 30.1145 37.1396 23.698 37.1185 17.3027C37.1185 17.0283 36.9496 16.6272 36.7386 16.4162Z" stroke="black" stroke-width="0.3"/>
<path d="M39.1642 37.1432C39.1642 30.8955 39.1642 24.7745 39.1642 18.548C39.8607 18.9701 40.4728 19.2234 40.916 18.5058C41.3593 17.8093 40.8738 17.3449 40.3672 16.9017C38.2566 15.1498 36.1459 13.3979 34.0774 11.6038C33.4442 11.055 32.8954 10.9706 32.22 11.5616C29.9615 13.5246 29.9615 13.5034 30.6792 16.3318C30.7003 16.4373 30.7214 16.5428 30.7636 16.6273C31.228 17.6826 30.6581 18.2314 29.5816 18.8435C30.3837 17.1972 29.7927 16.1207 28.8218 15.0654C27.9142 14.0944 27.1543 12.9969 26.3101 11.9415C27.0699 10.9706 27.7664 10.063 28.4841 9.13432C29.4339 7.91012 29.4339 7.67795 28.2097 6.64371C26.2045 4.93405 24.1572 3.28772 22.1731 1.53585C21.3288 0.797104 20.7167 0.839318 19.8936 1.55695C17.2552 3.8365 14.5957 6.03161 11.9574 8.24783C8.51696 11.1606 5.09764 14.0733 1.61501 16.9228C0.85516 17.5349 0.791839 18.5902 1.46726 18.8224C1.86829 18.949 2.37486 18.7802 2.86031 18.738C2.86031 24.7956 2.86031 30.9166 2.86031 37.0798C2.05825 37.2276 0.939587 36.8899 1.00291 38.1563C1.08734 39.4438 2.18489 39.0217 2.90253 39.0217C15.1867 39.0428 27.4709 39.0428 39.734 39.0428V37.1432C39.5441 37.1432 39.3541 37.1432 39.1642 37.1432ZM23.9672 37.1432C22.1098 37.1432 20.3157 37.1643 18.5427 37.122C18.3317 37.122 17.9728 36.7843 17.9517 36.6155C17.9095 33.4706 17.9306 30.3045 17.9306 27.0752C19.978 27.0752 21.9409 27.0752 23.9672 27.0752C23.9672 30.3678 23.9672 33.6816 23.9672 37.1432ZM37.1168 36.5311C37.1168 36.6999 37.0746 36.8688 37.0535 37.0798C33.402 37.0798 29.7927 37.0798 26.099 37.0798C26.0779 36.6577 26.0568 36.2989 26.0357 35.919C26.0357 32.9007 26.0357 29.8613 26.0357 26.843C26.0357 25.3233 25.8246 25.1122 24.3471 25.1122C22.1309 25.1122 19.9147 25.1122 17.6985 25.1122C16.1576 25.1122 15.9888 25.2811 15.9888 26.8008C15.9888 29.8613 15.9888 32.9218 15.9888 35.9823C15.9888 36.32 15.9888 36.6788 15.9888 37.1009C12.2951 37.1009 8.68581 37.1009 4.94989 37.1009C4.92879 36.7421 4.86547 36.3833 4.86547 36.0034C4.86547 29.9246 4.86547 23.8247 4.84436 17.7459C4.84436 17.0494 5.07654 16.5851 5.60421 16.1418C10.5432 12.0049 15.44 7.8468 20.379 3.73096C20.6112 3.541 21.2233 3.43546 21.4133 3.58321C23.2285 5.03959 24.9803 6.53818 26.8166 8.10008C25.9723 9.15543 25.2758 10.1263 24.4949 11.0339C23.9672 11.6883 23.9461 12.237 24.4949 12.9125C25.5291 14.1578 26.5422 15.4031 27.5132 16.7117C27.7453 17.0283 27.872 17.5349 27.8086 17.9148C27.6398 19.1601 27.3232 20.3843 27.1754 21.6507C27.1332 22.0517 27.3654 22.7272 27.6609 22.8538C27.9775 23.0015 28.6107 22.7694 28.9273 22.495C30.1515 21.3763 31.2702 20.1732 32.4522 19.0123C32.9165 18.548 33.1487 18.1047 32.8954 17.4293C32.6421 16.775 32.621 16.0574 32.3888 15.4031C32.0722 14.5166 32.2622 13.9045 33.212 13.5034C34.3729 14.4744 35.5549 15.4453 36.7158 16.4795C36.9479 16.6695 37.0957 17.0705 37.0957 17.3871C37.1379 23.7192 37.1168 30.1357 37.1168 36.5311Z" fill="white" stroke="white" stroke-width="0.3"/>
<path d="M40.2626 37.1643C40.1149 37.0376 39.7772 37.1432 39.545 37.1432C35.1126 37.1432 30.6801 37.1432 26.2266 37.1432V39.0428C29.5403 39.0428 32.8752 39.0428 36.189 39.0428C37.5187 39.0428 38.8696 39.085 40.1993 39.0006C40.537 38.9795 41.0858 38.4518 41.0858 38.1563C41.0858 37.8186 40.6003 37.4386 40.2626 37.1643Z" fill="white" stroke="white" stroke-width="0.3"/>
</svg>
