<svg width="36" height="22" viewBox="0 0 62 33" fill="none" xmlns="http://www.w3.org/2000/svg">
<path d="M2.95402 29.1317C7.70607 26.143 12.2006 26.4442 16.4377 29.9889C22.4772 26.0967 25.8482 26.0967 30.9982 30.0121C35.8439 26.0967 40.713 26.0735 45.348 29.8267C47.0334 29.0159 48.555 28.205 50.1469 27.5331C50.4746 27.3941 51.0364 27.788 51.4812 27.9501C51.2237 28.344 51.0364 28.8769 50.6619 29.1085C49.3509 29.9658 47.923 30.6608 46.6121 31.5412C45.7928 32.0972 45.0905 32.1899 44.435 31.4717C41.2046 28.0428 35.4459 27.9501 32.0984 31.4717C31.3727 32.2362 30.6236 32.1204 29.8511 31.4485C25.895 27.927 21.5643 27.927 17.6316 31.4485C16.8122 32.1899 16.0865 32.1435 15.2672 31.4253C11.592 28.1123 7.5188 27.9965 3.51584 30.9851C3.09447 31.2863 2.27515 31.4948 1.85379 31.2863C1.43242 31.0778 1.12811 30.3364 1.05788 29.8036C0.847196 27.9501 1.22174 26.1894 2.01765 24.4286C4.89698 18.0574 7.63585 11.6399 10.4215 5.22236C11.0302 3.78595 11.8729 2.53488 13.3477 1.90934C13.7925 1.724 14.6118 1.74717 14.8459 2.02518C15.3843 2.60438 14.8225 3.09091 14.2606 3.34576C12.0134 4.45782 11.8963 6.82095 10.679 8.92924C13.8393 7.86351 16.6016 8.14153 19.2468 9.99496C19.7852 7.56233 20.2768 5.24553 20.8152 2.76656C19.8086 2.76656 18.9191 2.85923 18.0529 2.72022C17.6316 2.65072 16.9761 2.25686 16.9059 1.93251C16.7654 1.19114 17.4209 1.02896 18.0763 1.00579C19.1766 1.00579 20.2534 1.00579 21.3536 1.00579C29.0786 1.00579 36.8036 0.982624 44.5287 1.02896C45.7928 1.02896 47.0803 1.28381 48.2741 1.67766C49.7255 2.16419 50.7321 3.25309 51.3641 4.66633C54.4775 11.8252 57.6612 18.9378 60.6576 26.143C61.1726 27.4173 60.9853 29.0159 60.8682 30.4755C60.798 31.379 59.6041 31.796 58.8551 31.2168C57.4271 30.1048 55.9055 29.2475 54.103 28.8769C53.8221 28.8074 53.6348 28.205 53.4241 27.8575C53.7987 27.649 54.2435 27.2088 54.5244 27.3014C56.0694 27.7416 57.591 28.3208 59.1126 28.8537C59.5105 27.6721 59.3935 27.2783 58.3635 26.3747C55.0394 23.5251 50.1469 23.7336 46.893 26.8612C45.6055 28.0891 45.6055 28.0891 44.3414 26.8381C40.9002 23.4787 35.5864 23.5482 32.192 27.0003C31.1386 28.066 30.9982 28.066 29.9682 27.0466C26.3866 23.4556 21.1195 23.4787 17.5847 27.0929C16.6016 28.0891 16.4377 28.0891 15.4311 27.0698C12.3411 23.8957 7.49539 23.5251 4.05425 26.1199C3.02425 26.9076 2.55606 27.7648 2.95402 29.1317ZM15.9929 25.031C16.3675 23.3165 16.7654 21.6485 17.0697 19.9804C17.1166 19.7255 16.8591 19.3317 16.625 19.1463C15.0097 17.7099 13.0668 16.9917 10.9365 17.316C6.4888 17.9647 5.78653 19.6097 4.47561 23.7336C9.36812 22.0423 10.9834 22.2045 15.9929 25.031ZM57.7548 23.5946C57.0291 22.1581 56.5844 20.5132 55.5544 19.3548C53.0964 16.5515 48.1337 16.5515 45.4182 19.1231C45.1841 19.3317 44.9266 19.7255 44.9734 19.9804C45.2778 21.6716 45.6757 23.3397 46.0503 25.0541C50.8959 22.2277 53.0964 21.9728 57.7548 23.5946ZM44.1073 24.4054C43.7796 22.9227 43.5455 21.6716 43.2177 20.4437C43.0773 19.9572 42.8198 19.4243 42.4452 19.1C39.7298 16.621 35.2586 16.621 32.5198 19.0768C32.2857 19.2853 31.9814 19.5402 31.9814 19.7718C31.9345 21.3936 31.958 23.0154 31.958 24.7761C35.9843 22.1118 39.8937 21.9728 44.1073 24.4054ZM17.9593 24.3591C22.1729 21.9496 26.1525 22.135 30.1086 24.753C30.1086 23.108 30.1554 21.6253 30.0852 20.1657C30.0618 19.7718 29.7809 19.3085 29.4532 19.0305C26.7377 16.621 22.3368 16.6442 19.6213 19.0536C19.317 19.3317 18.9893 19.6792 18.8956 20.0499C18.5679 21.4168 18.3104 22.7605 17.9593 24.3591ZM17.6316 17.5709C17.9125 16.2271 18.17 15.0688 18.4275 13.8872C18.8956 11.7326 18.6616 11.1997 16.5781 10.5047C15.5715 10.1571 14.4011 9.94863 13.3945 10.1108C9.57881 10.7363 9.11062 12.1728 7.7763 16.2735C11.2409 14.9297 14.4947 15.3004 17.6316 17.5709ZM54.6414 16.4125C53.7987 14.6749 53.3305 13.0763 52.3707 11.8947C50.4044 9.48527 46.0034 9.41576 43.7093 11.5936C43.4987 11.8021 43.288 12.1959 43.3348 12.4508C43.6625 14.142 44.0605 15.8101 44.4584 17.5941C47.5718 15.3004 50.8257 14.9297 54.6414 16.4125ZM19.5979 16.8527C23.2497 14.9066 26.6909 15.0919 30.1086 17.2002C30.1086 15.5321 30.1554 14.0725 30.0852 12.6129C30.0618 12.2423 29.8277 11.8021 29.5468 11.5472C27.2527 9.48527 23.5307 9.50844 21.1897 11.5472C20.9322 11.7789 20.6279 12.0569 20.5577 12.3581C20.23 13.7713 19.9491 15.2078 19.5979 16.8527ZM42.4218 16.8063C42.1877 15.6479 41.8834 14.6749 41.7898 13.7018C41.6259 11.8947 40.4789 10.9912 38.9339 10.4352C36.6164 9.60111 34.4861 9.9718 32.5666 11.4777C32.3091 11.6862 31.9814 12.0106 31.9814 12.2654C31.9345 13.864 31.958 15.4626 31.958 17.2234C35.4225 15.0224 38.8168 14.9761 42.4218 16.8063ZM30.0618 2.83606C27.5336 2.83606 25.0991 2.83606 22.6411 2.83606C22.1729 4.96751 21.7282 7.0758 21.2366 9.34626C24.3266 7.81718 27.1825 7.97935 30.0618 9.64745C30.0618 7.33065 30.0618 5.15286 30.0618 2.83606ZM40.83 9.34626C40.315 7.02946 39.8702 4.92118 39.4021 2.83606C36.8505 2.83606 34.4627 2.83606 32.0048 2.83606C32.0048 5.10652 32.0048 7.30748 32.0048 9.64745C34.8607 7.95618 37.74 7.86351 40.83 9.34626ZM42.7027 9.71695C44.1775 9.23042 45.4884 8.58172 46.8696 8.39637C48.2507 8.2342 49.6787 8.53538 51.0598 8.62805C49.07 3.04457 48.3678 2.44221 41.228 2.8824C41.743 5.22236 42.2346 7.53916 42.7027 9.71695Z" fill="white" stroke="white" stroke-width="0.6"/>
</svg>
