<svg width="22" height="22" viewBox="0 0 46 46" fill="none" xmlns="http://www.w3.org/2000/svg">
<path d="M30.8034 17.7659C30.8034 16.6584 30.838 15.6894 30.7861 14.7203C30.7515 13.8897 31.1149 13.5782 31.9109 13.6128C32.7069 13.6474 33.5203 13.6128 34.472 13.6128C34.472 12.1246 34.4893 10.6883 34.4547 9.26935C34.4547 9.0963 34.1432 8.90595 33.9529 8.78482C32.5166 7.9888 31.9109 6.63904 32.5512 5.13353C33.105 3.85299 33.8491 2.64166 34.5759 1.43033C34.9219 0.841975 35.4757 0.841975 35.8218 1.41303C36.5659 2.67627 37.3273 3.93951 37.8983 5.27197C38.4694 6.62173 37.8637 8.04071 36.5313 8.68099C35.9775 8.94056 35.8564 9.26935 35.8737 9.80579C35.9083 10.7056 35.891 11.6228 35.891 12.7476C36.5486 12.1938 37.0504 11.8131 37.483 11.3632C37.6215 11.2248 37.6388 10.9133 37.5869 10.7056C37.1889 8.7156 38.1579 7.21009 40.1653 7.01974C41.4977 6.89861 42.8648 7.01974 44.2146 7.08896C44.924 7.12357 45.2009 7.64271 44.8375 8.24837C44.0588 9.49431 43.2801 10.7402 42.3629 11.8823C41.6881 12.7476 40.6844 12.9379 39.6115 12.6438C39.2654 12.5399 38.8328 12.2284 38.5905 12.3496C38.106 12.5918 37.708 13.0418 37.3446 13.5782C37.708 13.5782 38.0714 13.5782 38.4348 13.5782C39.4212 13.5955 39.5942 13.7513 39.5942 14.7376C39.5942 17.5064 39.6634 20.2751 39.5596 23.0439C39.525 24.1514 39.8192 24.8782 40.7536 25.4665C41.5842 25.9856 42.3283 26.6259 43.0897 27.2489C44.2665 28.2006 44.5087 29.585 43.7127 30.6752C42.8821 31.7827 41.4458 31.9211 40.1826 30.9521C34.5585 26.6432 28.9345 22.3171 23.3105 17.9909C23.0856 17.8178 22.8433 17.6448 22.5837 17.4545C19.815 19.5829 17.0462 21.7114 14.2948 23.8226C11.2319 26.176 8.16894 28.5294 5.10601 30.8829C3.99852 31.7308 3.01215 31.8346 2.0777 31.229C0.779848 30.381 0.606802 28.5294 1.81813 27.5085C3.27172 26.2798 4.79453 25.1377 6.33464 24.0302C6.55961 23.8572 7.04414 24.0302 7.39023 24.0475C7.32101 24.3936 7.35562 24.8782 7.13066 25.0685C5.93664 26.0722 4.6907 26.9893 3.44477 27.9411C3.2025 28.1314 2.8391 28.2872 2.73528 28.5467C2.57953 28.9274 2.4584 29.4466 2.59684 29.7754C2.8218 30.2772 3.39285 30.3464 3.86008 30.0349C4.58687 29.5331 5.29637 28.962 6.00586 28.4256C11.1453 24.4801 16.2848 20.5174 21.4243 16.5546C22.5664 15.6721 22.5664 15.6721 23.6912 16.5373C29.3325 20.8808 34.9739 25.2242 40.6152 29.5677C41.6015 30.3291 42.1207 30.3983 42.5533 29.8273C42.9686 29.2735 42.7437 28.7717 41.7746 28.0276C40.7882 27.2662 39.8192 26.5048 38.8155 25.7607C38.331 25.3973 38.1406 24.982 38.1406 24.3763C38.1752 21.6076 38.1579 18.8388 38.1579 16.0701C38.1579 15.7586 38.1579 15.4471 38.1579 15.0664C36.1506 15.0664 34.2125 15.0664 32.1359 15.0664C32.1359 16.2085 32.1705 17.3852 32.1186 18.5446C32.1013 18.96 31.8763 19.3753 31.7552 19.7906C31.3572 19.6521 30.8727 19.6002 30.5439 19.358C28.2423 17.6275 25.9581 15.8624 23.6739 14.0973C22.6356 13.3013 22.4972 13.284 21.4243 14.1147C17.8769 16.918 14.2775 19.7041 10.6608 22.4728C10.3839 22.6805 10.1417 22.9746 9.83019 23.0612C9.55331 23.1477 9.06878 23.0958 8.94765 22.9054C8.80921 22.7151 8.93034 22.2825 9.05148 22.0056C9.1207 21.8152 9.38027 21.7114 9.57062 21.5557C13.2911 18.6831 17.0116 15.8278 20.7494 12.9552C22.2203 11.8304 23.0683 11.8304 24.5391 12.9552C26.3734 14.3569 28.1904 15.7586 30.0247 17.1776C30.2151 17.3506 30.4573 17.5064 30.8034 17.7659ZM39.8538 11.1209C39.9403 11.2248 40.0268 11.3286 40.1133 11.4324C41.913 11.3459 42.2072 9.65005 43.1417 8.54255C40.5979 8.05802 38.6078 8.38681 38.9712 10.1173C39.2308 9.90962 39.4385 9.73657 39.6461 9.56353C40.0095 9.25204 40.4248 8.94056 40.8401 9.42509C41.2901 9.92692 40.9267 10.3249 40.5287 10.6537C40.321 10.8095 40.0787 10.9652 39.8538 11.1209ZM35.891 7.50427C37.0677 6.46599 36.687 4.68361 35.1642 3.1608C33.7279 5.25466 33.1569 6.74287 34.5066 7.36583C34.5066 7.01974 34.4893 6.70826 34.5066 6.41408C34.5239 5.94685 34.6105 5.51423 35.1988 5.51423C35.7872 5.49693 35.891 5.92955 35.891 6.39677C35.891 6.70826 35.891 7.01974 35.891 7.50427Z" fill="white" stroke="white" stroke-width="0.6"/>
<path d="M32.9146 35.0532C32.8973 40.7638 28.2596 45.3668 22.5491 45.3322C16.9078 45.2976 12.2874 40.6253 12.3047 34.984C12.322 29.2908 16.9943 24.6878 22.6875 24.7224C28.3635 24.757 32.9319 29.3773 32.9146 35.0532ZM29.1422 28.6851C28.225 29.6369 27.4636 30.3464 26.7887 31.1424C26.5292 31.4539 26.3907 31.9211 26.3042 32.3364C26.0273 33.7381 25.8197 35.1571 25.5255 36.5588C25.4736 36.801 25.1448 37.1298 24.9025 37.1471C24.6776 37.1817 24.3661 36.9048 24.1757 36.6972C23.9681 36.4722 23.8816 36.1434 23.7258 35.8666C23.2413 34.9321 22.9471 33.8765 21.8569 33.392C20.8532 32.9421 20.2649 32.1461 20.0399 31.0386C19.988 30.779 19.763 30.3983 19.5381 30.3291C18.396 29.983 17.3058 29.6196 16.8905 28.2698C16.7866 28.2698 16.7001 28.2525 16.5963 28.2525C15.7657 29.4811 14.9177 30.7271 14.1563 31.8519C14.6582 32.2499 15.0735 32.4056 15.2465 32.7171C16.3021 34.6206 17.8422 35.5551 20.0399 35.7973C21.5627 35.9531 22.2376 37.5105 23.2413 38.5142C23.2932 38.5661 23.3278 38.6872 23.2932 38.7564C22.8952 39.8466 22.9125 41.1099 21.8569 41.8886C21.1993 42.3731 20.5764 42.9096 19.8842 43.4633C23.3451 44.7958 28.1558 43.1864 29.7132 40.2619C29.5056 39.9505 29.3325 39.6044 29.073 39.3448C27.9135 38.1162 27.7751 36.7491 28.2077 35.1398C28.8999 32.5787 28.225 33.1151 30.8553 32.5268C30.9246 32.5095 30.9938 32.4575 31.2533 32.3364C30.5785 31.1597 29.9036 30.0003 29.1422 28.6851ZM24.4872 34.2918C24.591 34.2572 24.6949 34.2226 24.7987 34.188C24.8333 33.4266 24.9198 32.6652 24.8852 31.9038C24.8679 31.2808 25.0583 30.8136 25.5082 30.3983C26.3561 29.6196 27.1348 28.789 27.9655 27.9929C25.439 25.7087 20.5245 25.5011 18.0845 27.4738C18.3095 28.2871 18.8632 28.737 19.6592 28.8582C20.6629 29.0312 21.1647 29.6196 21.4243 30.5886C21.5454 31.0559 21.805 31.575 22.1684 31.8692C23.0336 32.5787 24.1584 33.0113 24.4872 34.2918ZM13.568 35.0359C13.8449 38.2373 15.16 40.7811 17.8422 42.5116C18.0672 42.65 18.5344 42.6846 18.7248 42.5462C19.5208 41.9924 20.2822 41.3521 21.0263 40.7292C21.5454 40.2793 21.8915 38.9987 21.58 38.6699C20.7494 37.8047 19.988 36.8702 18.6036 36.8356C16.9597 36.8183 15.7311 36.0569 14.935 34.586C14.7447 34.2399 14.364 34.015 14.0525 33.7381C13.8968 34.1707 13.7237 34.6033 13.568 35.0359ZM30.5958 38.9468C31.4264 37.3548 31.6514 35.6935 31.4091 33.7554C30.8207 33.9804 30.0766 34.0323 29.8517 34.3957C29.0037 35.9012 29.2979 37.4586 30.5958 38.9468Z" fill="white" stroke="white" stroke-width="0.6"/>
</svg>
