<svg width="28" height="26" viewBox="0 0 28 26" fill="none" xmlns="http://www.w3.org/2000/svg">
<path d="M14.0007 25.9782C9.71671 25.9782 5.44369 25.9782 1.15974 25.9782C0.973952 25.9782 0.799097 25.9782 0.613314 25.9782C0.230818 25.9672 -0.0205362 25.781 0.00132065 25.3756C0.0122491 25.0032 0.252675 24.8498 0.613314 24.8169C1.42202 24.7512 1.42202 24.7402 1.42202 23.9077C1.42202 21.8043 1.42202 19.7119 1.42202 17.6085C1.42202 16.7431 1.61873 16.5459 2.48208 16.5349C3.49842 16.524 4.5257 16.524 5.54204 16.5349C6.40539 16.5459 6.6021 16.7431 6.6021 17.6085C6.6021 19.7995 6.62396 21.9905 6.59117 24.1815C6.58025 24.8169 6.88624 24.8279 7.35617 24.8388C7.8698 24.8498 8.0993 24.7622 8.0993 24.1596C8.07744 20.3582 8.08837 16.5678 8.08837 12.7664C8.08837 11.7147 8.23044 11.5833 9.2905 11.5833C10.3068 11.5833 11.3341 11.5833 12.3505 11.5833C13.0499 11.5833 13.2575 11.8024 13.2685 12.5035C13.2794 13.6866 13.2685 14.8807 13.2685 16.0639C13.2685 16.5021 13.1701 16.9184 12.6455 16.9293C12.121 16.9293 12.0226 16.513 12.0226 16.0748C12.0226 15.1765 12.0008 14.2891 12.0226 13.3908C12.0335 12.9526 11.8587 12.8102 11.4434 12.8321C10.9188 12.854 10.3833 12.854 9.85878 12.8321C9.45443 12.8102 9.32329 12.9855 9.32329 13.3799C9.33421 15.0231 9.33421 16.6664 9.32329 18.3096C9.32329 20.0296 9.32329 21.7386 9.32329 23.4585C9.32329 24.8279 9.32329 24.8279 10.7112 24.8279C10.9844 24.8279 11.2576 24.8169 11.5308 24.8279C11.8915 24.8498 12.0117 24.6855 12.0117 24.3459C12.0008 23.5242 12.0117 22.7026 12.0117 21.881C12.0117 21.7167 12.0117 21.5523 12.0226 21.388C12.0554 20.9936 12.2193 20.6978 12.6455 20.6978C13.0717 20.6978 13.2466 21.0046 13.2575 21.399C13.2685 22.2754 13.2575 23.1518 13.2685 24.0282C13.2685 24.2801 13.1264 24.6526 13.4215 24.7731C13.7712 24.9155 14.1864 24.8827 14.5471 24.795C14.8203 24.7293 14.7329 24.4335 14.7329 24.2254C14.7438 22.0563 14.7329 19.8762 14.7329 17.7071C14.7329 16.7321 14.9077 16.5568 15.8694 16.5459C16.8748 16.5349 17.8693 16.5349 18.8747 16.5459C19.7162 16.5568 19.9129 16.765 19.9129 17.5866C19.9129 19.7776 19.913 21.9686 19.9239 24.1596C19.9239 24.3787 19.8146 24.7074 20.1097 24.7841C20.4922 24.8827 20.9184 24.9265 21.279 24.7512C21.4976 24.6526 21.3992 24.3568 21.3992 24.1377C21.3992 20.3801 21.3992 16.6116 21.3992 12.854C21.3992 12.6678 21.3992 12.4925 21.4101 12.3063C21.4429 11.8462 21.6943 11.5942 22.1424 11.5942C23.3773 11.5833 24.6231 11.5833 25.858 11.5942C26.2952 11.5942 26.5247 11.8462 26.5684 12.2734C26.5902 12.4706 26.5793 12.6788 26.5793 12.8759C26.5793 16.6335 26.5902 20.4021 26.5684 24.1596C26.5684 24.6197 26.6339 24.9046 27.1913 24.8388C27.6066 24.795 28 24.8936 28 25.4085C28 25.9672 27.5738 26.0001 27.1476 26.0001C23.4319 26.0001 19.7162 26.0001 16.0006 26.0001C15.3558 25.9782 14.6782 25.9782 14.0007 25.9782ZM22.6669 18.7698C22.6669 20.5773 22.6778 22.3849 22.656 24.1925C22.6451 24.6745 22.809 24.8388 23.2898 24.806C23.8144 24.7731 24.3499 24.7841 24.8745 24.806C25.2242 24.8169 25.3662 24.6855 25.3553 24.324C25.3444 23.6995 25.3553 23.086 25.3553 22.4616C25.3553 19.449 25.3444 16.4363 25.3662 13.4237C25.3662 12.9417 25.2132 12.7664 24.7433 12.7993C24.2734 12.8321 23.7925 12.8321 23.3226 12.7993C22.8199 12.7664 22.656 12.9526 22.6669 13.4566C22.6888 15.2313 22.6669 16.995 22.6669 18.7698ZM2.67879 21.2346C2.67879 22.2535 2.68972 23.2723 2.67879 24.302C2.66786 24.6745 2.80993 24.8279 3.19243 24.8169C3.76071 24.795 4.31806 24.795 4.88634 24.8169C5.23605 24.8279 5.37812 24.7074 5.37812 24.3459C5.35626 22.2863 5.35626 20.2487 5.35626 18.2001C5.35626 17.8714 5.23605 17.74 4.90819 17.7509C4.36177 17.7619 3.81535 17.7728 3.26893 17.7509C2.83179 17.729 2.646 17.8714 2.66786 18.3316C2.68972 19.2956 2.67879 20.2596 2.67879 21.2346ZM18.689 21.3004C18.689 20.2815 18.678 19.2627 18.689 18.233C18.689 17.8933 18.5797 17.729 18.219 17.74C17.6398 17.7619 17.0497 17.7509 16.4705 17.74C16.1536 17.729 16.0006 17.8386 16.0006 18.1782C16.0115 20.2377 16.0115 22.2973 16.0006 24.3568C16.0006 24.6964 16.1645 24.795 16.4705 24.7841C17.0388 24.7731 17.5961 24.7622 18.1644 24.7841C18.5797 24.806 18.6999 24.6307 18.689 24.2363C18.678 23.2723 18.689 22.2863 18.689 21.3004Z" fill="#FE5D14"/>
<path d="M24.4393 0.0475463C25.1277 0.0694564 25.9146 0.584343 26.3627 1.5703C26.7998 2.54529 26.6359 3.47647 25.9583 4.27619C25.2589 5.10877 24.3081 5.37169 23.2918 5.04304C22.7672 4.87872 22.4721 4.97731 22.1224 5.34978C21.4011 6.12759 20.6471 6.86157 19.893 7.59556C19.6745 7.81466 19.6307 8.01185 19.7291 8.31859C20.2646 9.8523 19.4777 11.386 17.9915 11.7585C16.4943 12.1419 15.0517 11.1559 14.7894 9.57842C14.7129 9.12927 14.8004 8.70202 14.9752 8.29668C15.0954 8.01185 15.0408 7.82562 14.8332 7.61747C13.9917 6.78489 13.1502 5.94135 12.3196 5.09782C12.1338 4.91158 11.9699 4.83489 11.6967 4.94445C11.0301 5.22928 10.3416 5.22928 9.67492 4.94445C9.41264 4.83489 9.23779 4.88967 9.052 5.08686C8.22144 5.9304 7.39088 6.77393 6.53846 7.60652C6.30896 7.83657 6.28711 8.04472 6.40732 8.3405C6.8226 9.37028 6.58217 10.2905 5.84997 11.0683C5.09591 11.8571 4.14513 12.0433 3.13971 11.6818C2.11244 11.3203 1.57695 10.5206 1.4458 9.45792C1.23816 7.70511 3.07414 6.24809 4.80084 6.82871C5.28169 6.99304 5.5549 6.88349 5.87183 6.54388C6.58217 5.78798 7.32531 5.054 8.06844 4.33096C8.33073 4.079 8.42908 3.84894 8.28701 3.47647C7.88266 2.45765 8.12309 1.52648 8.87715 0.759623C9.62028 -0.0072288 10.5601 -0.171554 11.5437 0.168052C12.571 0.518613 13.1065 1.31833 13.2485 2.38097C13.3032 2.7863 13.2048 3.18069 13.0518 3.55316C12.9316 3.83799 12.9862 4.02422 13.1939 4.23237C14.0354 5.06495 14.8769 5.90849 15.7074 6.75203C15.8932 6.93826 16.0681 7.01495 16.3303 6.9054C16.997 6.62056 17.6855 6.62056 18.3521 6.9054C18.6144 7.01495 18.7892 6.96017 18.975 6.76298C19.8056 5.91944 20.6362 5.07591 21.4886 4.24332C21.7509 3.99136 21.7071 3.7613 21.5979 3.46552C20.9859 1.75653 22.2099 0.0365913 24.4393 0.0475463ZM9.34707 2.57816C9.33614 3.33406 9.92628 3.94754 10.6694 3.96945C11.4016 3.99136 12.0136 3.36692 12.0245 2.62198C12.0355 1.86608 11.4453 1.2526 10.7131 1.23069C9.96999 1.20878 9.358 1.83322 9.34707 2.57816ZM22.6798 2.57816C22.6688 3.33406 23.259 3.94754 23.9912 3.96945C24.7234 3.9804 25.3463 3.36692 25.3463 2.62198C25.3572 1.86608 24.7671 1.2526 24.024 1.23069C23.3027 1.21973 22.6798 1.83322 22.6798 2.57816ZM18.68 9.26073C18.669 8.51578 18.0461 7.89135 17.3139 7.91326C16.5708 7.93517 15.9916 8.54865 16.0025 9.30455C16.0134 10.0495 16.6363 10.663 17.3576 10.652C18.1117 10.6301 18.6909 10.0166 18.68 9.26073ZM5.35819 9.30455C5.36912 8.54865 4.77898 7.92421 4.03585 7.9023C3.30364 7.89135 2.68072 8.51578 2.68072 9.26073C2.68072 10.0166 3.28178 10.6192 4.03585 10.6192C4.76805 10.6192 5.34726 10.0495 5.35819 9.30455Z" fill="#FE5D14"/>
<path d="M12.6799 18.189C13.0296 18.2437 13.2591 18.4519 13.2372 18.8134C13.2154 19.164 12.9859 19.394 12.6253 19.3721C12.2646 19.3502 12.046 19.1201 12.0679 18.7586C12.0788 18.4081 12.3193 18.2109 12.6799 18.189Z" fill="#FE5D14"/>
</svg>
