<svg width="27" height="26" viewBox="0 0 27 26" fill="none" xmlns="http://www.w3.org/2000/svg">
<path d="M13.6668 5.6369C13.5249 5.37367 13.3931 5.08008 13.018 5.08008C12.6429 5.08008 12.5111 5.36355 12.359 5.62677C10.7876 8.49186 9.22638 11.3671 7.63471 14.2322C7.40153 14.6574 7.37112 15.0319 7.54346 15.4774C8.05037 16.7631 8.51672 18.059 9.02362 19.3549C9.14527 19.6687 9.16555 19.8712 8.87155 20.1344C8.12133 20.833 8.23285 21.9568 9.07431 22.5338C9.3379 22.716 9.419 22.8983 9.419 23.202C9.39873 23.8398 9.40886 24.4877 9.419 25.1256C9.419 25.8747 9.54066 25.9962 10.3111 25.9962C11.2033 25.9962 12.1056 25.9962 12.9977 25.9962C13.9608 25.9962 14.924 26.0063 15.8871 25.9962C16.4142 25.9861 16.5765 25.8241 16.5866 25.2875C16.5967 24.5991 16.5967 23.9006 16.5866 23.2121C16.5765 22.9185 16.6474 22.7262 16.911 22.5439C17.7829 21.9466 17.8741 20.8229 17.0935 20.1041C16.8299 19.8611 16.8502 19.689 16.9516 19.4055C17.4585 18.0894 17.9552 16.753 18.4621 15.4369C18.6041 15.0724 18.6446 14.7485 18.4419 14.3739C16.8502 11.4683 15.2585 8.5526 13.6668 5.6369ZM15.1064 24.913C14.3968 24.9028 13.6871 24.913 12.9876 24.913C12.3286 24.913 11.6696 24.9028 11.0208 24.9231C10.666 24.9332 10.4835 24.832 10.5139 24.4371C10.5443 24.0524 10.5342 23.6677 10.5139 23.2729C10.5038 22.9793 10.6052 22.8375 10.9194 22.8375C12.3185 22.8477 13.7175 22.8477 15.1166 22.8375C15.3802 22.8375 15.5221 22.9287 15.5221 23.2222C15.512 23.6576 15.512 24.0929 15.5221 24.5384C15.5221 24.832 15.3802 24.9231 15.1064 24.913ZM15.8262 21.6935C13.9507 21.6935 12.0853 21.6935 10.2098 21.6935C9.88535 21.6935 9.5508 21.653 9.56094 21.2481C9.57107 20.8735 9.88535 20.833 10.1895 20.833C11.1323 20.833 12.0752 20.833 13.018 20.833C13.9406 20.833 14.8733 20.833 15.7958 20.833C16.1202 20.833 16.4548 20.8735 16.4447 21.2784C16.4548 21.6429 16.1405 21.6935 15.8262 21.6935ZM17.1341 15.7912C16.688 16.9758 16.2419 18.1603 15.7958 19.3448C15.7147 19.5574 15.5728 19.6687 15.3396 19.6687C13.7986 19.6687 12.2678 19.6687 10.7268 19.6687C10.4734 19.6687 10.3213 19.5574 10.23 19.3245C9.79411 18.1603 9.35817 16.9859 8.9121 15.8216C8.81072 15.5483 8.90196 15.447 9.17569 15.4572C9.42914 15.4673 9.68259 15.4673 9.93604 15.447C10.2807 15.4167 10.5139 15.2344 10.5038 14.87C10.4936 14.5258 10.2605 14.3739 9.94618 14.3233C9.86508 14.3131 9.77383 14.3131 9.69273 14.3131C8.93238 14.2929 8.92224 14.2929 9.29735 13.5943C10.3213 11.7113 11.3554 9.83835 12.3793 7.95529C12.4097 7.95529 12.4401 7.95529 12.4604 7.95529C12.4604 9.67636 12.4604 11.3873 12.4604 13.1084C12.4604 13.3817 12.2779 13.4729 12.0954 13.6045C11.5379 13.9993 11.3148 14.6472 11.4872 15.3053C11.6494 15.9127 12.2272 16.3886 12.8862 16.4594C13.4742 16.5202 14.1332 16.1355 14.4171 15.5685C14.7617 14.87 14.5489 14.0499 13.8899 13.6045C13.6567 13.4425 13.5452 13.2805 13.5452 12.9869C13.5553 11.3164 13.5553 9.64599 13.5553 7.81355C13.7682 8.19826 13.9203 8.46149 14.0622 8.72471C15.0051 10.4458 15.9378 12.1669 16.8806 13.8677C17.0935 14.2423 16.9921 14.3233 16.6069 14.303C16.4041 14.2929 16.2014 14.2929 15.9986 14.3334C15.7046 14.384 15.512 14.5662 15.512 14.8902C15.512 15.2142 15.7147 15.3964 16.0087 15.4369C16.2926 15.4774 16.5765 15.4673 16.8705 15.4673C17.1341 15.4572 17.2253 15.5381 17.1341 15.7912Z" fill="#FE5D14"/>
<path d="M22.7295 2.11353C22.9829 2.10341 23.064 2.29577 23.1857 2.45775C23.6318 3.05506 24.311 3.27779 24.9801 3.04494C25.6188 2.82221 26.0243 2.26539 26.0345 1.58709C26.0446 0.888533 25.629 0.311466 24.97 0.0887382C24.3414 -0.123865 23.652 0.0786142 23.2465 0.615185C23.0843 0.827789 22.9627 1.04039 22.6281 1.04039C20.0936 1.02014 17.5591 1.03027 15.0246 1.04039C14.7002 1.04039 14.5785 0.929029 14.5785 0.594937C14.5785 0.200102 14.3352 0.0279944 13.9601 0.0178704C13.3315 0.0178704 12.7131 0.0178704 12.0845 0.0178704C11.7297 0.0178704 11.4763 0.200102 11.4965 0.564565C11.5168 1.02014 11.2532 1.03027 10.9187 1.03027C8.46526 1.02014 6.022 1.02014 3.56859 1.03027C3.25431 1.03027 3.05155 0.9594 2.85893 0.675929C2.44327 0.0684903 1.7336 -0.144113 1.07463 0.0988622C0.405522 0.32159 0 0.878409 0 1.55672C0 2.24515 0.395384 2.80196 1.03408 3.03482C1.67278 3.26767 2.38244 3.06519 2.7981 2.50837C2.96031 2.28564 3.0921 2.09329 3.42666 2.09329C4.82571 2.11353 6.22476 2.10341 7.63394 2.10341C7.64408 2.13378 7.65422 2.15403 7.65422 2.1844C7.41091 2.30589 7.17773 2.42738 6.93442 2.55899C6.33628 2.88296 5.76854 3.2373 5.2515 3.68275C4.96764 3.9156 4.86626 4.2092 5.10957 4.52304C5.34275 4.81664 5.63675 4.77614 5.92062 4.58379C6.03213 4.51292 6.14365 4.4218 6.24503 4.34081C7.63394 3.29804 9.21548 2.68048 10.9085 2.33626C11.1924 2.27552 11.4458 2.25527 11.4763 2.67035C11.4965 2.96395 11.7196 3.10568 12.0136 3.11581C12.6928 3.12593 13.3619 3.12593 14.0412 3.11581C14.2845 3.11581 14.5075 2.9842 14.5278 2.75134C14.5785 2.2249 14.8826 2.29577 15.2375 2.36663C16.9508 2.72097 18.5222 3.37903 19.9111 4.45217C20.0328 4.54329 20.1544 4.63441 20.2964 4.69515C20.5194 4.78626 20.7323 4.74577 20.8945 4.55341C21.0668 4.35093 21.1074 4.11808 20.9452 3.90548C20.8337 3.76374 20.6917 3.63213 20.5498 3.52077C19.8807 2.9842 19.1203 2.58936 18.3701 2.16415C19.6577 2.12366 20.9351 2.12366 22.2124 2.12366C22.3848 2.11353 22.5571 2.11353 22.7295 2.11353ZM12.997 2.04267C12.632 2.04267 12.5306 1.90093 12.5408 1.55672C12.5408 1.2125 12.6421 1.04039 13.0071 1.10114C13.3518 1.05052 13.4937 1.18213 13.4937 1.54659C13.4937 1.92118 13.3721 2.04267 12.997 2.04267Z" fill="#FE5D14"/>
<path d="M3.20362 6.82131C2.84879 6.62895 2.5852 6.80106 2.41285 7.12503C1.79443 8.23866 1.38891 9.43329 1.16587 10.6887C1.11518 11.0025 1.0138 11.1746 0.658973 11.1544C0.223037 11.124 0 11.3568 0 11.8023C0 12.4097 0 13.0172 0 13.6246C0 14.0701 0.233175 14.2624 0.669111 14.2624C0.952976 14.2624 1.24698 14.2624 1.53084 14.2624C1.83499 14.2624 2.13913 14.2624 2.44327 14.2624C2.8792 14.2624 3.11238 14.0701 3.11238 13.6246C3.11238 12.9969 3.11238 12.3794 3.11238 11.7517C3.11238 11.4682 2.99072 11.2151 2.70686 11.1847C2.22023 11.1442 2.2912 10.8709 2.35203 10.5469C2.52437 9.66614 2.82851 8.82585 3.21376 8.01594C3.27459 7.89445 3.33541 7.77296 3.39624 7.65147C3.55845 7.3275 3.55845 7.01366 3.20362 6.82131ZM1.53084 13.1792C1.16587 13.1792 1.07463 13.0273 1.07463 12.6932C1.07463 12.349 1.17601 12.1668 1.52071 12.2478C1.89581 12.187 2.01747 12.3288 2.02761 12.6932C2.03775 13.0678 1.90595 13.1792 1.53084 13.1792Z" fill="#FE5D14"/>
<path d="M26.0245 12.703C26.0245 12.379 26.0245 12.0652 26.0245 11.7412C26.0245 11.4375 25.8724 11.154 25.5683 11.1743C24.9397 11.2249 24.8789 10.8503 24.7978 10.3846C24.5849 9.23045 24.1794 8.14719 23.6116 7.11454C23.4291 6.79057 23.1757 6.62859 22.8209 6.82095C22.4964 7.00318 22.466 7.28665 22.608 7.60049C22.6688 7.74223 22.7398 7.87384 22.8107 8.00545C23.2162 8.82549 23.5102 9.68603 23.6826 10.5871C23.7434 10.8807 23.784 11.1135 23.3683 11.154C23.054 11.1844 22.9222 11.4274 22.9222 11.7311C22.9222 12.3588 22.9222 12.9763 22.9222 13.604C22.9222 14.0191 23.125 14.2317 23.5407 14.2317C24.1692 14.2317 24.7876 14.2317 25.4162 14.2317C25.8319 14.2317 26.0245 13.9988 26.0346 13.5939C26.0245 13.3104 26.0245 13.0067 26.0245 12.703ZM24.4227 13.1687C24.0273 13.2294 24.007 12.9864 23.9867 12.6726C23.9665 12.2373 24.2098 12.2373 24.5342 12.2271C24.9498 12.217 24.9296 12.4701 24.9397 12.7536C24.96 13.1586 24.7369 13.1991 24.4227 13.1687Z" fill="#FE5D14"/>
</svg>
