<svg width="27" height="26" viewBox="0 0 27 26" fill="none" xmlns="http://www.w3.org/2000/svg">
<path d="M12.6632 11.3421H7.19658C6.51832 11.3421 6.38672 11.2105 6.38672 10.5524V4.8834C6.38672 4.19501 6.54869 4.03304 7.25732 4.02292C8.19879 4.01279 9.15038 4.01279 10.0918 4.02292C10.4259 4.02292 10.6588 3.92168 10.8815 3.6686C11.0996 3.41801 11.3304 3.17806 11.5614 2.93802C11.8343 2.65441 12.1073 2.37067 12.3595 2.06912C13.1896 1.07704 14.2525 0.661982 15.5281 0.672105C16.8178 0.683672 18.1076 0.682022 19.3992 0.68037C20.3684 0.67913 21.3386 0.677889 22.3107 0.682228C22.6447 0.682228 22.9181 0.611365 23.1711 0.358283C23.6166 -0.0770191 25.0136 -0.117512 25.5198 0.246927C25.8235 0.469639 26.0057 0.763215 26.0057 1.1479V5.34907C26.0057 5.73375 25.8235 6.02733 25.5198 6.23992C24.9326 6.65497 23.566 6.52337 23.0598 6.01721C22.7055 5.66289 22.4828 5.65277 22.2094 6.03745C21.5514 6.95867 20.6504 7.45472 19.5369 7.58632C19.1421 7.63693 19.0003 7.81915 19.0105 8.21396C19.0322 8.75628 19.028 9.29859 19.0239 9.84091C19.0222 10.0578 19.0206 10.2748 19.0206 10.4917C19.0206 11.2003 18.8991 11.3218 18.2006 11.3218C16.3379 11.3421 14.4955 11.3421 12.6632 11.3421ZM18.6966 1.63382H16.4695C15.2519 1.63382 14.642 1.63382 14.1301 1.85782C13.6163 2.08265 13.2012 2.53313 12.3696 3.43577L12.2987 3.50663C12.2692 3.55584 12.2216 3.59974 12.1745 3.64315C12.0763 3.73367 11.9805 3.82205 12.0558 3.95205C12.1155 4.05667 12.2581 4.03993 12.3938 4.024C12.4419 4.01834 12.4892 4.01279 12.5316 4.01279C13.0225 4.01786 13.511 4.01786 13.9994 4.01786C14.4879 4.01786 14.9763 4.01786 15.4673 4.02292C15.7204 4.02292 15.9937 4.04316 16.1253 4.31649C16.2569 4.5797 16.1152 4.81253 15.9431 5.00488L15.275 5.76412C15.2008 5.85112 15.1253 5.93747 15.0496 6.02399C14.826 6.27978 14.601 6.53706 14.4044 6.81695C14.1513 7.18139 14.2525 7.31299 14.6979 7.33324C15.1535 7.35348 15.4673 7.11052 15.7609 6.82707C16.5404 6.07795 17.249 5.26808 17.9475 4.43797C18.2209 4.11403 18.5347 3.99255 18.9295 4.1039C19.6989 4.31649 20.3569 4.12415 20.9238 3.57749C21.1364 3.3649 21.3996 3.27379 21.6324 3.51675C21.8956 3.79008 21.7438 4.04316 21.521 4.26588C21.0655 4.72142 20.5188 4.98463 19.8912 5.11623C19.7898 5.13721 19.6739 5.11713 19.5594 5.09728C19.3423 5.05967 19.1301 5.0229 19.0307 5.26808C18.9486 5.4529 18.9636 5.67476 18.9789 5.89921C18.9862 6.00669 18.9935 6.11478 18.9902 6.21967V6.32091C18.97 6.68534 19.1522 6.74608 19.466 6.68534C20.367 6.53349 21.0756 6.08807 21.5514 5.30858C21.7438 4.99475 21.9867 4.79229 22.3714 4.81253C22.7257 4.83278 22.7865 4.63031 22.7865 4.33674C22.7763 3.59774 22.7662 2.84861 22.7865 2.10961C22.7966 1.73505 22.665 1.60345 22.2904 1.61357C21.3266 1.63787 20.3693 1.63625 19.4132 1.63463C19.1743 1.63422 18.9355 1.63382 18.6966 1.63382ZM18.0285 5.80462C17.6844 6.16898 17.4212 6.44227 17.1581 6.71554L17.1579 6.71571C17.0212 6.85238 16.8846 6.99158 16.7479 7.13078C16.6112 7.26997 16.4746 7.40916 16.3379 7.54583C15.9836 7.90014 15.5888 8.19372 15.0725 8.23421C14.6676 8.2747 14.4246 8.43668 14.2019 8.78087C13.6654 9.60085 12.5923 9.81344 11.7419 9.32753C10.922 8.86185 10.5778 7.81915 10.9422 6.95867C11.3269 6.0577 12.319 5.5819 13.2402 5.91597C13.6552 6.06782 13.8982 6.01721 14.1209 5.66289C14.1682 5.59201 14.2327 5.52802 14.2963 5.46489C14.3417 5.41983 14.3867 5.3752 14.4246 5.32882C14.4391 5.31228 14.4565 5.29574 14.4744 5.27876C14.5441 5.21264 14.6207 5.13997 14.5562 5.03525C14.5089 4.9564 14.4248 4.96353 14.342 4.97054C14.3185 4.97253 14.2952 4.97451 14.2728 4.97451H9.71728C9.45408 4.97451 9.32248 5.07574 9.24149 5.3187C8.97828 6.07795 8.47212 6.6246 7.70275 6.88781C7.28806 7.02604 7.31028 7.31573 7.33193 7.5978C7.33881 7.68756 7.34564 7.77656 7.33831 7.85965C7.30794 8.15322 7.32819 8.4063 7.70275 8.52778C8.45187 8.77074 8.95804 9.29716 9.22124 10.0463C9.31235 10.3196 9.48445 10.4006 9.74765 10.4006H15.5078C15.7508 10.4006 15.9229 10.3399 16.014 10.0766C16.2974 9.25666 16.8846 8.73025 17.6944 8.45692C17.8665 8.39618 18.0083 8.3152 18.0083 8.11273C18.0285 7.38385 18.0285 6.64485 18.0285 5.80462ZM25.1047 3.28392C25.1047 3.08857 25.1036 2.89211 25.1025 2.69527C25.1002 2.30046 25.0979 1.90415 25.1047 1.51234C25.1239 0.99312 24.7961 0.994456 24.4422 0.995898C24.4235 0.995974 24.4047 0.996051 24.3859 0.996051C24.3675 0.996051 24.3491 0.995968 24.3309 0.995886C23.9988 0.994397 23.7077 0.993092 23.7077 1.49209C23.7279 2.67652 23.7279 3.85082 23.7077 5.03525C23.6984 5.51919 23.98 5.52401 24.3007 5.5295C24.3289 5.52998 24.3574 5.53047 24.3859 5.53129C24.4042 5.53129 24.4225 5.53136 24.4407 5.53144C24.786 5.53288 25.1138 5.53425 25.0946 5.015C25.0885 4.66878 25.0934 4.32257 25.0982 3.97635C25.1015 3.74554 25.1047 3.51473 25.1047 3.28392ZM12.6834 6.76633C12.1368 6.76633 11.7015 7.20163 11.7217 7.71792C11.7419 8.20384 12.1874 8.63914 12.6733 8.64926C13.0985 8.65939 13.554 8.30507 13.554 7.98113C13.5338 7.17126 13.2402 6.76633 12.6834 6.76633Z" fill="#FE5D14"/>
<path d="M12.6632 11.3421H7.19658C6.51832 11.3421 6.38672 11.2105 6.38672 10.5524V4.8834C6.38672 4.19501 6.54869 4.03304 7.25732 4.02292C8.19879 4.01279 9.15038 4.01279 10.0918 4.02292C10.4259 4.02292 10.6588 3.92168 10.8815 3.6686C11.0996 3.41801 11.3304 3.17806 11.5614 2.93802C11.8343 2.65441 12.1073 2.37067 12.3595 2.06912C13.1896 1.07704 14.2525 0.661982 15.5281 0.672105C16.8178 0.683672 18.1076 0.682022 19.3992 0.68037C20.3684 0.67913 21.3386 0.677889 22.3107 0.682228C22.6447 0.682228 22.9181 0.611365 23.1711 0.358283C23.6166 -0.0770191 25.0136 -0.117512 25.5198 0.246927C25.8235 0.469639 26.0057 0.763215 26.0057 1.1479V5.34907C26.0057 5.73375 25.8235 6.02733 25.5198 6.23992C24.9326 6.65497 23.566 6.52337 23.0598 6.01721C22.7055 5.66289 22.4828 5.65277 22.2094 6.03745C21.5514 6.95867 20.6504 7.45472 19.5369 7.58632C19.1421 7.63693 19.0003 7.81915 19.0105 8.21396C19.0322 8.75628 19.028 9.29859 19.0239 9.84091C19.0222 10.0578 19.0206 10.2748 19.0206 10.4917C19.0206 11.2003 18.8991 11.3218 18.2006 11.3218C16.3379 11.3421 14.4955 11.3421 12.6632 11.3421ZM18.6966 1.63382H16.4695C15.2519 1.63382 14.642 1.63382 14.1301 1.85782C13.6163 2.08265 13.2012 2.53313 12.3696 3.43577L12.2987 3.50663C12.2692 3.55584 12.2216 3.59974 12.1745 3.64315C12.0763 3.73367 11.9805 3.82205 12.0558 3.95205C12.1155 4.05667 12.2581 4.03993 12.3938 4.024C12.4419 4.01834 12.4892 4.01279 12.5316 4.01279C13.0225 4.01786 13.511 4.01786 13.9994 4.01786C14.4879 4.01786 14.9763 4.01786 15.4673 4.02292C15.7204 4.02292 15.9937 4.04316 16.1253 4.31649C16.2569 4.5797 16.1152 4.81253 15.9431 5.00488L15.275 5.76412C15.2008 5.85112 15.1253 5.93747 15.0496 6.02399C14.826 6.27978 14.601 6.53706 14.4044 6.81695C14.1513 7.18139 14.2525 7.31299 14.6979 7.33324C15.1535 7.35348 15.4673 7.11052 15.7609 6.82707C16.5404 6.07795 17.249 5.26808 17.9475 4.43797C18.2209 4.11403 18.5347 3.99255 18.9295 4.1039C19.6989 4.31649 20.3569 4.12415 20.9238 3.57749C21.1364 3.3649 21.3996 3.27379 21.6324 3.51675C21.8956 3.79008 21.7438 4.04316 21.521 4.26588C21.0655 4.72142 20.5188 4.98463 19.8912 5.11623C19.7898 5.13721 19.6739 5.11713 19.5594 5.09728C19.3423 5.05967 19.1301 5.0229 19.0307 5.26808C18.9486 5.4529 18.9636 5.67476 18.9789 5.89921C18.9862 6.00669 18.9935 6.11478 18.9902 6.21967V6.32091C18.97 6.68534 19.1522 6.74608 19.466 6.68534C20.367 6.53349 21.0756 6.08807 21.5514 5.30858C21.7438 4.99475 21.9867 4.79229 22.3714 4.81253C22.7257 4.83278 22.7865 4.63031 22.7865 4.33674C22.7763 3.59774 22.7662 2.84861 22.7865 2.10961C22.7966 1.73505 22.665 1.60345 22.2904 1.61357C21.3266 1.63787 20.3693 1.63625 19.4132 1.63463C19.1743 1.63422 18.9355 1.63382 18.6966 1.63382ZM18.0285 5.80462C17.6844 6.16898 17.4212 6.44227 17.1581 6.71554L17.1579 6.71571C17.0212 6.85238 16.8846 6.99158 16.7479 7.13078C16.6112 7.26997 16.4746 7.40916 16.3379 7.54583C15.9836 7.90014 15.5888 8.19372 15.0725 8.23421C14.6676 8.2747 14.4246 8.43668 14.2019 8.78087C13.6654 9.60085 12.5923 9.81344 11.7419 9.32753C10.922 8.86185 10.5778 7.81915 10.9422 6.95867C11.3269 6.0577 12.319 5.5819 13.2402 5.91597C13.6552 6.06782 13.8982 6.01721 14.1209 5.66289C14.1682 5.59201 14.2327 5.52802 14.2963 5.46489C14.3417 5.41983 14.3867 5.3752 14.4246 5.32882C14.4391 5.31228 14.4565 5.29574 14.4744 5.27876C14.5441 5.21264 14.6207 5.13997 14.5562 5.03525C14.5089 4.9564 14.4248 4.96353 14.342 4.97054C14.3185 4.97253 14.2952 4.97451 14.2728 4.97451H9.71728C9.45408 4.97451 9.32248 5.07574 9.24149 5.3187C8.97828 6.07795 8.47212 6.6246 7.70275 6.88781C7.28806 7.02604 7.31028 7.31573 7.33193 7.5978C7.33881 7.68756 7.34564 7.77656 7.33831 7.85965C7.30794 8.15322 7.32819 8.4063 7.70275 8.52778C8.45187 8.77074 8.95804 9.29716 9.22124 10.0463C9.31235 10.3196 9.48445 10.4006 9.74765 10.4006H15.5078C15.7508 10.4006 15.9229 10.3399 16.014 10.0766C16.2974 9.25666 16.8846 8.73025 17.6944 8.45692C17.8665 8.39618 18.0083 8.3152 18.0083 8.11273C18.0285 7.38385 18.0285 6.64485 18.0285 5.80462ZM25.1047 3.28392C25.1047 3.08857 25.1036 2.89211 25.1025 2.69527C25.1002 2.30046 25.0979 1.90415 25.1047 1.51234C25.1239 0.99312 24.7961 0.994456 24.4422 0.995898C24.4235 0.995974 24.4047 0.996051 24.3859 0.996051C24.3675 0.996051 24.3491 0.995968 24.3309 0.995886C23.9988 0.994397 23.7077 0.993092 23.7077 1.49209C23.7279 2.67652 23.7279 3.85082 23.7077 5.03525C23.6984 5.51919 23.98 5.52401 24.3007 5.5295C24.3289 5.52998 24.3574 5.53047 24.3859 5.53129C24.4042 5.53129 24.4225 5.53136 24.4407 5.53144C24.786 5.53288 25.1138 5.53425 25.0946 5.015C25.0885 4.66878 25.0934 4.32257 25.0982 3.97635C25.1015 3.74554 25.1047 3.51473 25.1047 3.28392ZM12.6834 6.76633C12.1368 6.76633 11.7015 7.20163 11.7217 7.71792C11.7419 8.20384 12.1874 8.63914 12.6733 8.64926C13.0985 8.65939 13.554 8.30507 13.554 7.98113C13.5338 7.17126 13.2402 6.76633 12.6834 6.76633Z" stroke="#3661FC"/>
<path d="M14.041 16.8289C14.1281 16.751 14.2105 16.6768 14.2895 16.6055C14.5596 16.362 14.7903 16.1541 15.0331 15.9583C15.4178 15.6445 15.8328 15.3914 16.3188 15.2699C17.0476 15.0978 17.736 15.3712 18.1207 15.9786C18.5155 16.5961 18.5155 17.4464 18.0296 17.9627C16.2985 19.8355 14.5573 21.6881 12.7958 23.5305C12.148 24.2088 11.2774 24.3708 10.3764 24.3708H3.59377C3.27995 24.3708 3.02687 24.4214 2.78391 24.6644C2.31824 25.13 0.911097 25.1604 0.404932 24.7453C0.131603 24.5226 0 24.2189 0 23.8545V19.8558C0 19.5116 0.131603 19.2281 0.394809 19.0155C0.900974 18.6005 2.35873 18.6309 2.81428 19.1067C3.05724 19.3597 3.31032 19.461 3.62414 19.3395C3.94809 19.2079 4.07969 18.9244 4.07969 18.5701C4.07294 17.7809 4.07519 16.9961 4.07744 16.2099C4.07856 15.8162 4.07969 15.4222 4.07969 15.027C4.07969 15.0081 4.08 14.989 4.08031 14.9697C4.08253 14.8334 4.08488 14.6892 3.97846 14.5917C3.48615 14.1433 3.53588 13.5805 3.58401 13.0357C3.59131 12.9531 3.59857 12.871 3.60389 12.7897C3.64439 12.2633 4.02907 12.0001 4.65672 12.0001C5.77028 11.9934 6.88384 11.9956 7.99741 11.9979C8.55419 11.999 9.11097 12.0001 9.66775 12.0001C10.0896 12.0001 10.5114 11.999 10.9332 11.9979C11.7768 11.9956 12.6204 11.9934 13.464 12.0001C14.2637 12.0102 14.5472 12.3038 14.5573 13.1137C14.5573 13.1895 14.5593 13.266 14.5612 13.3425C14.5733 13.8173 14.5855 14.2949 14.1321 14.6524C14.0714 14.703 14.0613 14.8346 14.0613 14.9359C14.041 15.523 14.041 16.1202 14.041 16.8288V16.8289ZM7.17742 23.4293H10.5687C11.2875 23.4293 11.8848 23.1863 12.3808 22.6701L12.3811 22.6698C12.8669 22.1536 13.3527 21.6374 13.8284 21.1212L17.1691 17.5375C17.4931 17.1934 17.5437 16.8087 17.2703 16.4341C17.0071 16.0595 16.6123 16.1507 16.258 16.2924C15.843 16.4544 15.5089 16.7479 15.2052 17.0618C14.7901 17.4819 14.3726 17.8995 13.955 18.317C13.5374 18.7346 13.1198 19.1522 12.7047 19.5723C12.1783 20.1089 11.5406 20.4126 10.7813 20.4834C10.0207 20.5539 9.26018 20.5459 8.49961 20.5379C8.16686 20.5344 7.83411 20.531 7.50136 20.534C7.16729 20.534 6.81298 20.4531 6.83323 20.0178C6.85347 19.6229 7.19767 19.5926 7.52161 19.5926C7.73674 19.5926 7.95187 19.5932 8.167 19.5938C8.81235 19.5957 9.4577 19.5976 10.1031 19.5825C10.5788 19.5723 10.8724 19.2585 10.8319 18.8637C10.8016 18.4993 10.4675 18.1956 10.0423 18.2563C9.26282 18.3677 8.49345 18.2563 7.7342 18.1449C6.79273 18.0032 6.01324 18.2664 5.37547 18.9852C5.1811 19.2038 4.9758 19.4116 4.7705 19.6193C4.63363 19.7578 4.49677 19.8963 4.36314 20.038C4.1708 20.2506 3.94809 20.3822 3.65451 20.3518C3.2597 20.3113 3.16859 20.534 3.17872 20.8782L3.17887 20.8883C3.18894 21.5631 3.19886 22.228 3.17872 22.9029C3.15847 23.3382 3.35081 23.4496 3.75574 23.4394C4.60593 23.4242 5.46181 23.4261 6.31911 23.428C6.60511 23.4287 6.89126 23.4293 7.17742 23.4293ZM11.824 18.9852C11.8493 18.9953 11.8721 19.0054 11.8949 19.0155C11.9177 19.0257 11.9404 19.0358 11.9657 19.0459C12.1277 18.8738 12.2872 18.7017 12.4466 18.5296C12.606 18.3575 12.7655 18.1854 12.9275 18.0133C13.0388 17.8919 13.0894 17.7603 13.0894 17.5983V15.0776C13.0894 14.7941 12.9578 14.6929 12.6845 14.6929C12.0467 14.703 11.409 14.703 10.7611 14.6929C10.508 14.6929 10.3966 14.8043 10.3966 15.0573C10.4034 15.496 10.4011 15.9347 10.3989 16.3734C10.3978 16.5927 10.3966 16.812 10.3966 17.0314C10.3966 17.1934 10.4371 17.325 10.6193 17.3857C11.3786 17.6388 11.7329 18.2057 11.824 18.9852ZM5.02116 16.3025V17.5679C5.02116 17.8514 5.0819 17.9627 5.35523 17.7603C5.92213 17.325 6.57002 17.1225 7.28877 17.163C7.59247 17.1832 7.71395 17.0415 7.70383 16.7479C7.69371 16.2114 7.69371 15.6749 7.70383 15.1383C7.71395 14.8144 7.58235 14.6828 7.2584 14.6929C6.67125 14.7131 6.0841 14.7131 5.49695 14.6929C5.15276 14.6828 5.00091 14.7941 5.02116 15.1586C5.03463 15.4079 5.03017 15.6617 5.02568 15.9171C5.02342 16.0453 5.02116 16.1739 5.02116 16.3025ZM2.22713 21.8804C2.22713 21.6948 2.22488 21.5093 2.22263 21.3237C2.21813 20.9525 2.21363 20.5813 2.22713 20.2101C2.24737 19.6938 1.90318 19.7039 1.55899 19.7141C1.54114 19.7141 1.52328 19.714 1.50548 19.7139C1.18004 19.7124 0.871129 19.711 0.880727 20.2101C0.900974 21.3338 0.89085 22.4676 0.880727 23.5913C0.870808 24.0773 1.18159 24.0677 1.50838 24.0576C1.51512 24.0574 1.52187 24.0572 1.52862 24.057C1.57613 24.0555 1.62517 24.0564 1.6742 24.0573C1.95945 24.0626 2.2444 24.0679 2.22713 23.6014C2.22036 23.216 2.22264 22.8305 2.22489 22.4481C2.22601 22.258 2.22713 22.0687 2.22713 21.8804ZM9.5159 15.1586C9.5159 14.9632 9.51478 14.7668 9.51366 14.5699C9.51141 14.1751 9.50915 13.7788 9.5159 13.387C9.52602 13.0934 9.43491 12.9517 9.11097 12.9517C8.79715 12.9517 8.6453 13.0428 8.6453 13.387C8.65542 14.5714 8.65542 15.7457 8.6453 16.9302C8.6453 17.2642 8.78702 17.3655 9.10085 17.3655C9.41467 17.3655 9.5159 17.2237 9.50578 16.9302C9.50578 16.6366 9.50831 16.3405 9.51084 16.0444C9.51337 15.7483 9.5159 15.4522 9.5159 15.1586ZM6.10435 13.8021C6.2397 13.8021 6.37506 13.8009 6.51003 13.7998C6.77886 13.7975 7.04618 13.7953 7.30902 13.8021C7.58235 13.8122 7.70383 13.6907 7.70383 13.4072C7.70383 13.1339 7.65321 12.9517 7.32927 12.9517C6.5194 12.9618 5.71966 12.9618 4.9098 12.9517C4.58585 12.9517 4.51499 13.1137 4.51499 13.3971C4.51499 13.6704 4.6061 13.8021 4.88955 13.8021C5.15951 13.7953 5.42946 13.7976 5.69942 13.7998C5.83439 13.8009 5.96937 13.8021 6.10435 13.8021ZM11.9961 13.8021C12.1315 13.8021 12.2668 13.8009 12.4018 13.7998C12.6706 13.7975 12.9379 13.7953 13.2008 13.8021C13.4842 13.8122 13.5855 13.6806 13.5956 13.4072C13.5956 13.1339 13.5247 12.9517 13.2008 12.9618C12.3909 12.9719 11.5912 12.9719 10.7813 12.9618C10.4979 12.9618 10.3966 13.0833 10.3966 13.3566C10.3966 13.63 10.4574 13.8122 10.7813 13.8122C11.0924 13.797 11.3922 13.7989 11.6934 13.8008C11.794 13.8014 11.8947 13.8021 11.9961 13.8021Z" fill="#FE5D14"/>
<path d="M14.041 16.8289C14.1281 16.751 14.2105 16.6768 14.2895 16.6055C14.5596 16.362 14.7903 16.1541 15.0331 15.9583C15.4178 15.6445 15.8328 15.3914 16.3188 15.2699C17.0476 15.0978 17.736 15.3712 18.1207 15.9786C18.5155 16.5961 18.5155 17.4464 18.0296 17.9627C16.2985 19.8355 14.5573 21.6881 12.7958 23.5305C12.148 24.2088 11.2774 24.3708 10.3764 24.3708H3.59377C3.27995 24.3708 3.02687 24.4214 2.78391 24.6644C2.31824 25.13 0.911097 25.1604 0.404932 24.7453C0.131603 24.5226 0 24.2189 0 23.8545V19.8558C0 19.5116 0.131603 19.2281 0.394809 19.0155C0.900974 18.6005 2.35873 18.6309 2.81428 19.1067C3.05724 19.3597 3.31032 19.461 3.62414 19.3395C3.94809 19.2079 4.07969 18.9244 4.07969 18.5701C4.07294 17.7809 4.07519 16.9961 4.07744 16.2099C4.07856 15.8162 4.07969 15.4222 4.07969 15.027C4.07969 15.0081 4.08 14.989 4.08031 14.9697C4.08253 14.8334 4.08488 14.6892 3.97846 14.5917C3.48615 14.1433 3.53588 13.5805 3.58401 13.0357C3.59131 12.9531 3.59857 12.871 3.60389 12.7897C3.64439 12.2633 4.02907 12.0001 4.65672 12.0001C5.77028 11.9934 6.88384 11.9956 7.99741 11.9979C8.55419 11.999 9.11097 12.0001 9.66775 12.0001C10.0896 12.0001 10.5114 11.999 10.9332 11.9979C11.7768 11.9956 12.6204 11.9934 13.464 12.0001C14.2637 12.0102 14.5472 12.3038 14.5573 13.1137C14.5573 13.1895 14.5593 13.266 14.5612 13.3425C14.5733 13.8173 14.5855 14.2949 14.1321 14.6524C14.0714 14.703 14.0613 14.8346 14.0613 14.9359C14.041 15.523 14.041 16.1202 14.041 16.8288V16.8289ZM7.17742 23.4293H10.5687C11.2875 23.4293 11.8848 23.1863 12.3808 22.6701L12.3811 22.6698C12.8669 22.1536 13.3527 21.6374 13.8284 21.1212L17.1691 17.5375C17.4931 17.1934 17.5437 16.8087 17.2703 16.4341C17.0071 16.0595 16.6123 16.1507 16.258 16.2924C15.843 16.4544 15.5089 16.7479 15.2052 17.0618C14.7901 17.4819 14.3726 17.8995 13.955 18.317C13.5374 18.7346 13.1198 19.1522 12.7047 19.5723C12.1783 20.1089 11.5406 20.4126 10.7813 20.4834C10.0207 20.5539 9.26018 20.5459 8.49961 20.5379C8.16686 20.5344 7.83411 20.531 7.50136 20.534C7.16729 20.534 6.81298 20.4531 6.83323 20.0178C6.85347 19.6229 7.19767 19.5926 7.52161 19.5926C7.73674 19.5926 7.95187 19.5932 8.167 19.5938C8.81235 19.5957 9.4577 19.5976 10.1031 19.5825C10.5788 19.5723 10.8724 19.2585 10.8319 18.8637C10.8016 18.4993 10.4675 18.1956 10.0423 18.2563C9.26282 18.3677 8.49345 18.2563 7.7342 18.1449C6.79273 18.0032 6.01324 18.2664 5.37547 18.9852C5.1811 19.2038 4.9758 19.4116 4.7705 19.6193C4.63363 19.7578 4.49677 19.8963 4.36314 20.038C4.1708 20.2506 3.94809 20.3822 3.65451 20.3518C3.2597 20.3113 3.16859 20.534 3.17872 20.8782L3.17887 20.8883C3.18894 21.5631 3.19886 22.228 3.17872 22.9029C3.15847 23.3382 3.35081 23.4496 3.75574 23.4394C4.60593 23.4242 5.46181 23.4261 6.31911 23.428C6.60511 23.4287 6.89126 23.4293 7.17742 23.4293ZM11.824 18.9852C11.8493 18.9953 11.8721 19.0054 11.8949 19.0155C11.9177 19.0257 11.9404 19.0358 11.9657 19.0459C12.1277 18.8738 12.2872 18.7017 12.4466 18.5296C12.606 18.3575 12.7655 18.1854 12.9275 18.0133C13.0388 17.8919 13.0894 17.7603 13.0894 17.5983V15.0776C13.0894 14.7941 12.9578 14.6929 12.6845 14.6929C12.0467 14.703 11.409 14.703 10.7611 14.6929C10.508 14.6929 10.3966 14.8043 10.3966 15.0573C10.4034 15.496 10.4011 15.9347 10.3989 16.3734C10.3978 16.5927 10.3966 16.812 10.3966 17.0314C10.3966 17.1934 10.4371 17.325 10.6193 17.3857C11.3786 17.6388 11.7329 18.2057 11.824 18.9852ZM5.02116 16.3025V17.5679C5.02116 17.8514 5.0819 17.9627 5.35523 17.7603C5.92213 17.325 6.57002 17.1225 7.28877 17.163C7.59247 17.1832 7.71395 17.0415 7.70383 16.7479C7.69371 16.2114 7.69371 15.6749 7.70383 15.1383C7.71395 14.8144 7.58235 14.6828 7.2584 14.6929C6.67125 14.7131 6.0841 14.7131 5.49695 14.6929C5.15276 14.6828 5.00091 14.7941 5.02116 15.1586C5.03463 15.4079 5.03017 15.6617 5.02568 15.9171C5.02342 16.0453 5.02116 16.1739 5.02116 16.3025ZM2.22713 21.8804C2.22713 21.6948 2.22488 21.5093 2.22263 21.3237C2.21813 20.9525 2.21363 20.5813 2.22713 20.2101C2.24737 19.6938 1.90318 19.7039 1.55899 19.7141C1.54114 19.7141 1.52328 19.714 1.50548 19.7139C1.18004 19.7124 0.871129 19.711 0.880727 20.2101C0.900974 21.3338 0.89085 22.4676 0.880727 23.5913C0.870808 24.0773 1.18159 24.0677 1.50838 24.0576C1.51512 24.0574 1.52187 24.0572 1.52862 24.057C1.57613 24.0555 1.62517 24.0564 1.6742 24.0573C1.95945 24.0626 2.2444 24.0679 2.22713 23.6014C2.22036 23.216 2.22264 22.8305 2.22489 22.4481C2.22601 22.258 2.22713 22.0687 2.22713 21.8804ZM9.5159 15.1586C9.5159 14.9632 9.51478 14.7668 9.51366 14.5699C9.51141 14.1751 9.50915 13.7788 9.5159 13.387C9.52602 13.0934 9.43491 12.9517 9.11097 12.9517C8.79715 12.9517 8.6453 13.0428 8.6453 13.387C8.65542 14.5714 8.65542 15.7457 8.6453 16.9302C8.6453 17.2642 8.78702 17.3655 9.10085 17.3655C9.41467 17.3655 9.5159 17.2237 9.50578 16.9302C9.50578 16.6366 9.50831 16.3405 9.51084 16.0444C9.51337 15.7483 9.5159 15.4522 9.5159 15.1586ZM6.10435 13.8021C6.2397 13.8021 6.37506 13.8009 6.51003 13.7998C6.77886 13.7975 7.04618 13.7953 7.30902 13.8021C7.58235 13.8122 7.70383 13.6907 7.70383 13.4072C7.70383 13.1339 7.65321 12.9517 7.32927 12.9517C6.5194 12.9618 5.71966 12.9618 4.9098 12.9517C4.58585 12.9517 4.51499 13.1137 4.51499 13.3971C4.51499 13.6704 4.6061 13.8021 4.88955 13.8021C5.15951 13.7953 5.42946 13.7976 5.69942 13.7998C5.83439 13.8009 5.96937 13.8021 6.10435 13.8021ZM11.9961 13.8021C12.1315 13.8021 12.2668 13.8009 12.4018 13.7998C12.6706 13.7975 12.9379 13.7953 13.2008 13.8021C13.4842 13.8122 13.5855 13.6806 13.5956 13.4072C13.5956 13.1339 13.5247 12.9517 13.2008 12.9618C12.3909 12.9719 11.5912 12.9719 10.7813 12.9618C10.4979 12.9618 10.3966 13.0833 10.3966 13.3566C10.3966 13.63 10.4574 13.8122 10.7813 13.8122C11.0924 13.797 11.3922 13.7989 11.6934 13.8008C11.794 13.8014 11.8947 13.8021 11.9961 13.8021Z" stroke="#3661FC"/>
</svg>
