<svg width="38" height="38" viewBox="0 0 38 38" fill="none" xmlns="http://www.w3.org/2000/svg">
<path d="M18.8445 37.6953C10.8672 38.0044 1.74193 32.0582 0.181793 21.6229C0.064047 20.8282 0.0346106 20.0187 0.00517406 19.2092C-0.0242624 18.3113 0.46144 17.752 1.19735 17.7668C1.90383 17.7815 2.31594 18.3113 2.36009 19.1797C2.65446 25.7441 5.65698 30.6599 11.4854 33.6625C21.5821 38.8727 33.9896 32.1171 35.1965 20.8576C36.1532 11.9383 30.1923 4.12295 21.3466 2.65112C20.8904 2.57753 20.3752 2.26845 20.1103 1.90049C19.9337 1.665 20.0073 1.00268 20.228 0.767188C20.493 0.472823 21.0375 0.266768 21.4349 0.310922C25.718 0.870216 29.427 2.68056 32.3559 5.84498C37.4484 11.3055 39.038 17.7373 36.6978 24.8315C34.3428 31.9552 29.2062 36.1204 21.8618 37.5481C21.4497 37.6217 21.0375 37.6806 20.6254 37.71C20.022 37.71 19.4333 37.6953 18.8445 37.6953Z" fill="white"/>
<path d="M3.74169 11.3937C5.15464 11.3937 6.56759 11.379 7.98054 11.4084C8.33378 11.4084 8.80476 11.4379 9.01082 11.6586C9.29046 11.953 9.51124 12.4681 9.4818 12.8508C9.43765 13.4395 8.93723 13.7486 8.31906 13.7486C6.87667 13.7486 5.41957 13.7486 3.97718 13.7486C3.12352 13.7486 2.25514 13.7633 1.40148 13.7486C0.17987 13.7339 -0.394142 12.8361 0.297616 11.8353C1.04825 10.7314 1.94606 9.71582 2.88803 8.77386C3.71225 7.94963 4.72781 7.30203 5.6109 6.52196C6.0083 6.16873 6.40569 5.75662 6.61174 5.28563C7.03857 4.31423 6.74421 3.31339 5.99358 2.78353C5.1252 2.18008 3.63866 2.13593 2.99105 2.8424C2.66725 3.19564 2.47592 3.76965 2.41704 4.27007C2.31402 5.16789 1.9755 5.66831 1.2543 5.68302C0.518389 5.69774 0.0621237 5.16789 0.0326872 4.24064C-0.0556223 1.92987 1.75472 0.0312178 4.09492 0.0312178C4.65422 0.0312178 5.22823 0.0164995 5.7728 0.148964C9.11385 0.987904 10.3355 4.91768 8.00998 7.46393C7.27407 8.27344 6.36153 8.92104 5.52259 9.62751C4.90443 10.1427 4.28626 10.6578 3.68281 11.1876C3.68281 11.2612 3.71225 11.3348 3.74169 11.3937Z" fill="white"/>
<path d="M15.1786 10.5842C13.3388 10.5842 11.6315 10.5842 9.90947 10.5842C9.29131 10.5842 8.7173 10.5254 8.40821 9.89248C8.09913 9.2596 8.42293 8.7739 8.82032 8.30291C10.9692 5.75666 13.1181 3.2104 15.2228 0.634708C15.679 0.0901328 16.1942 -0.145359 16.8271 0.0901328C17.4452 0.310906 17.5335 0.884918 17.5335 1.48837C17.5188 3.6961 17.5335 5.88912 17.5335 8.15573C18.4019 8.21461 19.2408 8.33235 19.2556 9.43622C19.2703 10.128 18.7993 10.4518 17.5335 10.6578C17.5335 11.2466 17.5482 11.85 17.5335 12.4535C17.5188 13.2335 17.092 13.7045 16.4149 13.7339C15.7085 13.7634 15.208 13.2777 15.1786 12.4829C15.1639 11.8647 15.1786 11.2318 15.1786 10.5842ZM15.1492 4.43202C14.0453 5.74194 13.0739 6.9194 12.0289 8.15573C13.1916 8.15573 14.163 8.15573 15.1492 8.15573C15.1492 6.94884 15.1492 5.80081 15.1492 4.43202Z" fill="white"/>
<path d="M27.8193 8.52363C27.5397 8.96517 27.4072 9.31841 27.157 9.5539C21.461 15.2646 15.7651 20.9605 10.0544 26.6565C9.48037 27.2305 8.78862 27.26 8.28819 26.789C7.77306 26.2886 7.80249 25.5821 8.40594 24.9786C14.1313 19.2679 19.8273 13.572 25.5233 7.87602C25.9207 7.47863 26.3916 7.22842 26.9068 7.5375C27.26 7.75828 27.4955 8.15567 27.8193 8.52363Z" fill="white"/>
<path d="M27.2924 19.7538C25.7764 19.7538 24.4076 19.7538 23.0388 19.7538C22.141 19.7538 21.6406 19.3417 21.6259 18.6205C21.6112 17.8552 22.1263 17.3989 23.0388 17.3989C25.0994 17.3989 27.1599 17.3989 29.2058 17.3989C29.7504 17.3989 30.3244 17.502 30.4716 18.0465C30.5893 18.4586 30.5304 19.0474 30.3097 19.4006C27.9842 23.1096 25.6145 26.8039 23.2449 30.4834C22.7739 31.2194 22.1116 31.4107 21.5081 31.0133C20.9194 30.6306 20.8164 29.9242 21.2727 29.203C23.1124 26.3182 24.9669 23.4334 26.8214 20.5339C26.9539 20.3279 27.0716 20.1071 27.2924 19.7538Z" fill="white"/>
</svg>
