<svg width="38" height="35" viewBox="0 0 38 35" fill="none" xmlns="http://www.w3.org/2000/svg">
<path d="M1.88308 19.2823C1.58427 19.2647 1.39093 19.2471 1.18001 19.2471C0.564823 19.2471 0.125406 19.0186 0.107829 18.3683C0.0902521 17.6476 0.599976 17.4543 1.23274 17.4543C2.41038 17.4543 3.57044 17.4543 4.74808 17.4543C6.29483 17.4543 7.85915 17.4543 9.4059 17.4543C10.0211 17.4543 10.5484 17.5949 10.5484 18.3331C10.5484 19.0538 10.0387 19.2471 9.42348 19.2471C7.75369 19.2471 6.08391 19.2647 4.41412 19.2295C3.95713 19.2295 3.74621 19.3701 3.60559 19.8096C3.06071 21.5321 2.48068 23.2546 1.90065 24.9771C1.74246 25.4517 1.72489 25.7856 2.37522 25.7681C5.82026 25.7681 9.28287 25.7681 12.7982 25.7681C13.1497 21.0575 15.2062 17.384 19.3543 15.099C23.4673 12.8316 27.6505 13.0249 31.8689 15.2572C32.7302 12.6207 33.5914 10.0369 34.4879 7.34767C34.0836 7.34767 33.7848 7.34767 33.5036 7.34767C25.2074 7.34767 16.9287 7.34767 8.63253 7.3301C7.98219 7.3301 7.5955 7.43555 7.45489 8.13862C7.33185 8.73623 6.96274 9.19323 6.25967 8.96473C5.53903 8.71865 5.53903 8.1562 5.76753 7.52344C6.29483 5.97669 6.78697 4.41236 7.31428 2.86561C7.98219 0.844292 9.12468 0.000610352 11.2339 0.000610352C17.4385 0.000610352 23.643 0.0181871 29.8652 0.0181871C31.7459 0.0181871 33.609 0.0181871 35.4897 0.0181871C37.4759 0.0357638 38.3899 1.28371 37.7747 3.16442C36.4389 7.27736 35.0855 11.3903 33.6969 15.4857C33.486 16.1009 33.5387 16.47 34.0484 16.9797C37.6692 20.5654 38.759 24.8541 37.4232 29.7755C37.2122 30.5841 36.7728 30.9005 35.9116 30.8829C28.9336 30.8477 21.9732 30.8477 14.9953 30.8829C14.0637 30.8829 13.5716 30.5489 13.3782 29.6701C13.3431 29.5295 13.3079 29.3889 13.2728 29.2482C12.8158 27.5785 12.8158 27.5785 11.023 27.5785C8.24584 27.5785 5.45115 27.5785 2.67403 27.5785C0.424209 27.5785 -0.454626 26.3481 0.248442 24.2037C0.79332 22.5867 1.32062 20.9696 1.88308 19.2823ZM35.7534 24.9419C35.8588 24.9771 35.9643 24.9947 36.0698 25.0298C35.8588 22.8327 35.0679 20.8993 33.5914 19.3701C33.029 19.5107 32.2029 19.6865 32.0623 19.458C31.8162 19.0362 31.9568 18.3858 31.9392 17.5597C30.4979 16.3645 28.5821 15.5736 26.4905 15.5208C26.1565 16.013 25.7698 16.6809 25.3831 16.6633C24.9789 16.6633 24.5922 15.9954 24.2055 15.6263C24.2582 15.5384 24.2934 15.4505 24.3461 15.3626C22.1666 15.6087 20.2156 16.3821 18.6864 17.8585C18.8094 18.421 19.0204 19.0713 18.7743 19.4229C18.2821 20.1435 17.667 19.5459 17.1572 19.2295C15.6456 20.8993 14.5735 23.694 14.9426 25.0298C15.382 25.2935 15.9444 25.6099 16.0147 25.9966C16.1554 26.8402 15.4171 26.9633 14.6613 27.016C14.802 27.7366 14.925 28.387 15.0656 29.0725C15.4699 29.0725 15.7862 29.0725 16.1026 29.0725C22.0963 29.0725 28.1075 29.0725 34.1012 29.0725C36.017 29.0725 36.017 29.0725 36.0346 26.9984C35.4194 26.9633 34.6636 26.8754 34.7867 26.0669C34.857 25.6626 35.4194 25.3286 35.7534 24.9419ZM8.33372 5.48454C8.61495 5.50212 8.79072 5.53727 8.96649 5.53727C17.456 5.53727 25.928 5.53727 34.4175 5.55485C34.9624 5.55485 35.1909 5.34393 35.314 4.86936C35.5073 4.20144 35.7534 3.53353 35.9643 2.86561C36.2807 1.88132 36.2455 1.82859 35.2085 1.82859C29.8828 1.82859 24.557 1.82859 19.2313 1.81101C16.5069 1.81101 13.7825 1.81101 11.0757 1.79343C10.3023 1.79343 9.6344 2.00435 9.31802 2.70742C8.93133 3.60383 8.66768 4.51782 8.33372 5.48454Z" fill="white"/>
<path d="M4.07824 12.5854C3.00606 12.5854 2.07449 12.5854 1.12535 12.5854C0.492589 12.5854 -0.0171354 12.3921 0.000441307 11.6714C0.018018 10.9684 0.527742 10.7926 1.1605 10.7926C6.57413 10.7926 11.9702 10.7926 17.3838 10.7926C18.0341 10.7926 18.5263 11.0035 18.5263 11.689C18.5263 12.3745 18.0166 12.5854 17.3838 12.5854C13.8509 12.5678 10.3004 12.603 6.76747 12.5678C6.15229 12.5678 5.87106 12.7436 5.73045 13.3236C5.60741 13.8861 5.37891 14.431 5.18557 14.9759C4.99222 15.4856 4.60554 15.7141 4.06066 15.5559C3.4982 15.3977 3.35759 14.9583 3.48063 14.4486C3.63882 13.8685 3.84974 13.3061 4.07824 12.5854Z" fill="white"/>
<path d="M15.836 34.2752C14.7287 34.2752 13.6038 34.2752 12.4964 34.2752C11.8812 34.2752 11.3539 34.0994 11.3715 33.3612C11.3891 32.6406 11.8988 32.4648 12.5316 32.4648C14.7287 32.4648 16.9258 32.4648 19.1228 32.4648C19.7556 32.4648 20.2829 32.6405 20.3005 33.3436C20.3181 34.117 19.7556 34.2928 19.1053 34.2928C17.9979 34.2752 16.9082 34.2752 15.836 34.2752Z" fill="white"/>
<path d="M6.13442 30.8829C5.07982 30.8829 4.02522 30.8829 2.97062 30.8829C2.37301 30.8829 1.89844 30.6895 1.89844 30.0216C1.89844 29.301 2.37301 29.0901 3.00577 29.0901C5.15013 29.0901 7.27691 29.0901 9.42127 29.0901C10.054 29.0901 10.5462 29.2834 10.5462 30.004C10.5462 30.7423 10.0013 30.8829 9.38611 30.8829C8.31393 30.8829 7.22418 30.8829 6.13442 30.8829Z" fill="white"/>
<path d="M23.236 34.2577C23.0075 34.2577 22.7087 34.3456 22.5505 34.2401C22.2341 34.0116 21.7244 33.6601 21.7595 33.414C21.8123 33.0625 22.2165 32.6582 22.5681 32.5C22.9372 32.3418 23.4293 32.4473 23.8687 32.4649C24.4488 32.4825 24.8355 32.7813 24.8355 33.3789C24.8355 33.9765 24.4312 34.2401 23.8512 34.2753C23.6578 34.2753 23.4469 34.2753 23.236 34.2577C23.236 34.2753 23.236 34.2577 23.236 34.2577Z" fill="white"/>
<path d="M25.2226 28.4046C24.4493 28.387 23.711 27.93 23.2892 27.0336C22.8674 26.1196 23.0255 25.2583 23.6759 24.5025C24.3438 23.7468 25.2402 23.5183 26.1542 23.8698C26.6991 24.0807 27.0506 23.9928 27.5076 23.694C28.6852 22.9206 29.8805 22.2 31.0581 21.4618C31.603 21.1102 32.1654 20.9169 32.5697 21.5672C32.974 22.2 32.5697 22.6394 32.0072 22.991C30.7944 23.7292 29.5817 24.5201 28.3689 25.2583C27.9822 25.5044 27.7537 25.7505 27.7185 26.2778C27.6131 27.5257 26.6288 28.387 25.2226 28.4046ZM25.3457 25.3638C25.1347 25.6978 24.9062 25.9087 24.9414 26.0845C24.959 26.2778 25.2402 26.436 25.3984 26.5942C25.5742 26.4008 25.8378 26.2251 25.8905 26.0141C25.9081 25.8911 25.6093 25.6802 25.3457 25.3638Z" fill="white"/>
<path d="M28.3515 2.83054C28.4394 2.95357 28.7382 3.18207 28.791 3.44572C28.8788 3.97302 28.1758 4.67609 27.5957 4.57063C27.3321 4.5179 26.9806 4.2191 26.9278 3.95544C26.8048 3.4633 27.5254 2.83054 28.3515 2.83054Z" fill="white"/>
<path d="M30.4602 4.93956C30.0736 4.44741 29.7747 4.23649 29.722 3.97284C29.6166 3.48069 30.2845 2.81278 30.8469 2.88309C31.1282 2.91824 31.6027 3.41039 31.5676 3.46312C31.3039 3.92011 30.9348 4.32438 30.4602 4.93956Z" fill="white"/>
<path d="M33.8866 2.81284C34.0096 2.97103 34.3084 3.19952 34.3612 3.46317C34.4666 3.9729 33.7108 4.67597 33.1484 4.57051C32.9023 4.51778 32.5156 4.14866 32.5156 3.93774C32.5508 3.26983 33.0429 2.93587 33.8866 2.81284Z" fill="white"/>
</svg>
